<?xml version="1.0" encoding="UTF-8"?>
<svg width="165px" height="139px" viewBox="0 0 165 139" version="1.1" xmlns="http://www.w3.org/2000/svg" xmlns:xlink="http://www.w3.org/1999/xlink">
    <!-- Generator: Sketch 39.1 (31720) - http://www.bohemiancoding.com/sketch -->
    <title>Page 1</title>
    <desc>Created with Sketch.</desc>
    <defs>
        <polygon id="path-1" points="99.4385002 0.370402996 0.712489047 0.370402996 0.712489047 9.74570423 99.4385002 9.74570423 99.4385002 0.370402996"></polygon>
        <polygon id="path-3" points="4.90396536 19.6046036 4.90396536 0.699702257 0.431984459 0.699702257 0.431984459 19.6046036 4.90396536 19.6046036"></polygon>
    </defs>
    <g id="Page-1" stroke="none" stroke-width="1" fill="none" fill-rule="evenodd">
        <g id="Artboard-Copy-3" transform="translate(0.000000, -670.000000)">
            <g id="Page-1" transform="translate(68.470876, 744.181376) rotate(-23.000000) translate(-68.470876, -744.181376) translate(-41.529124, 702.681376)">
                <path d="M12.7917209,17.5992382 C10.774861,35.284011 10.5294335,57.5062205 25.9003203,69.8201499 C32.5328005,75.1318865 41.0178625,77.1888053 49.342605,77.927641 C57.5921358,78.6625363 68.2543772,78.8969935 75.2055174,73.646334 C75.6270985,73.3291272 75.4034428,72.448435 74.8017495,72.6947136 C66.7244138,75.9987871 59.2171033,76.9976931 50.5123441,76.2706787 C41.7363318,75.5397238 32.6733276,73.396115 25.9161543,67.4420839 C11.7387577,54.9508339 13.3142439,34.6023119 13.6685304,17.5992382 C13.6804059,17.0239314 12.8530777,17.0554551 12.7917209,17.5992382" id="Fill-3" fill="#303030"></path>
                <path d="M3.01341426,8.55234203 C1.57647583,12.8159169 0.125682631,19.8496334 1.62793644,24.2491541 C2.44536835,26.6410117 4.76703333,27.9177199 5.54883867,30.4356722 C6.45533701,33.3634321 6.33658177,36.7108506 6.6453454,39.7430326 C7.69830854,50.0473287 10.2535255,59.9024127 17.2798773,67.8227321 C31.3444564,83.6712517 56.0455467,86.8965161 74.8999205,78.1565816 C75.4640079,77.8945412 75.0661779,76.9645932 74.4743809,77.1557054 C63.8833926,80.5523797 52.993537,82.6230901 41.9176314,80.2548752 C32.5894072,78.2610037 23.8411044,73.1975159 17.7212509,65.8741759 C10.5603099,57.3056512 8.84231737,46.6132201 7.76164467,35.8498607 C7.38360715,32.0886941 6.96598455,29.2594457 4.69578018,26.1917996 C3.3518667,24.3752487 2.6888166,23.3389084 2.59975017,21.0554134 C2.54828956,19.7393006 2.59183315,18.4172771 2.66308629,17.1011644 C2.81548885,14.2600946 3.27071728,11.4544889 3.56562613,8.62721072 C3.59927345,8.29818253 3.10841845,8.2686291 3.01341426,8.55234203" id="Fill-11" fill="#303030"></path>
                <g id="Group-15" transform="translate(1.979254, 0.163699)">
                    <mask id="mask-2" fill="white">
                        <use xlink:href="#path-1"></use>
                    </mask>
                    <g id="Clip-14"></g>
                    <path d="M1.2138765,9.64820995 C6.46285818,3.50503686 14.4412312,3.41243611 21.974272,2.80560567 C30.4613133,2.11996608 38.9562715,1.82049132 47.4690431,1.96825847 C55.7462835,2.11011494 64.0195653,2.68739195 72.2334695,3.71782156 C81.1044861,4.83100078 89.6845523,7.02583555 98.4724401,8.5054773 C99.4442539,8.66703606 99.8539595,7.32136985 98.8861042,7.01401418 C90.3772912,4.32268177 81.072818,3.2055621 72.2334695,2.11602563 C62.879515,0.963441835 53.444411,0.354641166 44.0192033,0.370402996 C35.243191,0.386164825 26.399884,0.821585368 17.7010625,2.01357373 C11.9176823,2.8075759 3.79878225,3.44001931 0.744793291,9.28962833 C0.598328492,9.57137103 0.984283028,9.91813128 1.2138765,9.64820995" id="Fill-13" fill="#303030" mask="url(#mask-2)"></path>
                </g>
                <path d="M30.5440461,8.65302072 C36.3373226,8.2195704 42.0415327,7.24036674 47.8743943,7.06698661 C53.7013182,6.89360649 59.5618894,7.13791485 65.3690207,7.60682928 C70.451745,8.01860708 75.5582204,8.65499095 80.4430194,10.1740373 C82.7884354,10.9030219 85.068536,11.8349401 87.2001926,13.0545116 C89.3852891,14.3056069 91.1329704,16.1142768 93.2844195,17.3811339 C93.7475649,17.6549957 94.262171,17.115153 94.0088265,16.6620004 C91.8989417,12.9008338 86.8775742,10.6390112 82.9784438,9.20468475 C78.2183378,7.45118121 73.1514475,6.64141721 68.1182045,6.15674095 C61.8459485,5.55188074 55.5182734,5.3292449 49.2202871,5.5420296 C43.0687656,5.74890361 36.3274263,6.09369364 30.4648759,8.06983302 C30.1640293,8.17228491 30.1897596,8.67863369 30.5440461,8.65302072" id="Fill-20" fill="#303030"></path>
                <path d="M92.4715399,15.3858833 C93.166258,17.5787478 94.4705864,19.4622864 94.9396696,21.7516922 C95.4146906,24.0686811 95.3612507,26.4841815 95.0940514,28.822843 C94.4705864,34.3040192 92.6556105,39.7930764 90.8485516,44.984629 C87.127554,55.6672091 82.5495394,66.6669959 73.3440289,73.6987421 C73.025369,73.9430505 73.1896471,74.6089878 73.6527926,74.4257565 C78.525716,72.4850813 81.470846,67.839282 84.1289841,63.5894987 C87.6619526,57.940853 90.4071779,51.7425135 92.6160254,45.4693053 C94.615072,39.7950466 96.3964006,33.7897896 96.8179817,27.7608897 C97.0990358,23.757385 96.8219402,17.2851837 92.6041499,15.2854016 C92.5368552,15.2538779 92.4458096,15.3051039 92.4715399,15.3858833" id="Fill-22" fill="#303030"></path>
                <path d="M97.8030564,7.65726713 C103.562686,11.4144933 113.358014,11.3494757 119.68173,9.24330124 C120.429888,8.99505242 120.366552,7.67499919 119.481826,7.78139154 C115.863749,8.21878231 112.305051,8.77044635 108.64541,8.59903645 C105.00952,8.42762655 101.56166,7.29474505 97.9811893,6.99921075 C97.6090895,6.96965732 97.5318986,7.47994655 97.8030564,7.65726713" id="Fill-24" fill="#303030"></path>
                <path d="M118.442322,9.3946148 C126.183184,8.13957912 133.811229,6.29544505 141.58376,5.18423607 C149.918398,3.9922477 158.336166,3.32434017 166.755912,3.17854325 C174.583862,3.0445677 182.429625,3.3538936 190.21799,4.15380646 C198.645653,5.01873686 206.794242,6.84907932 215.113047,8.29719741 C216.27091,8.49816074 216.77562,6.85301978 215.60786,6.51611067 C200.116239,2.05354266 182.793808,1.06251762 166.755912,1.35214124 C150.761561,1.63979463 133.342146,3.12534707 118.285961,8.83309962 C117.933653,8.96707517 118.070222,9.45569189 118.442322,9.3946148" id="Fill-26" fill="#303030"></path>
                <path d="M215.610433,7.63933805 C216.465471,7.74967086 216.986015,8.59489897 217.472911,9.1938485 C217.763862,9.55045989 218.353679,9.24507444 218.3517,8.83132642 C218.347742,8.14962728 217.884596,7.58417165 217.328426,7.22756025 C216.768297,6.86503817 216.156707,6.86897863 215.521367,6.99113281 C215.119578,7.06797173 215.27396,7.59599302 215.610433,7.63933805" id="Fill-28" fill="#303030"></path>
                <path d="M216.517525,8.31177711 C218.211767,9.93327533 217.562572,13.6806503 217.558613,15.7572714 C217.556634,17.735381 217.792165,20.0937447 217.366625,22.0265391 C216.640239,25.3148508 213.79803,27.3875314 213.758445,30.8433125 C213.752508,31.381185 214.498686,31.4422621 214.664944,30.9654667 C215.411122,28.8277686 216.557111,27.5471199 217.72487,25.7187477 C217.948526,25.3700172 218.221663,25.0567508 218.399796,24.6804372 C219.444842,22.4501383 219.114307,19.5243486 219.118265,17.1521933 C219.122224,14.8273234 219.832776,8.8122152 216.784725,7.85271382 C216.521484,7.76996421 216.321579,8.12460538 216.517525,8.31177711" id="Fill-30" fill="#303030"></path>
                <path d="M98.061547,7.9679722 C99.0373192,12.936889 99.8349586,18.8357537 102.097246,23.4047141 C102.19225,23.5977965 102.542578,23.5130767 102.516848,23.292411 C101.879528,18.1442034 99.8072491,12.8876333 98.6355307,7.8103539 C98.5504228,7.43601045 97.9883146,7.59559897 98.061547,7.9679722" id="Fill-40" fill="#303030"></path>
                <path d="M121.035738,8.508997 C118.80116,12.8710833 117.809554,18.2143436 116.396367,22.8936367 C116.243964,23.3980153 117.035666,23.6147405 117.188068,23.1103619 C118.601256,18.433039 120.724995,13.4385092 121.281166,8.57598478 C121.297,8.44397945 121.093137,8.39669396 121.035738,8.508997" id="Fill-42" fill="#303030"></path>
                <path d="M102.544557,23.473278 C106.964232,21.0361051 111.607562,21.0636883 116.25485,22.8290132 C116.753622,23.0201254 117.044572,22.2517362 116.609137,21.9896958 C112.084562,19.2727504 106.368476,19.7613672 102.067557,22.6615438 C101.568785,22.9984529 102.0062,23.7688123 102.544557,23.473278" id="Fill-44" fill="#303030"></path>
                <path d="M99.584583,8.2635065 C99.9923093,12.7713898 101.235281,18.0496325 102.844414,22.2659219 C102.903792,22.42157 103.178908,22.4176295 103.161095,22.2245471 C102.717742,17.7225745 101.47675,12.4364509 99.833969,8.23001262 C99.7864669,8.10982867 99.5707282,8.10982867 99.584583,8.2635065" id="Fill-46" fill="#303030"></path>
                <path d="M101.257448,8.69006102 C102.18176,12.9733382 103.141698,17.2428238 104.034342,21.5339819 C104.077885,21.7467666 104.386649,21.6521956 104.354981,21.4472919 C103.695889,17.1541635 102.731993,12.7861665 101.417768,8.64671599 C101.384121,8.54426409 101.235677,8.5856389 101.257448,8.69006102" id="Fill-48" fill="#303030"></path>
                <path d="M103.48787,8.99446135 C103.697671,13.1831676 104.449787,17.4033974 105.02575,21.5566396 C105.05346,21.7576029 105.409726,21.7122876 105.383995,21.5073838 C104.869389,17.348231 104.507186,13.0767752 103.628397,8.97475907 C103.612563,8.89792015 103.483911,8.91368198 103.48787,8.99446135" id="Fill-50" fill="#303030"></path>
                <path d="M119.683908,8.57342348 C118.3776,13.2862105 117.057438,17.9458014 115.331528,22.5285534 C115.256316,22.7295167 115.574976,22.8142365 115.652167,22.6172137 C117.405786,18.0778067 118.975335,13.4221563 119.96892,8.65223263 C120.006526,8.46703113 119.735368,8.39019221 119.683908,8.57342348" id="Fill-52" fill="#303030"></path>
                <path d="M117.534042,8.91683434 C115.697294,12.6090429 114.776941,17.4498948 114.495887,21.5440301 C114.484011,21.7095293 114.755169,21.7489339 114.790796,21.5834347 C115.236128,19.4693793 115.517182,17.3297109 116.002099,15.2235364 C116.483058,13.1213024 117.22132,11.0604432 117.585503,8.93850686 C117.589461,8.90895343 117.549876,8.88531068 117.534042,8.91683434" id="Fill-54" fill="#303030"></path>
                <path d="M114.959428,9.28447902 C113.568013,12.988509 112.667452,17.9259021 112.714954,21.8939427 C112.714954,21.9845732 112.849543,22.0042755 112.875274,21.9156152 C113.461133,19.7128995 113.623432,17.3860594 114.02522,15.1380285 C114.373569,13.195383 114.8763,11.2625886 115.044536,9.29630039 C115.050474,9.24310421 114.975262,9.24113399 114.959428,9.28447902" id="Fill-56" fill="#303030"></path>
                <path d="M105.075232,9.33747817 C104.936684,13.4513157 105.23753,17.8606875 105.79568,21.9390609 C105.82339,22.1400243 106.144029,22.0868281 106.144029,21.8917755 C106.153925,17.7838486 105.853078,13.3784172 105.168257,9.3256568 C105.16034,9.27049039 105.077211,9.28625222 105.075232,9.33747817" id="Fill-58" fill="#303030"></path>
                <path d="M106.074359,9.69152827 C106.365309,13.3955582 106.757202,17.2020401 107.430148,20.8568143 C107.469733,21.069599 107.827978,21.0223135 107.814123,20.8036181 C107.566717,17.097618 107.010546,13.3128086 106.381143,9.65015346 C106.351455,9.47874357 106.060504,9.51617791 106.074359,9.69152827" id="Fill-60" fill="#303030"></path>
                <path d="M107.409762,9.69487766 C107.029745,13.5447045 106.916927,17.735381 107.526538,21.5655056 C107.562164,21.7881414 107.904575,21.7250941 107.910513,21.5142796 C108.011455,17.597465 107.803633,13.6195732 107.771965,9.69487766 C107.769986,9.45845021 107.431534,9.46830135 107.409762,9.69487766" id="Fill-62" fill="#303030"></path>
                <path d="M106.543838,10.3834726 C106.965419,13.7190698 106.933751,16.7315495 106.729888,20.0769978 C106.721971,20.2227947 106.943647,20.2464375 106.981253,20.1104917 C107.860042,17.0389051 107.715556,13.401863 106.816975,10.3460382 C106.775411,10.2041818 106.524046,10.2238841 106.543838,10.3834726" id="Fill-64" fill="#303030"></path>
                <path d="M99.0869985,8.70089728 C99.3106542,9.83574901 99.6946295,10.9410473 99.9697458,12.0680181 C100.242883,13.1910485 100.428933,14.341662 100.803012,15.4390794 C100.842597,15.5513825 101.02073,15.5375909 101.01875,15.409526 C101.002916,13.187108 100.316115,10.5864061 99.3700318,8.58268355 C99.2908617,8.41521411 99.0553305,8.53933852 99.0869985,8.70089728" id="Fill-66" fill="#303030"></path>
                <path d="M98.2693687,8.24360719 C99.4034812,11.3526281 100.371336,14.4655894 101.382735,17.6140149 C101.428258,17.7598118 101.626184,17.6967645 101.606391,17.5509676 C101.165017,14.3473757 99.9992367,11.015719 98.4989622,8.14706599 C98.4336468,8.02491181 98.2198873,8.10963164 98.2693687,8.24360719" id="Fill-68" fill="#303030"></path>
                <path d="M120.429888,9.20842819 C120.815843,9.42121289 117.888526,20.6672783 117.765813,21.8986713 C117.747999,22.0681109 118.013219,22.0956941 118.056763,21.9380758 C118.880133,19.0162267 119.353174,15.9801042 120.071643,13.0267314 C120.34676,11.8958201 121.502644,9.82313954 120.615938,8.82029313 C120.576353,8.77497787 120.509059,8.77497787 120.459577,8.79862062 C120.202274,8.92471526 120.241859,8.88728091 120.172585,9.18281522 C120.166648,9.21433888 120.176544,9.25965414 120.210191,9.27344574 C120.257693,9.29511825 120.307175,9.31482054 120.354677,9.33649305 C120.439785,9.3739274 120.516976,9.25571368 120.429888,9.20842819" id="Fill-70" fill="#303030"></path>
                <path d="M122.141943,8.15869034 C120.140917,12.7788766 118.75544,17.6729247 117.520385,22.5433301 C117.449132,22.8250728 117.888526,22.947227 117.959779,22.663514 C119.198792,17.7773469 120.809905,13.0330361 122.290387,8.22173766 C122.318097,8.13504759 122.179549,8.07200027 122.141943,8.15869034" id="Fill-72" fill="#303030"></path>
                <path d="M120.77705,8.17504324 C120.048684,9.70788116 119.288651,11.5697473 119.015514,13.2444417 C118.989783,13.3961493 119.195626,13.5123928 119.282713,13.3567447 C120.11202,11.8692221 120.67017,9.94036815 121.050187,8.2893165 C121.085813,8.13366843 120.852261,8.01545471 120.77705,8.17504324" id="Fill-74" fill="#303030"></path>
                <path d="M121.440496,8.19829193 C120.555769,10.3399305 119.655208,12.7101157 119.257378,14.995581 C119.235607,15.1177351 119.409781,15.2182168 119.475096,15.0881817 C120.512225,12.9977691 121.193089,10.5408939 121.74728,8.28301177 C121.796761,8.08007821 121.515707,8.01506066 121.440496,8.19829193" id="Fill-76" fill="#303030"></path>
                <path d="M121.950747,7.88404046 C121.604378,8.85142275 121.36093,9.8503287 120.98883,10.8118003 C120.620689,11.765391 120.114,12.6539641 119.735962,13.6036144 C119.682522,13.7336495 119.884406,13.8479227 119.971493,13.7415304 C121.230299,12.2165734 122.065544,9.87200122 122.118984,7.9076832 C122.122942,7.80523131 121.982415,7.79735039 121.950747,7.88404046" id="Fill-78" fill="#303030"></path>
                <path d="M9.4012587,6.53817723 C21.2866791,4.60144242 33.1938714,3.15529455 45.2455491,2.8637007 C56.8835628,2.581958 68.3315681,3.51190595 79.9042664,4.55612716 C80.064586,4.57188899 80.1041711,4.29999743 79.9418722,4.27438445 C56.9370027,0.6668957 32.1092402,1.68550394 9.30031675,6.17368492 C9.05884776,6.22097041 9.16374822,6.5775818 9.4012587,6.53817723" id="Fill-84" fill="#303030"></path>
                <path d="M6.50066193,26.5292998 C8.6026297,30.9958082 8.45022714,36.0652067 9.13900755,40.8705945 C9.84955974,45.8079876 10.9203362,50.7059762 12.6323909,55.3990609 C15.2766743,62.6514728 19.6171784,69.9058549 26.0299614,74.447232 C26.1546544,74.5358923 26.307057,74.3368992 26.1922602,74.2364175 C18.9996511,67.8410552 14.2811095,60.2202106 11.6843282,50.9463441 C10.342394,46.1508074 9.56850567,41.2252357 9.05785813,36.2779914 C8.70555091,32.8576744 8.63825628,29.3841612 6.65504374,26.4386693 C6.59170761,26.342128 6.45118058,26.4248776 6.50066193,26.5292998" id="Fill-86" fill="#303030"></path>
                <path d="M103.949432,21.7422351 C103.393262,21.9786625 102.957826,22.4101426 102.68073,22.9440746 C102.463012,23.3657035 102.241336,23.990266 102.484784,24.437508 C102.518431,24.4966148 102.623332,24.5044957 102.655,24.437508 C102.84105,24.0296706 102.829174,23.5666669 103.038975,23.1529188 C103.280444,22.672183 103.66244,22.3057205 104.11371,22.0200373 C104.293822,21.9057641 104.135482,21.6614557 103.949432,21.7422351" id="Fill-88" fill="#303030"></path>
                <path d="M102.188292,21.1361927 C102.241732,32.2955681 98.9541906,42.572281 93.8180264,52.4037222 C91.4726104,56.8938734 88.852078,61.2342873 86.0870601,65.4781599 C83.0152579,70.1889767 79.8326174,75.0652928 74.3698763,77.2167825 C73.7602661,77.4591206 74.0096521,78.4481754 74.6469719,78.2156885 C79.0983142,76.6001009 82.1344899,73.2467717 84.8143998,69.4816646 C88.2899699,64.5954974 91.4745896,59.4275876 94.2692963,54.1316128 C99.6093237,44.0144884 103.508454,32.6935543 102.879051,21.1361927 C102.8553,20.6968317 102.186312,20.6889508 102.188292,21.1361927" id="Fill-90" fill="#303030"></path>
                <path d="M115.83604,22.8924546 C115.859791,28.848456 117.631223,35.1985031 119.149311,40.9239877 C120.574374,46.302712 122.438831,51.5809547 124.942588,56.5597227 C129.350386,65.3232999 136.406427,74.4178756 145.683191,78.4075887 C146.152274,78.6085521 146.544166,77.9977812 146.092896,77.712098 C137.126875,72.0240477 130.363764,65.0908129 125.595741,55.529293 C123.040525,50.4066984 121.187943,44.9373435 119.741108,39.4088818 C118.318024,33.9749911 117.839045,28.1825187 116.10126,22.8569905 C116.055737,22.715134 115.83604,22.7368065 115.83604,22.8924546" id="Fill-92" fill="#303030"></path>
                <path d="M116.625564,22.9159003 C116.700776,23.1267148 116.680983,23.5049987 116.732444,23.7355155 C116.825469,24.153204 116.922452,24.5452795 116.964017,24.9728191 C117.027353,25.6308755 116.918494,26.3106044 117.080793,26.9548692 C117.136212,27.1715943 117.419245,27.1814455 117.532063,27.0120058 C117.949685,26.3953242 117.923955,25.5717686 117.83093,24.8565756 C117.77749,24.4487383 117.692382,24.0389307 117.551855,23.6547361 C117.40737,23.2606904 117.171838,23.1168637 116.979851,22.766163 C116.87693,22.5789912 116.550353,22.7070561 116.625564,22.9159003" id="Fill-94" fill="#303030"></path>
                <path d="M116.390627,22.2426732 C116.269892,27.073674 117.536615,32.139132 118.520304,36.8440381 C119.505973,41.5607656 120.384761,46.6439557 122.391725,51.0513573 C122.494646,51.2759633 122.787576,51.100613 122.757887,50.8996496 C122.055252,46.0883512 120.402575,41.3696534 119.408989,36.5997297 C118.421341,31.8534488 118.067055,26.8490679 116.748872,22.1953877 C116.693453,21.9944244 116.396565,22.0377694 116.390627,22.2426732" id="Fill-96" fill="#303030"></path>
                <path d="M102.005013,22.8910755 C101.793233,23.5432212 101.840735,24.2446226 101.832818,24.9223812 C101.822921,25.6099911 101.80115,26.2956306 101.981262,26.9615679 C102.046577,27.2078465 102.412739,27.2078465 102.480034,26.9615679 C102.658167,26.2956306 102.636395,25.6099911 102.628478,24.9223812 C102.618581,24.2446226 102.666084,23.5432212 102.454303,22.8910755 C102.38305,22.6704098 102.076266,22.6704098 102.005013,22.8910755" id="Fill-98" fill="#303030"></path>
                <path d="M103.108447,21.8234085 C101.550774,31.4125116 99.6229805,40.6548544 95.6723895,49.5977225 C91.8266989,58.3041631 86.3026009,65.3516712 80.8834034,73.0729975 C80.7310008,73.2897227 81.0555985,73.5044776 81.2376899,73.3429188 C88.3155023,67.0460679 93.4358324,57.6618686 97.0915146,49.0618203 C100.707612,40.5504323 103.353874,31.166233 103.512215,21.8785749 C103.516173,21.6539688 103.146053,21.5909215 103.108447,21.8234085" id="Fill-100" fill="#303030"></path>
                <path d="M124.295965,24.730875 C124.311799,16.6036816 132.236733,13.0730318 138.819731,10.7580131 C144.375497,8.80354619 150.131168,7.44802884 155.971947,6.69540148 C168.106753,5.13301012 180.390004,6.24421911 192.085416,9.78472008 C192.73857,9.98371318 193.015665,8.97101563 192.36647,8.7700523 C179.107447,4.68182775 165.030993,3.79522483 151.364243,6.27377254 C141.984559,7.97407991 122.663081,11.8534602 123.688334,24.730875 C123.718023,25.1130994 124.295965,25.1249208 124.295965,24.730875" id="Fill-102" fill="#303030"></path>
                <path d="M123.507628,24.0519342 C122.913852,29.6966394 124.548716,35.7550927 126.215248,41.1042636 C128.012411,46.8750635 130.159901,52.6222206 132.544902,58.1782655 C135.733481,65.6119384 141.647492,75.4453499 150.88467,75.799991 C151.262708,75.8157529 151.288438,75.2975827 150.969778,75.179369 C146.152274,73.4041929 142.276894,71.2132986 139.056648,67.1290145 C135.800775,62.9994152 133.819542,58.0915755 131.937271,53.2349617 C130.181673,48.7034357 128.430033,44.1561479 127.012887,39.5044379 C125.447297,34.3601708 124.802061,29.2730403 123.905459,23.998738 C123.863894,23.7563999 123.5294,23.8450602 123.507628,24.0519342" id="Fill-104" fill="#303030"></path>
                <path d="M192.136085,9.40505701 C196.094593,11.9604436 201.359408,13.4479663 204.076924,17.5342206 C206.626203,21.3643452 206.018572,25.6298904 206.994345,29.8560309 C207.075494,30.2165828 207.64354,30.2165828 207.724689,29.8560309 C208.65098,25.7776575 207.623747,20.2314637 205.106136,16.8446406 C202.329243,13.1110572 196.640867,10.3330347 192.30828,8.99524944 C192.058894,8.91841052 191.928263,9.27108146 192.136085,9.40505701" id="Fill-106" fill="#303030"></path>
                <path d="M207.502617,28.6859121 C206.429861,42.3336863 205.438255,57.1951214 194.68101,67.1743298 C188.778874,72.6515656 180.939049,75.368511 173.020053,76.1763047 C169.186238,76.56641 165.320755,76.5092734 161.481002,76.2078284 C157.098934,75.8610681 152.714886,74.8148767 148.324901,74.7616805 C148.033951,74.7577401 147.988428,75.1734583 148.257606,75.2562079 C156.380465,77.77219 166.462785,78.2923303 174.848884,77.1062527 C182.221605,76.0640017 189.489426,73.3332647 195.027379,68.2638663 C205.517425,58.6609716 208.763402,42.3258054 208.009306,28.6859121 C207.991493,28.3608244 207.528347,28.3627946 207.502617,28.6859121" id="Fill-108" fill="#303030"></path>
                <path d="M191.010681,9.66355102 C196.384356,13.0858383 201.940122,15.1545784 203.788745,21.9282247 C205.184119,27.0409682 205.152451,32.8728451 204.742745,38.1254748 C203.836247,49.739973 199.430428,59.6561341 193.439226,69.4796944 C193.278906,69.7417348 193.668819,70.0609119 193.874661,69.8166035 C201.615524,60.6057843 205.522571,47.6416795 205.989675,35.7868134 C206.203435,30.3627738 206.134161,23.774329 203.691761,18.8014717 C201.3602,14.0532206 196.049862,10.8969142 191.147249,9.34043351 C190.949324,9.27935642 190.846403,9.5591289 191.010681,9.66355102" id="Fill-110" fill="#303030"></path>
                <path d="M201.653328,15.9590228 C202.640975,17.8602935 203.870092,19.5665115 204.691483,21.5662937 C205.407973,23.3119163 205.552458,25.3983885 206.478749,27.013976 C206.589587,27.2070584 206.924081,27.1814455 206.973563,26.9509287 C207.371393,25.0535985 206.405517,22.8824064 205.669234,21.1564861 C204.824093,19.1724658 203.701856,17.0859936 202.047199,15.6575778 C201.83344,15.4723763 201.518738,15.7009228 201.653328,15.9590228" id="Fill-112" fill="#303030"></path>
                <path d="M203.311151,17.9113224 C204.059309,20.3307633 204.87872,22.7186804 205.32999,25.2169304 C205.777301,27.6994186 205.650629,30.2508648 206.169194,32.7037995 C206.23253,33.0111552 206.701613,32.9953933 206.776825,32.7037995 C207.98417,28.0205659 206.169194,21.7946432 203.865342,17.6788354 C203.701064,17.3813309 203.20823,17.580324 203.311151,17.9113224" id="Fill-114" fill="#303030"></path>
                <path d="M205.928516,23.9790357 C205.827574,26.4260598 206.164048,28.882935 206.13238,31.3378399 C206.106649,33.4637167 205.748404,35.611266 206.043313,37.7174405 C206.082898,38.0050939 206.464894,37.920374 206.548023,37.7174405 C208.101737,33.9148991 207.745472,27.7658153 206.496562,23.9021968 C206.3976,23.5909007 205.942371,23.6500075 205.928516,23.9790357" id="Fill-116" fill="#303030"></path>
                <path d="M206.725562,27.8970325 C206.111993,32.4049158 205.593429,37.0605662 205.300499,41.5960327 C205.278727,41.9290013 205.757707,41.9565845 205.858649,41.6709014 C207.349027,37.4526417 207.833944,32.389154 207.256002,27.9679608 C207.220376,27.7019799 206.771085,27.5660341 206.725562,27.8970325" id="Fill-118" fill="#303030"></path>
                <path d="M200.579582,14.6009441 C201.056583,14.8432823 201.707757,15.745647 202.09767,16.1337821 C202.659778,16.6913568 203.200115,17.2784849 203.706804,17.8892558 C204.714244,19.1009465 205.464381,20.4879875 206.552971,21.6307202 C206.739021,21.827743 207.035909,21.6188988 206.984448,21.3805011 C206.432237,18.7699481 204.070986,16.2874599 202.006625,14.703396 C201.64838,14.4295342 200.684483,13.5941573 200.203524,14.1615831 C199.95018,14.4630281 200.104561,14.8354014 200.446972,14.9122403 C200.629064,14.9555853 200.759695,14.6935449 200.579582,14.6009441" id="Fill-120" fill="#303030"></path>
                <path d="M203.875832,50.7696146 C203.155384,52.1231617 202.50223,53.5062622 201.726362,54.8302559 C200.960391,56.1365175 199.905448,57.3501784 199.313652,58.7391896 C199.252295,58.8849866 199.398759,59.1194438 199.566996,58.9933491 C200.75059,58.1008355 201.538333,56.7256159 202.29045,55.4725505 C203.13955,54.0579263 203.897604,52.5644929 204.394397,50.9883099 C204.49138,50.6829245 204.028235,50.4859016 203.875832,50.7696146" id="Fill-128" fill="#303030"></path>
                <path d="M203.695126,50.8612302 C202.792586,52.9339108 202.004843,55.0459959 200.914274,57.0339567 C199.817768,59.0357091 198.370933,60.7813317 197.187339,62.722007 C197.058687,62.9328214 197.337762,63.110142 197.509957,62.9702558 C200.900419,60.2099654 203.330943,55.1917929 203.889093,50.9144264 C203.902948,50.8139447 203.734711,50.7686294 203.695126,50.8612302" id="Fill-130" fill="#303030"></path>
                <path d="M202.559628,55.1476597 C200.972266,57.5927136 199.014784,59.8269529 197.502634,62.3074708 C197.409609,62.4611487 197.615452,62.6010349 197.740145,62.4907021 C199.907428,60.5835207 201.449267,57.7838257 202.696197,55.2264689 C202.73974,55.1358384 202.615047,55.0629399 202.559628,55.1476597" id="Fill-132" fill="#303030"></path>
                <path d="M197.361513,62.8614992 C195.174438,65.0011675 193.294146,67.3161863 190.845809,69.1977547 C188.433098,71.0517399 185.772981,72.5235007 183.120781,74.0090532 C183.007963,74.0721005 183.083175,74.2533615 183.209847,74.2178974 C188.803219,72.6298931 194.899321,68.2776579 197.68809,63.1117182 C197.798928,62.9068144 197.533708,62.6940297 197.361513,62.8614992" id="Fill-134" fill="#303030"></path>
                <path d="M195.820664,66.6754679 C195.466378,66.9237167 195.112091,67.1719655 194.761763,67.4241548 C194.738012,67.4418868 194.759784,67.4793212 194.783535,67.4635594 C195.145738,67.2271319 195.505963,66.9887342 195.862228,66.7483663 C195.907751,66.7168427 195.866187,66.6439442 195.820664,66.6754679" id="Fill-136" fill="#303030"></path>
                <path d="M214.159046,30.0958078 C212.429178,37.9846035 210.970468,45.7650366 208.262849,53.4114942 C205.331573,61.6864548 202.002468,69.1634727 194.073576,73.7304628 C187.108582,77.7418484 178.217772,80.2085748 170.221586,80.7779709 C161.439636,81.4025334 153.190105,78.2639591 144.584309,77.2650531 C144.198354,77.2197378 144.144914,77.8167171 144.495242,77.919169 C153.388031,80.5297221 163.682131,82.7009141 172.948998,81.4675509 C180.622566,80.4469725 188.901786,78.1161919 195.536245,74.0279673 C202.160808,69.9476237 205.424598,63.8024804 208.080757,56.7293593 C211.239647,48.3204233 213.957162,39.1509789 214.618233,30.1568849 C214.636047,29.8968147 214.214465,29.839678 214.159046,30.0958078" id="Fill-138" fill="#303030"></path>
                <path d="M19.35275,16.3784845 C24.2078602,19.8047122 30.1812488,22.0330409 35.4896081,24.704671 C41.3462208,27.6521331 45.0454466,31.0960929 47.2701281,37.3574797 C48.7723819,41.5875607 49.7342994,45.9792005 51.6423002,50.0634846 C53.6947867,54.4492137 56.572622,58.3581474 60.0857979,61.6937446 C60.5786322,62.1606888 61.3149147,61.4317042 60.8339559,60.9489982 C56.540954,56.6440484 53.2336205,51.7027149 51.1771755,45.9792005 C49.568042,41.4969302 48.6358134,36.7210958 46.2310197,32.5580026 C43.8064335,28.357475 40.1843987,26.1015631 35.9052515,23.9973589 C30.5711619,21.3749845 25.0906075,18.0137743 19.4042106,16.2563303 C19.3270197,16.2326876 19.2933724,16.3371097 19.35275,16.3784845" id="Fill-140" fill="#303030"></path>
                <path d="M15.1929518,28.9956321 C19.5334559,33.2651177 25.7186248,35.0107403 31.7078474,34.3763266 C34.6549567,34.0650305 37.1804848,33.9941023 38.9697305,36.8804873 C40.1256148,38.7423534 41.0519057,40.7894211 42.0771593,42.7241856 C44.1672515,46.6764644 46.2672401,50.6228325 48.3632701,54.5731411 C49.3667519,56.4645606 50.5028437,58.3540099 51.2351677,60.3715241 C51.7161264,61.697488 51.7319604,63.2579092 52.3277159,64.5287067 C53.0837909,66.1442942 54.6375054,66.7727972 56.3693526,66.6880773 C59.2768768,66.5442506 63.9281238,62.859923 59.9300306,60.6453859 C59.6113707,60.4700356 59.2333332,60.9093966 59.5282421,61.1635561 C62.4634758,63.713032 55.702344,68.364742 53.0620191,63.1869809 C52.6186662,62.3181101 52.60877,61.0256401 52.266359,60.0878112 C51.417259,57.7609711 50.1030344,55.59766 48.9352745,53.4225275 C46.0455636,48.0359222 43.2290851,42.6000612 40.2483286,37.2607415 C38.3878298,33.931055 36.6183767,32.7784712 32.7390388,33.1725169 C26.2411478,33.8345137 20.9862284,32.4356514 15.8005828,28.3907718 C15.3790017,28.0597734 14.7872048,28.5976459 15.1929518,28.9956321" id="Fill-142" fill="#303030"></path>
                <path d="M202.656612,16.2910063 C196.962298,18.0523908 191.497577,21.4017796 186.15755,24.0320349 C181.888299,26.1362391 178.254389,28.3941212 175.829802,32.5926786 C173.425009,36.7577421 172.504656,41.5355467 170.883647,46.0138765 C168.811368,51.7413313 165.527785,56.6708436 161.226866,60.9836742 C160.747887,61.4663802 161.48219,62.1953648 161.975024,61.7284206 C165.345694,58.5287692 168.144359,54.7971561 170.175074,50.618301 C172.233498,46.3842795 173.223125,41.8034978 174.790694,37.3921557 C176.92433,31.3908391 180.388025,27.8601893 186.05265,24.9994172 C191.523308,22.2371565 197.702539,19.9477508 202.708072,16.4131605 C202.76745,16.3717857 202.733802,16.2673636 202.656612,16.2910063" id="Fill-144" fill="#303030"></path>
                <path d="M206.260041,28.4252508 C201.078354,32.4681601 195.823435,33.84535 189.321585,33.2089661 C185.388808,32.8228013 183.694566,33.9497721 181.814275,37.2971907 C178.819664,42.6266593 176.01704,48.0704012 173.12535,53.4589767 C171.961548,55.6262283 170.63149,57.7974203 169.796245,60.1222902 C169.453834,61.0719404 169.392477,62.3190952 169.000584,63.2214599 C166.696733,68.5391072 159.510061,63.8243499 162.534361,61.2000053 C162.825312,60.947816 162.453212,60.5025443 162.132573,60.6798649 C158.152293,62.8845508 162.728328,66.5235632 165.620019,66.7146754 C167.395409,66.8309189 168.939228,66.1925648 169.734888,64.5631857 C170.267307,63.471679 170.273245,62.0964594 170.649303,60.9359946 C171.367772,58.7273683 172.612723,56.6527175 173.699333,54.6076201 C175.793384,50.6592817 177.893373,46.7109434 179.985444,42.7606349 C180.939445,40.9578756 181.820213,39.0979797 182.855363,37.3405357 C184.688152,34.2354553 187.047423,34.0660156 190.283503,34.4029247 C196.310331,35.0294575 202.491542,33.337031 206.867672,29.0301111 C207.27342,28.6321249 206.683602,28.0942524 206.260041,28.4252508" id="Fill-146" fill="#303030"></path>
                <path d="M39.207241,26.4991553 C38.0038545,28.9048045 36.6638995,31.4523102 35.8167788,34.0076969 C35.7494842,34.2126006 36.0602271,34.3386953 36.1671068,34.1534938 C37.509041,31.8187728 38.5125228,29.1274404 39.5080876,26.6252499 C39.5773615,26.45384 39.2903696,26.3336561 39.207241,26.4991553" id="Fill-168" fill="#303030"></path>
                <path d="M41.7602807,27.2340506 C40.2362551,30.0396562 38.6488934,33.1191237 37.6770797,36.1631271 C37.6493701,36.2517873 37.7760424,36.3010431 37.8235445,36.2261744 C39.5316407,33.5249908 40.8735749,30.3233692 42.0452933,27.3542345 C42.1106087,27.1887353 41.8434094,27.0803727 41.7602807,27.2340506" id="Fill-170" fill="#303030"></path>
                <path d="M43.81059,29.3345114 C42.4092781,31.7401606 40.9446301,34.5497068 40.0796961,37.1957239 C40.024277,37.3631934 40.2637668,37.4518536 40.3528332,37.3119674 C41.855087,34.965425 43.1000378,32.053427 44.07581,29.4448442 C44.1332084,29.2891961 43.8917394,29.1965954 43.81059,29.3345114" id="Fill-172" fill="#303030"></path>
                <path d="M45.606763,31.484425 C43.884812,34.3648993 41.9312883,37.6177469 40.8565533,40.797696 C40.8110305,40.9316716 40.9990596,40.9907784 41.072292,40.8883265 C42.9981062,38.1753216 44.4983807,34.6545229 45.8086469,31.6026387 C45.8660453,31.4686631 45.6859332,31.3524196 45.606763,31.484425" id="Fill-174" fill="#303030"></path>
                <path d="M46.5799622,34.6572813 C44.9094718,37.5357854 43.3597159,40.6546574 42.1246614,43.743976 C42.1028896,43.7971722 42.1899768,43.8306661 42.2176863,43.7833806 C43.9416166,40.9324597 45.4893932,37.8116174 46.7798669,34.7420011 C46.8293482,34.6257576 46.6413191,34.5528591 46.5799622,34.6572813" id="Fill-176" fill="#303030"></path>
                <path d="M48.9778285,37.2863544 C47.2499397,40.0170914 45.5636153,43.1438444 44.564092,46.2213416 C44.5284654,46.3297042 44.6848265,46.388811 44.7442041,46.2962103 C46.4463626,43.5418306 47.8813217,40.3697624 49.1777331,37.4025979 C49.2351315,37.2705926 49.0589779,37.1582896 48.9778285,37.2863544" id="Fill-178" fill="#303030"></path>
                <path d="M50.1000655,41.05619 C48.5087453,43.442137 46.8184623,46.3364029 45.9851964,49.0868422 C45.9376943,49.2444605 46.1593707,49.3272101 46.2444786,49.1952048 C47.0520143,47.9500203 47.6022469,46.5156938 48.2692555,45.1877596 C48.9441811,43.8460339 49.6567126,42.5259806 50.2683021,41.1527312 C50.3177834,41.0423984 50.1713186,40.9497977 50.1000655,41.05619" id="Fill-180" fill="#303030"></path>
                <path d="M50.2754274,45.8077906 C49.6084188,46.83625 49.0344351,47.9238162 48.4485759,48.9995611 C47.9359491,49.9452709 47.3164426,50.8890104 47.0254923,51.9292912 C46.9958035,52.039624 47.1462268,52.1381354 47.2253969,52.0455347 C47.9339699,51.22986 48.3832606,50.2033708 48.8899496,49.2556908 C49.4718503,48.1740353 50.0656265,47.0963202 50.56044,45.9732898 C50.6435687,45.7841478 50.3922034,45.6265295 50.2754274,45.8077906" id="Fill-182" fill="#303030"></path>
                <path d="M51.4485313,49.0834928 C50.9042364,49.9188698 50.4272362,50.7956216 49.9423189,51.6684329 C49.5187586,52.4309114 48.9784222,53.1953601 48.7488288,54.0405882 C48.7151815,54.1666829 48.8814388,54.2730752 48.9744637,54.1725936 C49.5682399,53.5263585 49.9284642,52.6673388 50.348066,51.9028901 C50.8290248,51.0300788 51.3179005,50.1572675 51.7375024,49.2509623 C51.8265688,49.0598501 51.5672865,48.9002616 51.4485313,49.0834928" id="Fill-184" fill="#303030"></path>
                <path d="M53.1372308,50.4575303 C51.868529,52.496717 50.4414868,54.7250457 49.6596815,57.0026301 C49.6181171,57.1247842 49.7863537,57.1700995 49.8516691,57.0834094 C51.3004831,55.184109 52.3692802,52.7489063 53.3549487,50.583625 C53.4222434,50.4397983 53.224318,50.3176441 53.1372308,50.4575303" id="Fill-186" fill="#303030"></path>
                <path d="M54.1755475,53.3021465 C53.1839412,55.158102 51.974617,57.0869559 51.2917743,59.0808273 C51.226459,59.2719395 51.5015753,59.3645402 51.6044965,59.2128326 C52.7742356,57.4750909 53.5778127,55.3590653 54.452643,53.4637053 C54.5377509,53.280474 54.2745102,53.116945 54.1755475,53.3021465" id="Fill-188" fill="#303030"></path>
                <path d="M54.9822914,55.4885093 C54.4914364,56.5859267 54.0065192,57.6833441 53.4345148,58.7413569 C52.8644896,59.7993697 52.1420619,60.7766031 51.6017255,61.8484076 C51.5324516,61.9863236 51.706626,62.136061 51.823402,62.0178472 C53.4681621,60.3372421 54.5844613,57.8330815 55.2851173,55.6165742 C55.3405364,55.4412238 55.0594823,55.3151292 54.9822914,55.4885093" id="Fill-190" fill="#303030"></path>
                <path d="M57.4902042,57.6411812 C55.8494026,59.922706 54.3115222,62.6002468 53.1892852,65.1753357 C53.1398038,65.289609 53.2823101,65.3743288 53.3575218,65.2738472 C55.0141574,63.0021735 56.5441208,60.3206922 57.6821918,57.7534842 C57.7395902,57.6234491 57.5733329,57.5249377 57.4902042,57.6411812" id="Fill-192" fill="#303030"></path>
                <path d="M58.143358,59.7495229 C56.8825732,61.5404608 55.3249003,63.4673445 54.5569497,65.5301739 C54.5094476,65.6582388 54.6954975,65.7606907 54.7845639,65.6621793 C56.2749422,64.0446215 57.2902995,61.774918 58.3076361,59.8460641 C58.3670137,59.7357313 58.2146112,59.6490413 58.143358,59.7495229" id="Fill-194" fill="#303030"></path>
                <path d="M59.4148308,60.5492388 C58.7953243,61.3018661 58.3044693,62.1549751 57.7898632,62.980501 C57.2772364,63.8020863 56.6775225,64.617761 56.3192775,65.5201258 C56.2579206,65.6757738 56.4934519,65.8058089 56.6003316,65.6816845 C57.2000455,64.9980152 57.6216266,64.1547573 58.0887306,63.3765169 C58.6152122,62.4997652 59.1852373,61.6269539 59.5909844,60.6851845 C59.6365072,60.5807624 59.5038972,60.4408762 59.4148308,60.5492388" id="Fill-196" fill="#303030"></path>
                <path d="M60.7163882,61.5262752 C60.2037615,62.1803911 59.6713421,62.816775 59.1725701,63.480742 C58.6896321,64.1250068 58.0820011,64.7732121 57.7950093,65.5278097 C57.7376109,65.6755768 57.9335571,65.7425646 58.0305405,65.6657257 C58.6282752,65.194841 59.0557941,64.4560052 59.499147,63.8472046 C60.0058361,63.1477734 60.4749193,62.4266697 60.9657743,61.7173874 C61.0667162,61.5715904 60.8272265,61.3844187 60.7163882,61.5262752" id="Fill-198" fill="#303030"></path>
                <path d="M192.055133,21.7487368 C189.349493,25.0567508 187.269297,28.9932678 185.505782,32.8647672 C185.416715,33.0598198 185.705686,33.2312297 185.796732,33.0342069 C187.619625,29.0838983 189.901705,25.5374866 192.205557,21.8649803 C192.260976,21.7743498 192.124407,21.664017 192.055133,21.7487368" id="Fill-200" fill="#303030"></path>
                <path d="M196.678671,19.6025667 C193.541553,24.2798897 190.552879,29.0911882 187.629521,33.9024866 C187.506807,34.10345 187.815571,34.2788003 187.942243,34.0857179 C191.006129,29.3630797 194.044284,24.5833049 196.894409,19.7286614 C196.977538,19.5887751 196.767737,19.4705614 196.678671,19.6025667" id="Fill-202" fill="#303030"></path>
                <path d="M201.16465,17.5243695 C196.976548,22.8104931 192.588542,28.6699533 189.613723,34.7303767 C189.576118,34.8052454 189.673101,34.8584416 189.722582,34.7934241 C193.861203,29.3496822 197.497092,23.3326037 201.364555,17.6780473 C201.445704,17.5598336 201.255696,17.4100962 201.16465,17.5243695" id="Fill-204" fill="#303030"></path>
                <path d="M203.00595,20.4539025 C203.017825,20.4539025 203.017825,20.4361705 203.00595,20.4361705 C202.994074,20.4361705 202.994074,20.4539025 203.00595,20.4539025" id="Fill-206" fill="#303030"></path>
                <path d="M203.901364,18.1883366 C200.303081,23.3641274 197.134295,28.8177204 193.474654,33.9639578 C193.288604,34.2220577 193.718102,34.4683363 193.902173,34.2122066 C197.536083,29.1388677 201.310521,23.8941189 204.069601,18.2848778 C204.12502,18.174545 203.972618,18.0858847 203.901364,18.1883366" id="Fill-208" fill="#303030"></path>
                <path d="M205.126325,21.5056106 C201.949622,25.7238703 198.695728,30.1391528 196.029673,34.6943216 C195.940607,34.8460292 196.162283,35.0312307 196.279059,34.887404 C199.59431,30.7518939 202.563191,26.1395885 205.379669,21.6533778 C205.480611,21.4898488 205.237163,21.3598137 205.126325,21.5056106" id="Fill-210" fill="#303030"></path>
                <path d="M205.751769,24.6309844 C203.930855,26.8021764 201.941705,29.2649623 200.635397,31.7770039 C200.556227,31.9287115 200.754153,32.1001214 200.878846,31.9661459 C202.808618,29.8895248 204.471192,27.1883413 205.902192,24.7472279 C205.955632,24.6565974 205.823022,24.5462646 205.751769,24.6309844" id="Fill-212" fill="#303030"></path>
                <path d="M181.294919,27.8948653 C177.447249,33.2972324 174.290339,39.2965788 172.035968,45.5303824 C171.992425,45.6485961 172.19035,45.7333159 172.241811,45.6151022 C174.953389,39.5113337 177.951959,33.6833972 181.360234,27.9322996 C181.385964,27.8909248 181.322628,27.8554607 181.294919,27.8948653" id="Fill-214" fill="#303030"></path>
                <path d="M186.553995,24.7267375 C178.098621,37.7637408 170.622979,51.7700967 163.98654,65.8020655 C163.867785,66.0522845 164.241864,66.2729502 164.362598,66.0207609 C171.088104,51.8626974 179.438576,38.6700461 186.714314,24.8193383 C186.769733,24.7149162 186.61931,24.6262559 186.553995,24.7267375" id="Fill-216" fill="#303030"></path>
                <path d="M166.254369,57.6669912 C165.144008,58.543743 164.380016,59.999742 163.726862,61.2311349 C163.129127,62.3581057 162.472015,63.6151116 162.327529,64.8937901 C162.317633,64.9785099 162.442326,65.0001824 162.479932,64.9351649 C163.172671,63.7668192 163.558625,62.4310042 164.199904,61.2252242 C164.837224,60.0273252 165.765494,58.9456696 166.323643,57.7201874 C166.343436,57.6729019 166.293955,57.6354675 166.254369,57.6669912" id="Fill-218" fill="#303030"></path>
                <path d="M160.961052,63.101079 C160.868028,59.0286162 165.246137,56.510664 167.395607,53.4134644 C169.341214,50.6137695 170.685127,47.465344 171.189837,44.0962529 C171.203692,44.0056224 171.075041,43.9642476 171.04931,44.0568483 C169.646019,49.0572888 167.542072,53.2361439 163.86066,56.9598761 C162.158501,58.681856 160.175289,60.5181091 160.826463,63.118811 C160.844276,63.1936797 160.963032,63.1798881 160.961052,63.101079" id="Fill-220" fill="#303030"></path>
                <path d="M170.970734,46.2311927 C172.902486,40.3421791 173.834714,32.9124467 179.297456,29.1039946 C179.376626,29.0488282 179.309331,28.9306145 179.220265,28.9739595 C173.696167,31.7224286 171.734726,40.7775997 170.92719,46.2193714 C170.923232,46.2469546 170.960838,46.2587759 170.970734,46.2311927" id="Fill-222" fill="#303030"></path>
                <path d="M183.551466,36.2978907 C185.627704,34.1976269 189.210153,34.7374696 191.896001,34.6960948 C194.279023,34.6586604 196.703609,34.7295886 199.070797,34.422233 C201.7705,34.0735025 204.341551,33.2460064 205.816095,30.8344465 C205.911099,30.6787984 205.677547,30.4876863 205.556812,30.6354534 C202.124786,34.8281001 196.153377,34.1601926 191.252744,34.2685551 C188.663879,34.3256918 185.085388,33.7740277 183.359479,36.1501235 C183.27635,36.2643968 183.456462,36.3944319 183.551466,36.2978907" id="Fill-224" fill="#303030"></path>
                <path d="M14.1334572,29.5800019 C16.8430559,33.0081998 21.7199378,34.2691462 25.9080394,34.6040851 C28.5166962,34.8129293 31.1134775,34.3499256 33.7082795,34.5311866 C38.1714973,34.8424828 39.353112,38.2293059 42.0706278,40.9285192 C42.1616734,41.0191497 42.2942835,40.883204 42.2111548,40.7866627 C38.98695,37.0274664 37.4174015,34.0228676 32.0081003,34.1745752 C25.1084207,34.3676576 19.8792316,33.6032089 14.1750215,29.5268057 C14.1393949,29.503163 14.1116854,29.5524187 14.1334572,29.5800019" id="Fill-226" fill="#303030"></path>
                <path d="M97.0960669,7.96698708 C98.3608102,13.6964121 100.088699,19.9223348 102.333173,25.342434 C102.386613,25.4704989 102.574642,25.4251836 102.544953,25.2852974 C101.315836,19.5263189 99.3029351,13.4422526 97.2405524,7.92758251 C97.2069051,7.83892222 97.0762744,7.87241611 97.0960669,7.96698708" id="Fill-228" fill="#303030"></path>
                <path d="M118.147017,20.3077116 C117.863984,21.267213 117.689809,22.2542975 117.489905,23.2335012 C117.317709,24.0826698 117.062386,24.9416895 117.086137,25.8105603 C117.088116,25.8972504 117.224685,25.9504466 117.26427,25.8578458 C117.648245,25.0047368 117.747208,24.0432652 117.92732,23.1310493 C118.11139,22.2050418 118.311295,21.2829748 118.414216,20.3431757 C118.432029,20.1875276 118.188581,20.1658551 118.147017,20.3077116" id="Fill-230" fill="#303030"></path>
                <path d="M117.785209,20.2886004 C117.389358,21.8332597 116.845064,23.4862815 116.837147,25.0939882 C116.837147,25.222053 117.007362,25.2299339 117.048927,25.1235416 C117.632807,23.6261678 117.733749,21.8923665 117.937612,20.3083026 C117.947508,20.2216126 117.806981,20.2058508 117.785209,20.2886004" id="Fill-232" fill="#303030"></path>
                <path d="M115.355279,21.7176072 C115.4582,22.5529842 115.67196,23.3706291 115.80457,24.2020656 C115.951035,25.1438349 115.970827,26.1033363 116.154898,27.039195 C116.178649,27.1574087 116.33501,27.1140636 116.348865,27.013582 C116.554707,25.3467685 116.198441,23.2071001 115.541329,21.6683515 C115.503723,21.5796912 115.343404,21.621066 115.355279,21.7176072" id="Fill-234" fill="#303030"></path>
                <path d="M103.937556,21.7306107 C103.535768,23.4683525 103.060747,25.4838964 103.108249,27.2708939 C103.110228,27.3713755 103.246797,27.3851671 103.278465,27.2945366 C103.866303,25.6060506 104.024644,23.5432212 104.169129,21.7621344 C104.181005,21.6301291 103.967245,21.6025459 103.937556,21.7306107" id="Fill-236" fill="#303030"></path>
                <path d="M103.539924,22.706662 C102.922397,25.2856914 102.3306,28.1858681 102.287056,30.8417364 C102.285077,30.9717714 102.479044,30.9973844 102.514671,30.87326 C103.225223,28.3375757 103.490443,25.3408578 103.632949,22.7184834 C103.636908,22.6652872 103.5518,22.6534659 103.539924,22.706662" id="Fill-238" fill="#303030"></path>
                <path d="M88.8324834,14.1503528 C93.4560208,18.132185 94.1903241,23.2449285 95.7598725,28.7733903 C95.7875821,28.8778124 95.9676942,28.8620506 95.9558187,28.7477773 C95.3838142,23.3828445 93.5807138,17.261344 88.8740477,14.0951864 C88.8423797,14.0735139 88.8027946,14.1247399 88.8324834,14.1503528" id="Fill-240" fill="#303030"></path>
                <path d="M91.7691026,15.7789439 C92.4262149,16.718743 93.0674933,17.6506612 93.5623068,18.6870014 C94.1164979,19.8435257 94.4114067,21.0591568 94.8329878,22.2609963 C94.8705937,22.3713291 95.0546643,22.361478 95.0467473,22.2314429 C94.927992,19.8592875 93.5820993,17.3314841 91.9729658,15.6232958 C91.8740031,15.5188737 91.6839947,15.6567897 91.7691026,15.7789439" id="Fill-242" fill="#303030"></path>
                <path d="M133.041497,13.367778 C128.032005,14.7193549 125.415431,20.6320112 124.997809,25.368441 C124.989892,25.4511906 125.114585,25.4610418 125.138336,25.3881433 C126.721739,20.3758815 127.861789,15.8345043 133.090979,13.4859917 C133.160252,13.4544681 133.110771,13.3500459 133.041497,13.367778" id="Fill-244" fill="#303030"></path>
                <path d="M130.88035,14.5542497 C132.928878,13.6873491 135.005115,12.6923836 136.994265,11.6954479 C137.079373,11.6540731 137.019996,11.524038 136.932909,11.5476807 C134.821045,12.119047 132.582508,13.1711492 130.836806,14.479381 C130.791283,14.5128749 130.828889,14.5759222 130.88035,14.5542497" id="Fill-246" fill="#303030"></path>
                <path d="M125.39742,26.5257534 C125.898172,33.9456346 127.416259,41.822609 130.044709,48.7873675 C130.102107,48.9390751 130.33368,48.8819384 130.294095,48.7184094 C128.453388,41.3044388 126.773002,34.0539972 125.551802,26.5040808 C125.537947,26.4173908 125.391482,26.4370931 125.39742,26.5257534" id="Fill-248" fill="#303030"></path>
                <path d="M94.58855,27.5069273 C92.3223041,36.6428777 89.1416429,45.1089505 85.402832,53.7523438 C81.8777806,61.8972692 77.8163513,69.1772643 69.4579616,73.1216621 C69.3491026,73.1728881 69.4262935,73.3502087 69.539111,73.3147446 C77.6995754,70.7002511 82.0361209,62.3583027 85.2603257,55.0881588 C89.1317466,46.3620159 93.513815,37.0704174 94.7013675,27.5226891 C94.7092845,27.4576715 94.604384,27.4458502 94.58855,27.5069273" id="Fill-250" fill="#303030"></path>
                <path d="M133.715631,54.1986006 C136.181782,64.2684395 144.690595,73.0142847 155.083658,74.9943645 C155.245956,75.0258882 155.313251,74.7934012 155.152932,74.7461157 C144.823205,71.6843803 136.949732,64.591557 133.74532,54.1907197 C133.739382,54.1710174 133.711673,54.1788983 133.715631,54.1986006" id="Fill-252" fill="#303030"></path>
                <path d="M25.5331687,65.8810717 C31.0810177,69.9062489 37.9628839,73.3935537 44.7636008,74.6525298 C51.3980603,75.8799823 58.3214909,75.1766107 64.8926142,73.8742895 C65.0034525,73.852617 64.9539711,73.6910582 64.8470914,73.7068201 C57.7672997,74.774684 50.6202135,75.679019 43.5384425,74.0693421 C36.9851325,72.577879 31.3600925,69.0314674 25.5786915,65.8042327 C25.5272309,65.7746793 25.4876458,65.8475778 25.5331687,65.8810717" id="Fill-254" fill="#303030"></path>
                <path d="M40.7722371,9.45450975 C46.2943559,8.47924655 51.7452214,8.50288929 57.3227593,8.82009611 C62.6370564,9.1215411 68.0206273,9.25551665 73.2478372,10.3017081 C73.3487792,10.3214104 73.3903435,10.1795539 73.2894015,10.1480303 C68.2304282,8.60534118 62.563824,8.86935183 57.3227593,8.58957935 C51.7669932,8.29404505 46.1993517,8.09702218 40.7366105,9.32841512 C40.6534819,9.34614718 40.6891084,9.46830135 40.7722371,9.45450975" id="Fill-262" fill="#303030"></path>
                <path d="M135.735658,12.3284824 C142.868889,10.9690246 149.861594,9.59971561 157.066078,8.59489897 C157.145249,8.5830776 157.127435,8.4530425 157.048265,8.45698296 C149.990245,8.81556459 142.417619,10.0272552 135.717845,12.2634648 C135.67628,12.2772564 135.694093,12.3363633 135.735658,12.3284824" id="Fill-264" fill="#303030"></path>
                <path d="M159.725008,8.62898393 C173.227479,6.99566433 185.528543,9.46633113 197.752416,15.2391012 C197.871171,15.2962379 197.974092,15.1287684 197.857316,15.0617806 C186.627029,8.58169844 172.441715,6.47355373 159.709174,8.51668089 C159.645838,8.52653204 159.659693,8.63686484 159.725008,8.62898393" id="Fill-266" fill="#303030"></path>
                <path d="M77.0545365,11.1542261 C80.2925961,12.4269938 83.681079,13.3352692 86.6321467,15.2424506 C90.8855636,17.9909196 92.7242906,21.9510793 93.2250419,26.8884725 C93.2369174,27.0145671 93.4269258,27.0204778 93.4229673,26.8884725 C93.1913946,17.5732312 85.3575071,13.0023006 77.0723498,11.0872383 C77.0288062,11.0754169 77.0129721,11.1384642 77.0545365,11.1542261" id="Fill-268" fill="#303030"></path>
                <path d="M214.087793,7.80759558 C218.109637,13.2001115 215.362433,19.148232 216.72416,25.1396975 C216.771662,25.3505119 217.135844,25.3091371 217.110114,25.0865013 C216.492587,19.5915334 218.893422,11.9450759 214.317387,7.63224523 C214.20259,7.52191242 213.984872,7.66967957 214.087793,7.80759558" id="Fill-279" fill="#303030"></path>
                <path d="M214.371024,7.7017943 C214.998448,8.4091064 215.059805,9.1499124 215.085535,10.0463665 C215.089494,10.1685206 215.261689,10.2256573 215.325025,10.111384 C215.804004,9.23463223 215.332942,8.05446524 214.608535,7.46339663 C214.442278,7.32745085 214.22456,7.53826532 214.371024,7.7017943" id="Fill-281" fill="#303030"></path>
                <g id="Group-285" transform="translate(214.672497, 6.074385)">
                    <mask id="mask-4" fill="white">
                        <use xlink:href="#path-3"></use>
                    </mask>
                    <g id="Clip-284"></g>
                    <path d="M0.519125989,0.93841993 C6.72804587,2.24468156 4.34502402,15.6382963 2.76953782,19.4368972 C2.70818094,19.5846644 2.94173292,19.6693842 3.02090308,19.5432896 C5.38017388,15.7683314 5.02984592,11.0575145 4.57263824,6.81758237 C4.27970864,4.11048814 3.80468767,0.914777186 0.550794053,0.700022258 C0.414225525,0.690171114 0.384536715,0.910836729 0.519125989,0.93841993" id="Fill-283" fill="#303030" mask="url(#mask-4)"></path>
                </g>
                <path d="M143.2018,76.4389362 C149.925326,81.1221698 160.136297,82.7732215 168.144359,81.5635011 C168.324471,81.5378881 168.280928,81.2403836 168.100816,81.2482645 C163.568324,81.4236148 159.20011,81.4433171 154.726996,80.4897264 C150.65765,79.6228258 147.061345,77.8969054 143.221592,76.3936209 C143.191904,76.3817996 143.180028,76.4231744 143.2018,76.4389362" id="Fill-286" fill="#303030"></path>
                <path d="M143.907008,77.5320191 C145.605208,78.694454 147.639881,79.8115737 149.720077,80.0677034 C149.801227,80.0775546 149.834874,79.9455493 149.763621,79.9120554 C147.82989,79.0550059 145.862511,78.4107411 144.019826,77.3389367 C143.893153,77.264068 143.788253,77.4512397 143.907008,77.5320191" id="Fill-288" fill="#303030"></path>
                <path d="M143.942239,77.1163008 C147.863141,79.5593844 152.670749,80.8459438 157.298245,80.3927912 C157.424917,80.3809698 157.428876,80.1977385 157.298245,80.1918278 C152.514388,79.9475195 148.346079,79.0550059 144.013492,76.9961169 C143.932343,76.9567123 143.865048,77.0670451 143.942239,77.1163008" id="Fill-290" fill="#303030"></path>
                <path d="M147.808118,79.4025542 C151.689435,81.2309265 156.221927,81.528431 160.451592,81.8279058 C165.866831,82.2101301 171.339469,82.2672668 176.725019,81.5008478 C185.008197,80.3206808 194.063284,77.0008454 199.417167,70.268574 C199.518108,70.1424793 199.359768,69.9710694 199.235075,70.0873129 C192.414566,76.4255387 184.657869,80.0704618 175.349438,81.1698494 C166.181533,82.2534752 156.793931,81.4811455 147.883329,79.2252336 C147.780408,79.1996207 147.705197,79.3532985 147.808118,79.4025542" id="Fill-292" fill="#303030"></path>
                <path d="M194.64182,68.0106919 C191.56606,70.6035128 188.339875,72.6072354 184.634712,74.1794779 C184.563459,74.2090314 184.614919,74.3272451 184.688152,74.3055726 C188.474465,73.1214651 192.033164,71.0054395 194.8536,68.2215063 C194.990169,68.0835903 194.786306,67.8885377 194.64182,68.0106919" id="Fill-294" fill="#303030"></path>
                <path d="M127.987868,15.641816 C125.971008,17.8681744 124.173845,21.3042533 124.419273,24.3856909 C124.429169,24.5078451 124.603344,24.541339 124.640949,24.4152444 C125.058572,22.9828881 125.236705,21.5190082 125.781,20.1162053 C126.386651,18.5636651 127.243668,17.1628325 128.207565,15.8092854 C128.298611,15.6812205 128.092768,15.5255725 127.987868,15.641816" id="Fill-296" fill="#303030"></path>
                <path d="M127.810527,16.1611683 C127.885738,16.0626568 127.772921,15.7809141 127.814485,15.8419912 C127.838236,15.8754851 127.078203,17.1305208 126.991116,17.3019307 C126.620995,18.0171237 126.28848,18.752019 125.991592,19.5007059 C125.336459,21.1497873 124.714973,22.9407252 124.705077,24.7296929 C124.705077,24.8577577 124.877272,24.8676089 124.918837,24.7572761 C125.510634,23.1929145 125.813459,21.5320117 126.401298,19.957799 C126.987157,18.3875267 127.838236,16.9532002 128.449826,15.4026302 C128.493369,15.2883569 128.309299,15.2134882 128.2519,15.3198806 C128.11929,15.6095042 127.953033,15.8794255 127.757087,16.1296446 C127.733336,16.1631385 127.786776,16.1926919 127.810527,16.1611683" id="Fill-298" fill="#303030"></path>
                <path d="M130.569607,14.6328618 C128.281589,17.3517775 126.844651,20.8390823 126.563597,24.3736725 C126.559638,24.4268687 126.646725,24.4386901 126.656622,24.3874641 C127.40478,20.8272609 128.669523,17.7497637 130.648777,14.6939389 C130.680445,14.6466535 130.607213,14.5895168 130.569607,14.6328618" id="Fill-300" fill="#303030"></path>
                <path d="M132.367561,13.5807597 C129.568896,17.856156 127.658916,22.8999415 127.057223,27.9772208 C127.049306,28.0520895 127.172019,28.0678514 127.187853,27.9949529 C128.316028,22.8723583 129.944954,18.2600529 132.438814,13.6221345 C132.462565,13.574849 132.395271,13.5374147 132.367561,13.5807597" id="Fill-302" fill="#303030"></path>
                <path d="M134.549491,12.8791613 C131.067983,18.4135337 128.882887,24.7635808 127.920969,31.2101691 C127.911073,31.2830676 128.017953,31.3165615 128.033787,31.2416928 C129.421244,24.7517594 131.645925,18.8548649 134.606889,12.9126552 C134.626682,12.8752208 134.573242,12.8417269 134.549491,12.8791613" id="Fill-304" fill="#303030"></path>
                <path d="M137.342218,11.7610565 C133.977486,17.9318128 131.42029,24.5951263 130.258468,31.5382122 C130.248572,31.5973191 130.335659,31.6249023 130.351493,31.5638252 C132.122925,24.6995484 134.272395,18.1859723 137.403575,11.7965206 C137.423368,11.757116 137.36399,11.7216519 137.342218,11.7610565" id="Fill-306" fill="#303030"></path>
                <path d="M84.6358711,14.6572927 C88.3291591,19.5119362 90.8170814,24.3586988 92.675601,30.1689033 C92.7171653,30.2989383 92.9051944,30.2457422 92.8794641,30.1137368 C91.693891,24.4611507 88.7071966,18.7849218 84.7645226,14.5587813 C84.7031657,14.4937637 84.5784727,14.582424 84.6358711,14.6572927" id="Fill-308" fill="#303030"></path>
                <path d="M83.2915618,14.2705368 C86.1416876,19.5566604 88.7641991,24.773826 90.781059,30.4461144 C90.8325196,30.5919114 91.0680508,30.5308343 91.0165902,30.3810969 C89.1105686,24.7600344 86.6859824,19.1724658 83.4024,14.2055192 C83.3568771,14.1365612 83.2519767,14.1976383 83.2915618,14.2705368" id="Fill-310" fill="#303030"></path>
                <path d="M79.9666129,13.600462 C83.3768676,19.2018222 86.2428274,24.8524381 88.8217954,30.8793677 C88.8475257,30.9384746 88.9484677,30.8970998 88.9286752,30.8340525 C86.8405622,24.7460458 83.7608429,18.8136872 80.0517208,13.5512063 C80.0160943,13.4999803 79.9329656,13.5452956 79.9666129,13.600462" id="Fill-312" fill="#303030"></path>
                <path d="M77.3904159,12.9295991 C79.2627902,16.8877886 81.4478866,20.7317048 83.726008,24.4711989 C83.7497591,24.5125737 83.8130952,24.4751393 83.7913234,24.4337645 C81.7210237,20.5662056 79.6922883,16.6631825 77.5428184,12.8409388 C77.4873993,12.7404572 77.3429138,12.8291175 77.3904159,12.9295991" id="Fill-314" fill="#303030"></path>
                <path d="M133.977486,49.6574204 C137.619314,59.8435028 143.553117,70.7979744 154.817052,73.869561 C154.884347,73.8892632 154.910077,73.7907518 154.844762,73.7671091 C143.749064,69.8778776 138.090376,60.0247639 134.118013,49.6180159 C134.086345,49.5313258 133.945818,49.5687602 133.977486,49.6574204" id="Fill-316" fill="#303030"></path>
                <path d="M128.076341,37.6599098 C130.000175,43.7163928 132.167459,50.0132438 135.118526,55.6599192 C135.152174,55.7249368 135.261033,55.6796215 135.237282,55.6106635 C133.125418,49.5561507 130.514782,43.6159112 128.230722,37.6165648 C128.195096,37.523964 128.044672,37.5594281 128.076341,37.6599098" id="Fill-318" fill="#303030"></path>
                <path d="M20.061323,52.755014 C23.2182331,58.2440712 27.089654,63.739039 31.3569257,68.4380345 C31.4044278,68.4892604 31.499432,68.4203024 31.4558884,68.3611956 C27.6557207,63.1499406 23.8476359,57.9918819 20.1583064,52.6978774 C20.1187213,52.6407407 20.0256964,52.6919667 20.061323,52.755014" id="Fill-320" fill="#303030"></path>
                <path d="M21.8392869,50.7400611 C25.4573632,56.5325335 28.9586636,62.4195769 32.6321591,68.1726447 C32.6757027,68.2396324 32.7766446,68.1805256 32.741018,68.1076271 C29.7107801,62.0531143 25.9007161,56.1680412 21.9006437,50.704597 C21.8749134,50.6691329 21.8155358,50.7006565 21.8392869,50.7400611" id="Fill-324" fill="#303030"></path>
                <path d="M25.5889836,50.8874342 C28.5024455,56.691728 31.6019574,62.5196645 35.0181498,68.046156 C35.0517971,68.1032926 35.1329465,68.0540369 35.105237,67.99493 C32.2551112,62.1591126 28.981425,56.4277173 25.6285687,50.8637915 C25.6127347,50.8401487 25.5751288,50.8618213 25.5889836,50.8874342" id="Fill-326" fill="#303030"></path>
                <path d="M198.54293,52.5958195 C194.719011,57.7262951 190.685292,62.5868493 186.485314,67.4099691 C186.433854,67.469076 186.515003,67.5498554 186.570422,67.494689 C191.130624,63.0931981 195.211845,57.9745439 198.626059,52.643105 C198.659706,52.5918791 198.578557,52.548534 198.54293,52.5958195" id="Fill-328" fill="#303030"></path>
                <path d="M199.683178,54.7861228 C196.221463,59.4476839 192.819125,64.1486496 189.193132,68.6860863 C189.104065,68.8003595 189.260427,68.9599481 189.353451,68.847645 C193.04476,64.341732 196.613355,59.733367 199.760369,54.831438 C199.792037,54.7821823 199.716826,54.7408075 199.683178,54.7861228" id="Fill-330" fill="#303030"></path>
                <path d="M197.801897,50.3907396 C192.351032,56.5082997 187.036735,63.0731017 182.369654,69.8112839 C182.306318,69.9038846 182.454762,70.0220984 182.527994,69.9334381 C187.778955,63.5873314 192.88741,57.036321 197.948362,50.5365365 C198.029512,50.4340846 197.892943,50.2882877 197.801897,50.3907396" id="Fill-332" fill="#303030"></path>
                <path d="M187.544017,24.4046051 C187.076913,24.6784669 179.961495,29.4523311 179.755653,29.2750105 C180.418703,29.8463768 184.848273,26.4950178 185.936863,25.8743958 C191.009691,22.9801298 196.34576,20.8916874 201.695684,18.58849 C201.832252,18.5293832 201.73329,18.312658 201.596721,18.3520626 C193.416464,20.716337 185.622162,25.2104287 178.653208,29.9882333 C178.443407,30.1340302 178.637374,30.47685 178.857072,30.3349935 C181.798243,28.4258419 184.741394,26.5285117 187.597457,24.4932654 C187.650897,24.4558311 187.603395,24.369141 187.544017,24.4046051" id="Fill-334" fill="#303030"></path>
                <path d="M203.019013,17.9369354 C196.948641,20.0056755 190.76941,22.7009484 185.233436,25.9242425 C185.110723,25.9951708 185.217602,26.1626402 185.342295,26.109444 C191.291933,23.5698192 197.221778,20.8312013 203.1061,18.1418392 C203.220897,18.088643 203.139747,17.8955606 203.019013,17.9369354" id="Fill-336" fill="#303030"></path>
                <path d="M92.8153363,31.6061851 C89.4644592,39.2014167 87.1190432,47.2202475 83.9047347,54.874586 C80.5617746,62.8323398 75.6512454,69.9803295 66.8534612,72.2638246 C66.5605316,72.3406635 66.6872039,72.7642627 66.976175,72.7110665 C74.5191121,71.3161446 79.6730895,64.9660975 82.863647,58.4426702 C86.9745577,50.041615 90.2403268,40.5983089 92.9519048,31.6633217 C92.9756559,31.5845126 92.8489836,31.5273759 92.8153363,31.6061851" id="Fill-338" fill="#303030"></path>
                <path d="M126.147755,28.6299576 C126.93154,31.7468594 127.657926,35.0036475 128.673284,38.0476508 C128.706931,38.1501027 128.889022,38.1402516 128.873188,38.0200676 C128.49713,34.8696719 127.463959,31.5399854 126.34766,28.5747912 C126.302137,28.452637 126.114108,28.4979523 126.147755,28.6299576" id="Fill-340" fill="#303030"></path>
                <path d="M126.051762,28.3155091 C127.464949,35.8476934 130.131004,43.2064976 133.236454,50.2027798 C136.29638,57.1005504 139.87883,64.2977959 144.650812,70.1966606 C144.741857,70.3069934 144.916032,70.1631667 144.846758,70.044953 C141.084196,63.549109 137.028704,57.3862336 133.931172,50.5140759 C130.677278,43.2990984 128.436763,35.8417827 126.24177,28.2642832 C126.206143,28.1401588 126.028011,28.1933549 126.051762,28.3155091" id="Fill-342" fill="#303030"></path>
                <path d="M126.78745,25.5420182 C128.479713,20.8725761 129.99978,16.9971363 134.740093,14.8003313 C134.924164,14.7136412 134.785616,14.461452 134.609462,14.4929756 C129.702892,15.3854892 127.537588,21.276473 126.371807,25.4277449 C126.296595,25.6976662 126.694425,25.7981479 126.78745,25.5420182" id="Fill-344" fill="#303030"></path>
            </g>
        </g>
    </g>
</svg>