<?xml version="1.0" encoding="UTF-8"?>
<svg width="36px" height="56px" viewBox="0 0 36 56" version="1.1" xmlns="http://www.w3.org/2000/svg" xmlns:xlink="http://www.w3.org/1999/xlink">
    <!-- Generator: Sketch 39.1 (31720) - http://www.bohemiancoding.com/sketch -->
    <title>Page 1</title>
    <desc>Created with Sketch.</desc>
    <defs>
        <polyline id="path-1" points="0 0.284755508 35.473408 0.284755508 35.473408 55.3411765 0 55.3411765"></polyline>
        <polyline id="path-3" points="0 0.284755508 35.6568788 0.284755508 35.6568788 55.625932 0 55.625932"></polyline>
    </defs>
    <g id="Page-1" stroke="none" stroke-width="1" fill="none" fill-rule="evenodd">
        <g id="Artboard-Copy-3" transform="translate(-747.000000, -160.000000)">
            <g id="Page-1" transform="translate(747.000000, 160.000000)">
                <path d="M26.570752,35.5106218 C26.496,35.6665833 26.382336,35.8054393 26.24,35.9402705 C25.874432,36.2894231 25.510912,36.640588 25.146368,36.9907467 C24.438784,37.6709401 23.734272,38.354152 23.042048,39.0494385 C22.863872,39.2285426 22.754304,39.591782 22.792192,39.844339 C23.016448,41.3234577 23.320576,42.7925144 23.530496,44.2736455 C23.57248,44.5704755 23.41888,45.0353413 23.191552,45.1892904 C22.940672,45.360345 22.437888,45.3925435 22.15424,45.2597247 C20.81792,44.6348725 19.509248,43.9486419 18.21184,43.2473182 C17.814528,43.0319908 17.507328,43.0158915 17.103872,43.2342376 C15.862784,43.9063813 14.594048,44.5322397 13.34272,45.1862718 C12.950528,45.3905311 12.571648,45.5394492 12.151808,45.2697867 C11.698176,44.9800002 11.705344,44.5392832 11.78112,44.0985662 C12.007424,42.7663531 12.2368,41.4341401 12.494848,40.106958 C12.594176,39.5958068 12.516352,39.2245178 12.091392,38.8471916 C11.0848,37.9546894 10.140672,36.9937653 9.165824,36.0670521 C8.834048,35.7521105 8.547328,35.4361627 8.68864,34.9280301 C8.843264,34.3756246 9.306112,34.2870787 9.772032,34.2196631 C11.090944,34.0284844 12.409856,33.8393182 13.732864,33.6732947 C14.26432,33.6068853 14.63296,33.4529362 14.87872,32.9005307 C15.446016,31.6266774 16.101376,30.3809978 16.734208,29.1403493 C16.891904,28.8304387 17.16736,28.5326025 17.518592,28.5225405 C18.36032,28.4983916 18.801664,29.5881097 19.093504,30.1868006 C19.550208,31.124582 20.030464,32.0502889 20.473856,32.9951138 C20.668416,33.4086633 20.929536,33.5887736 21.364736,33.645121 C22.8608,33.8373058 24.35072,33.952013 25.79456,34.4168789 C26.348544,34.5949769 26.876928,34.8676579 26.570752,35.5106218" id="Fill-1" fill="#8DC578"></path>
                <path d="M21.1595264,16.9127666 C21.1595264,18.8165031 19.5887104,20.3600188 17.6513024,20.3600188 C15.7149184,20.3600188 14.1441024,18.8165031 14.1441024,16.9127666 C14.1441024,15.0090302 15.7149184,13.4655144 17.6513024,13.4655144 C19.5887104,13.4655144 21.1595264,15.0090302 21.1595264,16.9127666" id="Fill-3" fill="#808080"></path>
                <g id="Group-7">
                    <mask id="mask-2" fill="white">
                        <use xlink:href="#path-1"></use>
                    </mask>
                    <g id="Clip-6"></g>
                    <path d="M18.3334912,6.66991983 C18.3334912,6.66991983 19.3626112,7.40142956 20.2166272,6.66991983 C20.2166272,6.66991983 21.1843072,5.75628732 19.8674432,4.79838186 C19.8674432,4.79838186 17.5644672,3.0224332 15.0781952,4.75209651 L1.3064192,14.3361821 C1.3064192,14.3361821 -0.0002048,15.2930813 0.0530432,17.7733722 C0.1083392,20.3784323 0.0018432,46.5266351 0.0018432,46.5266351 L0.0028672,51.7850531 C0.0028672,51.7850531 -0.2387968,55.5985633 3.7107712,55.3278946 L30.7761152,55.2594728 C30.7761152,55.2594728 34.3007232,55.4979429 34.2433792,51.2708833 L34.2945792,17.2602086 C34.2945792,17.2602086 34.4799232,15.2508208 32.7923712,14.0826189 L26.8746752,10.0115207 C26.8746752,10.0115207 25.7656832,9.21561395 25.2608512,9.94712368 C25.2608512,9.94712368 23.8170112,10.8838989 25.7196032,12.1295784 C26.5910272,12.7011019 27.4819072,13.2434454 28.3635712,13.800882 C30.3183872,15.0354933 32.0407552,16.123199 32.0192512,18.6175767 C32.0131072,19.3742415 32.0161792,20.1309064 32.0141312,20.8885774 C32.0069632,24.1798681 31.9997952,27.472165 31.9926272,30.7644619 C31.9844352,34.7148157 31.9762432,38.6661757 31.9670272,42.6165295 C31.9619072,45.1702732 31.9557632,47.7250231 31.9506432,50.2787669 C31.9475712,51.3533919 31.9721472,52.7580516 30.6296832,53.0438133 L3.9544832,53.0438133 C3.9544832,53.0438133 2.2136832,53.0538753 2.3939072,50.6963412 L2.3939072,18.7836003 C2.3939072,18.7836003 2.1696512,16.5478167 4.0681472,15.2296905 L16.3653632,6.6910501 C16.3653632,6.6910501 17.4170112,5.90419919 18.3334912,6.66991983" id="Fill-5" fill="#808080" mask="url(#mask-2)"></path>
                </g>
                <g id="Group-10">
                    <mask id="mask-4" fill="white">
                        <use xlink:href="#path-3"></use>
                    </mask>
                    <g id="Clip-9"></g>
                    <path d="M18.322944,14.3585198 C18.326016,14.3072034 18.333184,14.2568933 18.344448,14.2055769 C18.391552,13.9962866 18.507264,13.8081266 18.620928,13.6249976 C19.6736,11.9325639 20.726272,10.2391239 21.778944,8.54669005 C22.948352,6.66509005 24.13824,4.75934118 25.713152,3.17155251 C27.2768,1.59483209 29.44768,0.110682353 31.796736,0.301860963 C33.800704,0.464865882 35.369472,1.87958759 35.465728,3.87991957 C35.654144,7.78197561 32.400896,11.1437005 29.728256,13.6199666 C29.735424,13.6149356 28.453376,12.2304 28.31104,12.1046246 C28.653056,11.6125912 29.28896,11.2020603 29.71904,10.7613433 C30.17984,10.289434 30.61504,9.79337583 31.023616,9.27719358 C31.970816,8.07880556 32.973312,6.75665455 33.355264,5.26043037 C33.801728,3.51567401 32.577024,1.82424642 30.610944,2.3213108 C28.087808,2.95924364 26.404352,5.46569583 24.969728,7.41068663 C24.167936,8.4973861 23.423488,9.62332749 22.711808,10.7683867 C22.19776,11.6085664 21.682688,12.4497523 21.16864,13.289932 C20.78464,13.9178028 20.40064,14.5446674 20.01664,15.1725382 C19.81696,15.4995542 19.59168,16.0771149 19.28448,16.2964672 C19.07456,15.9764945 18.847232,15.6615529 18.63936,15.3385617 C18.450944,15.0437442 18.30144,14.7006289 18.322944,14.3585198" id="Fill-8" fill="#808080" mask="url(#mask-4)"></path>
                </g>
            </g>
        </g>
    </g>
</svg>