<?xml version="1.0" encoding="UTF-8"?>
<svg width="211px" height="261px" viewBox="0 0 211 261" version="1.1" xmlns="http://www.w3.org/2000/svg" xmlns:xlink="http://www.w3.org/1999/xlink">
    <!-- Generator: Sketch 39.1 (31720) - http://www.bohemiancoding.com/sketch -->
    <title>Page 1</title>
    <desc>Created with Sketch.</desc>
    <defs>
        <polygon id="path-1" points="21.6040084 210.97234 21.6040084 0.396839565 0.302736859 0.396839565 0.302736859 210.97234"></polygon>
        <polygon id="path-3" points="4.11493415e-20 0.75939889 4.11493415e-20 25.9243465 13.8435194 25.9243465 13.8435194 0.75939889 0 0.75939889"></polygon>
    </defs>
    <g id="Page-1" stroke="none" stroke-width="1" fill="none" fill-rule="evenodd">
        <g id="Artboard-Copy-3" transform="translate(-990.000000, -708.000000)">
            <g id="Page-1" transform="translate(1095.905505, 839.268635) rotate(29.000000) translate(-1095.905505, -839.268635) translate(1034.405505, 715.268635)">
                <path d="M20.668805,0.769568293 C4.75462065,-0.627260976 0.264966513,17.3088366 0.139466713,29.6495195 C-0.0629523191,49.7618366 0.254845562,69.9146415 0.380345362,90.0310073 C0.503820972,110.285032 0.732554478,130.539056 0.860078469,150.79308 C0.922828369,160.742959 0.997723411,170.692837 1.0624975,180.64069 C1.12929578,190.422544 0.105055478,201.054641 1.77703669,210.700861 C1.90658487,211.45191 3.18182477,211.462032 3.30327619,210.700861 C4.63721761,202.346202 3.71013844,193.353861 3.65953369,184.90608 C3.60285636,175.666763 3.54617903,166.427446 3.49152589,157.190154 C3.3842438,139.065788 3.27291333,120.945471 3.20813924,102.823129 C3.14336515,84.6987634 2.89843812,66.5784463 2.74864804,48.4561049 C2.631245,34.3481293 -1.29568423,1.99634878 20.668805,2.23522683 C21.626247,2.24534878 21.59386,0.850543902 20.668805,0.769568293" id="Fill-1" fill="#303030"></path>
                <path d="M2.0452419,205.004632 C0.353018792,209.938071 1.00683227,216.942461 1.00683227,222.187656 C1.00480808,226.714193 1.50883147,231.3379 3.35691723,235.516241 C7.03487105,243.828388 15.6032687,247.083607 24.2587065,245.802168 C25.5218013,245.6139 25.1797131,243.625949 23.9611505,243.617851 C18.5383447,243.579388 13.0163535,243.34051 8.90117453,239.261363 C5.67461515,236.062827 4.35889144,231.501876 3.83867453,227.119071 C3.04721611,220.426437 6.0632597,210.828802 2.46020092,204.949973 C2.35494302,204.775876 2.1079918,204.820412 2.0452419,205.004632" id="Fill-3" fill="#303030"></path>
                <path d="M1.75719962,201.088044 C1.16816024,204.531532 0.864531687,208.817166 1.93532837,212.179678 C2.08309426,212.643263 2.73083517,212.643263 2.87860106,212.179678 C3.94939774,208.817166 3.64576919,204.531532 3.05672981,201.088044 C2.94742353,200.444288 1.86853009,200.444288 1.75719962,201.088044" id="Fill-5" fill="#303030"></path>
                <path d="M1.37240104,199.513271 C0.732756897,202.197612 0.838014794,204.989246 0.807651939,207.736344 C0.779313275,210.4551 0.447346062,213.368198 1.3804978,215.957393 C1.55255398,216.435149 2.18207717,216.437173 2.35615754,215.957393 C3.28728509,213.368198 2.95734206,210.4551 2.92697921,207.736344 C2.89864054,204.989246 3.00389844,202.197612 2.3642543,199.513271 C2.24685126,199.023368 1.48980408,199.023368 1.37240104,199.513271" id="Fill-7" fill="#303030"></path>
                <g id="Group-11" transform="translate(100.709716, 0.295610)">
                    <mask id="mask-2" fill="white">
                        <use xlink:href="#path-1"></use>
                    </mask>
                    <g id="Clip-10"></g>
                    <path d="M1.0094912,1.93961707 C22.969932,1.70073902 19.0470512,34.0464463 18.9296481,48.1604951 C18.7798581,66.2828366 18.534931,84.4031537 18.4701569,102.52752 C18.4053828,120.649861 18.2940524,138.770178 18.1867703,156.894544 C18.1321172,166.131837 18.0754398,175.371154 18.0187625,184.610471 C17.9661335,193.046105 17.0410786,202.060715 18.37502,210.405251 C18.4964714,211.166422 19.7717113,211.1563 19.9012595,210.405251 C21.5732407,200.759032 20.5490004,190.118837 20.6157987,180.34508 C20.6805728,170.397227 20.7554678,160.447349 20.8182177,150.497471 C20.9457417,130.243446 21.1744752,109.989422 21.2979508,89.7353976 C21.4234506,69.6190317 21.7412485,49.4682512 21.5388295,29.3539098 C21.4133297,17.0132268 16.9378449,-0.924895122 1.0094912,0.473958537 C0.0844362255,0.554934146 0.05002499,1.94973902 1.0094912,1.93961707" id="Fill-9" fill="#303030" mask="url(#mask-2)"></path>
                </g>
                <path d="M119.927002,204.950176 C116.348233,210.790541 119.33189,220.497493 118.548528,227.117249 C118.03236,231.487907 116.706515,236.071127 113.486028,239.261566 C109.372873,243.340712 103.848858,243.57959 98.4260521,243.618054 C97.2216588,243.626151 96.8532562,245.612078 98.1305203,245.802371 C106.816321,247.089883 115.313872,243.810371 119.030285,235.516444 C120.896589,231.350249 121.376322,226.704273 121.382395,222.187859 C121.388467,216.989224 122.020014,209.895761 120.341961,205.004834 C120.279211,204.820615 120.03226,204.778102 119.927002,204.950176" id="Fill-12" fill="#303030"></path>
                <path d="M119.331282,201.088044 C118.742243,204.531532 118.438615,208.817166 119.509411,212.179678 C119.657177,212.643263 120.302894,212.643263 120.452684,212.179678 C121.523481,208.817166 121.219852,204.531532 120.630813,201.088044 C120.521506,200.444288 119.440589,200.444288 119.331282,201.088044" id="Fill-14" fill="#303030"></path>
                <path d="M120.024568,199.513271 C119.384924,202.197612 119.490181,204.989246 119.459819,207.736344 C119.43148,210.4551 119.099513,213.368198 120.032664,215.957393 C120.204721,216.435149 120.834244,216.437173 121.008324,215.957393 C121.939452,213.368198 121.609509,210.4551 121.579146,207.736344 C121.550807,204.989246 121.656065,202.197612 121.016421,199.513271 C120.899018,199.023368 120.141971,199.023368 120.024568,199.513271" id="Fill-16" fill="#303030"></path>
                <path d="M18.0407987,1.62730244 C46.8612205,3.30147317 75.9589564,2.76703415 104.827959,2.91683902 C106.214529,2.92493659 106.216553,0.777058537 104.827959,0.760863415 C75.965029,0.420765854 46.8834866,-0.6056 18.0407987,0.582717073 C17.3667433,0.611058537 17.3707917,1.58883902 18.0407987,1.62730244" id="Fill-18" fill="#303030"></path>
                <g id="Group-22" transform="translate(19.217713, 243.222439)" fill="#303030">
                    <path d="M0.398310676,1.85378293 C13.5251849,3.90246585 27.36255,2.70605122 40.6189724,2.65949024 C47.3170182,2.63722195 54.0130398,2.61292927 60.7090614,2.59066098 C68.0163884,2.5643439 75.6637795,3.14129512 82.912405,2.23436829 C83.9791533,2.10075854 83.9892743,0.691782927 82.912405,0.566270732 C75.9916983,-0.251582927 68.7329518,0.339539024 61.7677129,0.365856098 C54.717458,0.394197561 47.6692273,0.420514634 40.6189724,0.446831707 C27.36255,0.495417073 13.5089914,-0.599778049 0.398310676,1.54607561 C0.246496401,1.57036829 0.244472211,1.82949024 0.398310676,1.85378293" id="Fill-20"></path>
                </g>
                <path d="M16.1372501,3.49196829 C10.6820572,5.96577317 6.65391843,12.7899927 5.54668633,18.4684073 C5.45559776,18.9259195 6.12358057,19.1222854 6.25312875,18.6627488 C7.08911935,15.6848707 8.16396441,12.8547732 9.95132447,10.3040415 C11.7913135,7.67840732 14.1009146,5.98399268 16.3983707,3.83004146 C16.5866204,3.65189512 16.3477659,3.39682195 16.1372501,3.49196829" id="Fill-23" fill="#303030"></path>
                <path d="M5.97014694,20.665478 C4.8062375,33.1377463 5.1422531,45.8792585 4.89327769,58.4001122 C4.64430228,70.9290634 3.87915834,83.6138927 4.35484306,96.1347463 C4.37508497,96.6529902 5.11593862,96.6448927 5.15439824,96.1347463 C6.09969512,83.636161 5.81630848,70.9331122 6.03896941,58.4001122 C6.26163035,45.8853317 7.07737905,33.1660878 6.38308177,20.665478 C6.36688824,20.3962341 5.99443723,20.4023073 5.97014694,20.665478" id="Fill-25" fill="#303030"></path>
                <path d="M5.6517418,99.9144854 C4.12145392,113.467778 5.27119402,127.78629 5.2752424,141.426632 C5.28131497,155.048754 3.96154288,169.407754 5.50802429,182.936754 C5.56672581,183.444876 6.24280538,183.4469 6.29948271,182.936754 C7.78119002,169.399656 6.39259546,155.048754 6.32984556,141.426632 C6.26911985,127.788315 7.34801329,113.457656 5.75295132,99.9144854 C5.74485456,99.8497049 5.65983856,99.8497049 5.6517418,99.9144854" id="Fill-27" fill="#303030"></path>
                <path d="M5.90091963,185.090098 C4.64794582,198.762829 3.92733407,213.451805 5.37463015,227.13061 C6.21264494,235.056098 9.99585666,244.665878 19.0217213,245.740829 C19.6654138,245.817756 19.7180428,244.852122 19.167463,244.663854 C6.68428129,240.402512 6.4940074,227.416049 6.23693523,216.251537 C5.99808077,205.852244 6.44137845,195.483317 6.66808776,185.090098 C6.67820872,184.590073 5.94545182,184.606268 5.90091963,185.090098" id="Fill-29" fill="#303030"></path>
                <path d="M6.12418782,19.4174415 C5.18091513,19.435661 4.35706967,20.6907829 3.81863505,21.3628805 C3.13041034,22.2252707 2.34907287,23.2718805 2.07783137,24.3549293 C1.96852509,24.7861244 2.51910486,24.9743927 2.7620077,24.6423927 C3.39962765,23.7719049 3.828756,22.7516122 4.47852109,21.8730268 C4.98254448,21.1908073 6.10192173,20.4012951 6.22539734,19.5510512 C6.23551829,19.4862707 6.19908287,19.4154171 6.12418782,19.4174415" id="Fill-31" fill="#303030"></path>
                <path d="M6.00111705,22.7167927 C5.10237655,23.9820366 4.24816823,25.2634756 3.42229858,26.5773049 C2.7077594,27.7129878 1.77865604,28.8790366 1.44264044,30.1888171 C1.38393892,30.421622 1.66530138,30.5734512 1.83735756,30.4175732 C2.83933177,29.5106463 3.43646791,28.1401341 4.1084991,26.9781341 C4.88376399,25.6359634 5.6144967,24.2836707 6.31284236,22.8989878 C6.42012445,22.6884512 6.13471361,22.5285244 6.00111705,22.7167927" id="Fill-33" fill="#303030"></path>
                <path d="M5.5804903,28.1729293 C4.86797531,29.2013195 4.1595087,30.2540024 3.37817123,31.2317829 C2.79722861,31.9625878 1.97540734,32.6529049 1.64546431,33.5375634 C1.59081118,33.6873683 1.76691573,33.877661 1.9207542,33.8128805 C2.87617203,33.4100268 3.51986455,32.3877098 4.10283137,31.5577098 C4.83153988,30.5191976 5.40438575,29.468539 5.84161086,28.2842707 C5.90233657,28.1223195 5.66753049,28.0474171 5.5804903,28.1729293" id="Fill-35" fill="#303030"></path>
                <path d="M9.73473611,9.98236585 C14.9065424,2.36458537 26.4464514,4.08936585 34.4379548,4.04685366 C43.4111905,4.00029268 52.3864504,3.96992683 61.3596861,3.9557561 C78.8264244,3.92943902 97.5522091,1.75321951 114.399545,7.10570732 C114.810456,7.23729268 115.083722,6.60568293 114.695077,6.40526829 C106.622606,2.27956098 97.1291533,2.42734146 88.2834416,2.47592683 C77.5127249,2.53665854 66.7440324,2.6682439 55.9753399,2.79780488 C45.4596711,2.92331707 34.8954218,2.69658537 24.3858257,3.09539024 C18.6553429,3.31402439 12.2852159,4.23512195 9.28334166,9.71919512 C9.12140644,10.0167805 9.54648641,10.2576829 9.73473611,9.98236585" id="Fill-37" fill="#303030"></path>
                <path d="M14.1784411,4.22722683 C18.1600235,4.0470561 22.121364,3.56525122 26.1009221,3.33851951 C27.2790009,3.26969024 36.7684051,3.6927878 37.2157512,2.76966585 C37.0639369,3.08344634 37.3716139,3.41544634 37.6934601,3.24742195 C37.9242178,3.12798293 38.1549755,3.00651951 38.3857332,2.88708049 C38.9504823,2.5935439 38.6448296,1.79188537 38.0821047,1.75949512 C30.236343,1.30400732 21.7630823,1.81212927 14.0893767,3.56525122 C13.7209741,3.65027561 13.7978933,4.24342195 14.1784411,4.22722683" id="Fill-39" fill="#303030"></path>
                <path d="M17.4537835,2.8814122 C24.414974,4.28836341 31.9854458,3.88348537 39.0640394,3.92194878 C46.1547781,3.96243659 53.7414434,4.50699756 60.7147791,3.11219268 C61.1317623,3.02919268 60.979948,2.46843659 60.6216663,2.42592439 C53.5734356,1.60807073 46.1608507,2.49272927 39.0640394,2.49880244 C31.9591313,2.5069 24.5708367,1.6971439 17.5104608,2.46843659 C17.2938725,2.49070488 17.2007597,2.83080244 17.4537835,2.8814122" id="Fill-41" fill="#303030"></path>
                <path d="M31.4992353,3.28284878 C45.332552,3.60675122 59.7832467,3.72619024 73.5619102,2.50548293 C73.942458,2.47309268 73.9404338,1.95282439 73.5619102,1.91638537 C59.8905288,0.608629268 45.1443023,1.30097073 31.4992353,2.78687317 C31.18751,2.81926341 31.1713165,3.27475122 31.4992353,3.28284878" id="Fill-43" fill="#303030"></path>
                <path d="M104.294585,4.50578293 C106.134574,4.24463659 108.013022,4.70822195 109.537238,5.76900244 C109.682979,5.87022195 109.816576,5.65563659 109.715366,5.53619756 C108.322723,3.89644146 106.201372,3.29924634 104.148843,3.97741707 C103.806755,4.09078293 103.952497,4.55436829 104.294585,4.50578293" id="Fill-45" fill="#303030"></path>
                <path d="M105.348176,2.95084878 C108.720477,3.6310439 111.070562,5.31736098 113.313365,7.84987317 C113.410526,7.96121463 113.578534,7.81950732 113.511735,7.69601951 C111.947036,4.82340976 108.558542,3.02575122 105.364369,2.82736098 C105.293523,2.8212878 105.277329,2.93667805 105.348176,2.95084878" id="Fill-47" fill="#303030"></path>
                <path d="M109.700387,4.8926439 C110.888587,5.48983902 112.066666,6.29352195 113.011963,7.23081463 C114.003816,8.21466829 114.572613,9.40703415 115.323588,10.5589122 C115.410628,10.692522 115.683894,10.6581073 115.661628,10.4657902 C115.311443,7.60330244 112.443165,5.25905854 109.787428,4.68413171 C109.668,4.65781463 109.578936,4.8319122 109.700387,4.8926439" id="Fill-49" fill="#303030"></path>
                <path d="M112.190546,6.83281951 C117.360328,11.0334293 116.925127,20.0966244 117.295554,26.1616976 C117.698368,32.7956244 117.319845,39.3425024 117.123498,45.9703561 C117.113377,46.312478 117.686223,46.4056 117.736828,46.0533561 C118.943245,37.4618439 118.615326,28.5221366 117.676102,19.9225268 C117.170054,15.2846488 117.109329,8.95438049 112.492151,6.4421122 C112.25532,6.31457561 111.961813,6.6486 112.190546,6.83281951" id="Fill-51" fill="#303030"></path>
                <path d="M117.764964,49.2654561 C117.799375,49.2654561 117.799375,49.2107976 117.764964,49.2107976 C117.730553,49.2107976 117.730553,49.2654561 117.764964,49.2654561" id="Fill-53" fill="#303030"></path>
                <path d="M116.636073,42.191022 C118.465941,56.3435341 117.553031,70.7713634 117.437652,85.0210463 C117.318225,99.6290463 116.492356,114.437461 117.283814,129.025217 C117.310128,129.492851 117.976087,129.490827 118.008474,129.025217 C119.052956,114.105461 118.445699,98.9286073 118.559054,83.9724122 C118.660263,70.5466561 120.757325,55.1896317 116.84254,42.1626805 C116.810153,42.0553878 116.61988,42.0695585 116.636073,42.191022" id="Fill-55" fill="#303030"></path>
                <path d="M117.643108,37.3444293 C116.855698,42.5167463 117.11277,48.361161 117.630963,53.5516976 C117.647156,53.7237707 117.881962,53.7257951 117.90018,53.5516976 C118.418373,48.3591366 118.673421,42.5126976 117.886011,37.3444293 C117.867793,37.2229659 117.661325,37.2229659 117.643108,37.3444293" id="Fill-57" fill="#303030"></path>
                <path d="M118.020822,37.9238098 C117.460121,43.2661756 117.777919,49.373761 118.698925,54.6655171 C118.727264,54.8254439 118.949925,54.7707854 118.964094,54.6311024 C119.447876,49.2846878 119.259626,43.1710293 118.2617,37.8914195 C118.233362,37.7456634 118.034991,37.7982976 118.020822,37.9238098" id="Fill-59" fill="#303030"></path>
                <path d="M117.423078,33.065678 C116.678176,41.1895561 116.985853,49.4429951 116.967635,57.5952146 C116.951442,65.7717268 116.850232,73.9603854 117.398788,82.1247512 C117.410933,82.3089707 117.674078,82.3089707 117.686223,82.1247512 C118.208464,73.9603854 118.08094,65.7717268 118.036408,57.5952146 C117.991876,49.4389463 118.26919,41.1895561 117.497973,33.065678 C117.493925,33.0170927 117.427127,33.0170927 117.423078,33.065678" id="Fill-61" fill="#303030"></path>
                <path d="M116.995569,125.131505 C115.975377,146.308651 116.548223,167.66192 116.459159,188.863359 C116.416651,199.088554 116.578586,209.340066 116.313417,219.561212 C116.070514,228.982724 114.418775,237.141017 107.726802,244.143383 C107.560818,244.31748 107.773358,244.611017 107.987922,244.481456 C113.868195,240.961041 115.95716,233.893895 116.825537,227.460383 C118.208059,217.239237 117.467206,206.584871 117.491496,196.298944 C117.544125,172.625724 118.369995,148.78448 117.38219,125.131505 C117.372069,124.882505 117.007714,124.882505 116.995569,125.131505" id="Fill-63" fill="#303030"></path>
                <path d="M71.1804503,229.833373 C71.783659,224.272373 65.231355,220.54952 60.3429353,221.525276 C54.7015169,222.648812 49.7442748,228.373788 51.1935951,234.315373 C54.5598236,248.129812 78.1193748,238.817617 70.9658861,227.416251 C70.7614429,227.090324 70.2270567,227.296812 70.3343388,227.683471 C71.548853,232.03591 70.1197746,236.61508 66.0207892,238.908715 C61.0777164,241.676056 53.8108732,239.732641 52.383819,233.916568 C51.0640469,228.535739 55.2784111,223.33508 60.5048706,222.328959 C66.0228134,221.266154 69.3768967,225.118568 70.9658861,229.861715 C71.00637,229.985202 71.166281,229.954837 71.1804503,229.833373" id="Fill-65" fill="#303030"></path>
                <path d="M64.9165934,221.945337 C61.7608806,219.801507 56.9007997,220.995898 54.1701669,223.346215 C51.5812275,225.575068 49.2453119,230.569239 51.2269942,233.814337 C51.3342763,233.990459 51.5670582,233.899361 51.5873001,233.715141 C51.7795982,232.0268 51.469897,230.472068 51.9111705,228.77158 C52.3909036,226.929385 53.3787085,225.251166 54.8037385,223.979849 C57.7894192,221.311702 61.2366154,221.663946 64.8740854,222.103239 C64.9651739,222.113361 64.9773191,221.987849 64.9165934,221.945337" id="Fill-67" fill="#303030"></path>
                <path d="M57.217383,222.311346 C56.6607307,222.420663 56.2194572,222.390298 55.7134096,222.667639 C55.2863055,222.902468 54.8814674,223.196005 54.5231857,223.52598 C53.8956867,224.109005 53.2216313,225.028078 53.3471311,225.926907 C53.3714214,226.107078 53.6082517,226.121249 53.7195822,226.024078 C54.3268393,225.501785 54.675,224.671785 55.2235556,224.078639 C55.5373051,223.738541 55.8854658,223.459176 56.2680378,223.200054 C56.6182227,222.961176 56.8894642,222.643346 57.2862055,222.473298 C57.3833667,222.430785 57.3104958,222.293127 57.217383,222.311346" id="Fill-69" fill="#303030"></path>
                <path d="M51.9801954,228.46448 C43.9866678,239.825359 69.7667558,246.056432 70.6391818,233.806846 C70.6533512,233.604407 70.3760371,233.559871 70.2788759,233.709676 C67.4348885,238.094505 63.4269917,239.940749 58.1802904,238.819237 C52.7655813,237.66331 50.7798506,233.657041 52.1967838,228.555578 C52.2332192,228.419944 52.0550905,228.359212 51.9801954,228.46448" id="Fill-71" fill="#303030"></path>
                <path d="M71.0658811,234.730373 C69.6691898,236.426812 68.4445547,238.056446 66.458824,239.121276 C64.3050855,240.279227 62.108839,240.422959 59.7304153,240.684105 C59.4328594,240.71852 59.3458192,241.123398 59.6575445,241.222593 C63.9791908,242.585007 70.0375925,239.175934 71.3553404,234.898398 C71.4039209,234.740495 71.1772116,234.594739 71.0658811,234.730373" id="Fill-73" fill="#303030"></path>
                <path d="M5.71712315,178.070929 C5.44385746,180.101393 5.62603459,182.182466 5.58352659,184.229124 C5.53494602,186.61588 5.29001899,189.000612 5.34062375,191.385344 C5.34264794,191.541222 5.58757497,191.587783 5.62198621,191.423807 C6.42761395,187.389198 6.75553279,182.099466 5.83857457,178.070929 C5.82642943,178.014246 5.72521991,178.008173 5.71712315,178.070929" id="Fill-75" fill="#303030"></path>
                <path d="M5.40701719,174.140778 C4.56090564,181.408339 4.15606757,189.200217 5.33212215,196.449559 C5.35641244,196.599363 5.58717013,196.558876 5.58919432,196.415144 C5.73696022,188.981583 5.38879948,181.586485 5.7187425,174.140778 C5.72683926,173.936315 5.42928329,173.946437 5.40701719,174.140778" id="Fill-77" fill="#303030"></path>
                <path d="M5.54243553,179.174627 C4.8785011,186.047432 4.0425105,193.094334 4.12145392,200.001554 C4.12347811,200.157432 4.38055028,200.203993 4.40281637,200.040017 C5.37847611,193.18948 5.47563725,186.083871 5.71044332,179.174627 C5.7144917,179.06531 5.55255648,179.069359 5.54243553,179.174627" id="Fill-79" fill="#303030"></path>
                <path d="M3.73685776,190.634093 C4.32387295,199.30658 4.30363105,207.861654 4.49592913,216.534141 C4.49795332,216.673824 4.7327594,216.720385 4.7530013,216.568556 C5.89262045,208.118751 5.40479058,198.9928 4.1052604,190.583483 C4.07287335,190.376995 3.72268842,190.423556 3.73685776,190.634093" id="Fill-81" fill="#303030"></path>
                <path d="M4.57041933,190.307761 C4.05829918,198.966078 3.34376,207.869346 3.7202594,216.53981 C3.73240454,216.8212 4.11902489,216.809054 4.14938774,216.53981 C5.10278139,207.911859 4.98740254,198.984298 5.05420082,190.307761 C5.0582492,189.99398 4.58863705,189.998029 4.57041933,190.307761" id="Fill-83" fill="#303030"></path>
                <path d="M3.23566823,193.896398 C2.94013645,202.279398 2.97252349,211.067276 3.8064899,219.417885 C3.83482857,219.699276 4.23764244,219.709398 4.25383597,219.417885 C4.71130298,211.038934 4.33885196,202.259154 3.66479658,193.896398 C3.64253049,193.623105 3.24578918,193.617032 3.23566823,193.896398" id="Fill-85" fill="#303030"></path>
                <path d="M72.0737255,233.840451 C67.4788135,241.267939 59.9204868,242.523061 53.0260946,237.219159 C52.9046431,237.126037 52.7852159,237.316329 52.8722561,237.417549 C58.2363605,243.735671 69.3916733,241.701159 72.1729108,233.882963 C72.1951769,233.822232 72.1061126,233.789841 72.0737255,233.840451" id="Fill-87" fill="#303030"></path>
                <path d="M54.3108482,227.683876 C54.3128724,227.803315 54.3169207,227.922754 54.3209691,228.042193 C54.3209691,228.062437 54.3493078,228.062437 54.351332,228.042193 C54.3553803,227.922754 54.3594287,227.803315 54.3614529,227.683876 C54.3614529,227.651485 54.3108482,227.651485 54.3108482,227.683876" id="Fill-89" fill="#303030"></path>
                <path d="M54.0898066,227.841778 C54.1060001,227.471315 54.1181452,227.1049 54.1140969,226.734437 C54.1140969,226.62512 53.9541858,226.570461 53.9015569,226.675729 C53.4420657,227.594802 53.116171,228.281071 53.0169857,229.337802 C52.9339939,230.236632 52.9603084,231.285266 53.3752674,232.10312 C53.4501624,232.2509 53.668775,232.171949 53.6728234,232.022144 C53.7416458,230.242705 53.5027914,228.509827 54.1100485,226.764802 C54.0351534,226.75468 53.9602584,226.744559 53.8853634,226.734437 C53.9319197,227.106924 53.9906213,227.475363 54.0574195,227.845827 C54.0594437,227.866071 54.0898066,227.859998 54.0898066,227.841778" id="Fill-91" fill="#303030"></path>
                <path d="M62.5885721,222.304666 C68.4506272,223.598251 70.8371476,228.835349 67.926362,234.123056 C67.8595637,234.24452 68.0275715,234.388251 68.1247326,234.27691 C72.0860731,229.764544 68.6388769,222.094129 62.6047656,222.193324 C62.5420157,222.193324 62.523798,222.290495 62.5885721,222.304666" id="Fill-93" fill="#303030"></path>
                <path d="M63.6713115,221.705649 C66.1043882,222.6976 68.3208766,223.102478 69.9139144,225.446722 C71.4280088,227.675576 71.4462265,230.056259 71.1385496,232.637356 C71.1081867,232.882307 71.4522991,232.876234 71.5312425,232.68999 C72.6141843,230.123063 71.9219112,226.952868 70.2296881,224.796893 C68.7965614,222.972917 66.0902189,221.150966 63.6713115,221.685405 C63.6611905,221.687429 63.6632147,221.7016 63.6713115,221.705649" id="Fill-95" fill="#303030"></path>
                <path d="M53.5299155,232.678654 C54.3820997,233.688824 54.2768418,234.907507 55.4164609,235.873141 C56.6168058,236.887361 58.1572146,237.512898 59.6915509,237.790239 C62.5254173,238.298361 65.8693797,237.660678 67.9158362,235.539117 C68.0656262,235.385263 67.8733282,235.124117 67.6830543,235.237483 C65.1872276,236.735532 62.7885621,237.711288 59.8130023,237.193044 C58.3130773,236.933922 56.8678054,236.367093 55.7079443,235.358946 C54.7808652,234.553239 54.4914059,233.38719 53.6169557,232.591605 C53.5582542,232.538971 53.4793108,232.619946 53.5299155,232.678654" id="Fill-97" fill="#303030"></path>
                <path d="M65.7578469,223.355324 C61.6791034,221.1123 55.5620002,222.762178 53.1228509,226.734032 C53.0135446,226.914202 53.2665684,227.108544 53.4143343,226.958739 C56.9627399,223.379617 60.8107257,222.276324 65.7295082,223.424154 C65.769992,223.434276 65.7963065,223.377593 65.7578469,223.355324" id="Fill-99" fill="#303030"></path>
                <path d="M59.2630298,222.779385 C57.085001,223.240946 54.2572071,225.020385 53.64995,227.316044 C53.6256597,227.409166 53.7491353,227.492166 53.819982,227.415239 C54.5588115,226.583215 55.0709316,225.613532 55.9210916,224.862483 C56.9068723,223.989971 58.0748301,223.368483 59.2954168,222.8968 C59.3682877,222.868459 59.3419732,222.76319 59.2630298,222.779385" id="Fill-101" fill="#303030"></path>
                <path d="M58.2173331,223.098024 C56.5433277,223.790366 54.8187175,225.308659 54.2377749,227.067854 C54.2053878,227.158951 54.3329118,227.19539 54.3835166,227.128585 C54.9401689,226.38361 55.419902,225.602195 56.0818123,224.94022 C56.7396741,224.282293 57.5007697,223.757976 58.2881797,223.268073 C58.3731957,223.215439 58.3185426,223.055512 58.2173331,223.098024" id="Fill-103" fill="#303030"></path>
                <path d="M60.0992228,221.527098 C61.3218338,221.346927 62.5302754,221.231537 63.7670557,221.330732 C65.0301504,221.433976 66.1252374,221.840878 67.3458242,222.095951 C67.4510821,222.11822 67.5239529,221.972463 67.4227434,221.91578 C65.323658,220.733537 62.3217838,220.741634 60.0567148,221.373244 C59.9555053,221.401585 60.0000375,221.541268 60.0992228,221.527098" id="Fill-105" fill="#303030"></path>
                <path d="M53.9551979,233.621615 C53.9896092,233.660078 53.3641343,235.040712 53.3256747,235.14598 C53.0888445,235.789737 52.7933127,236.433493 52.7710466,237.127859 C52.7669982,237.247298 52.9147641,237.261468 52.9754898,237.182517 C53.4491503,236.561029 53.647521,235.735078 53.8985206,235.004273 C54.072601,234.492102 54.3944472,233.957663 54.0887945,233.457639 C54.072601,233.429298 54.0361655,233.411078 54.0037785,233.423224 C53.8803029,233.465737 53.892448,233.451566 53.8337465,233.577078 C53.8276739,233.593273 53.8256497,233.617566 53.8418433,233.631737 C53.860061,233.645907 53.8803029,233.662102 53.8985206,233.678298 C53.9369802,233.710688 53.9896092,233.660078 53.9551979,233.621615" id="Fill-107" fill="#303030"></path>
                <path d="M54.885111,234.633202 C54.4559826,235.647422 53.8912335,236.83169 53.8244352,237.941056 C53.8183627,238.052398 53.9661285,238.074666 54.0207817,237.99369 C54.6219662,237.088788 54.8952319,235.791154 55.1583766,234.748593 C55.1968363,234.59069 54.9539334,234.471251 54.885111,234.633202" id="Fill-109" fill="#303030"></path>
                <path d="M56.1935476,235.972944 C55.9688625,236.428432 55.7158387,236.869749 55.4992503,237.329285 C55.3332667,237.685578 55.0944122,238.062115 55.1065574,238.46092 C55.1085816,238.568212 55.230033,238.610724 55.3069522,238.54392 C55.6247501,238.268602 55.7462015,237.800968 55.9020642,237.418359 C56.0862655,236.970968 56.229983,236.511432 56.4060876,236.062017 C56.4526439,235.940554 56.2522491,235.855529 56.1935476,235.972944" id="Fill-111" fill="#303030"></path>
                <path d="M57.848728,236.260812 C57.358874,237.036154 56.7597136,237.835788 56.5127624,238.728544 C56.4823995,238.837861 56.6301654,238.933007 56.711133,238.843934 C57.3285111,238.151593 57.678696,237.218349 58.0673406,236.388349 C58.1341388,236.242593 57.9357682,236.121129 57.848728,236.260812" id="Fill-113" fill="#303030"></path>
                <path d="M63.817458,237.632741 C63.6170632,237.984985 63.3883297,238.33318 63.2567573,238.717815 C63.232467,238.790693 63.3377249,238.827132 63.3761845,238.768424 C63.6028938,238.436424 63.7405388,238.047741 63.9004498,237.681327 C63.9247401,237.626668 63.8498451,237.578083 63.817458,237.632741" id="Fill-115" fill="#303030"></path>
                <path d="M63.8381048,237.374834 C63.5790084,237.767566 63.2996701,238.144102 63.0385496,238.532785 C62.8320822,238.836444 62.5831068,239.117834 62.5770342,239.494371 C62.5770342,239.58142 62.6762195,239.638102 62.7511146,239.593566 C63.0729608,239.401249 63.1903639,239.044956 63.3502749,238.71498 C63.5547181,238.293907 63.7409436,237.860688 63.9514594,237.441639 C63.9878948,237.364712 63.8846611,237.30398 63.8381048,237.374834" id="Fill-117" fill="#303030"></path>
                <path d="M65.6368003,236.517505 C65.144922,237.525651 64.3858507,238.448773 64.0194722,239.511578 C63.9830368,239.616846 64.1267543,239.6877 64.1996251,239.616846 C65.0194222,238.823285 65.4019942,237.626871 65.8290984,236.59848 C65.8756547,236.489163 65.6894292,236.410212 65.6368003,236.517505" id="Fill-119" fill="#303030"></path>
                <path d="M67.6383197,234.965 C67.2355058,235.497415 66.897466,236.072341 66.5553778,236.645244 C66.2598461,237.135146 65.8408387,237.65339 65.7355808,238.22022 C65.7153389,238.323463 65.8266693,238.388244 65.9076369,238.321439 C66.3489104,237.950976 66.5958617,237.331512 66.8792483,236.835537 C67.2091913,236.254537 67.5452069,235.67961 67.8124,235.06622 C67.865029,234.94678 67.7172631,234.861756 67.6383197,234.965" id="Fill-121" fill="#303030"></path>
                <path d="M69.1805503,232.224785 C68.7332042,233.036566 68.3769467,233.888834 68.0267618,234.745151 C67.6866978,235.5792 67.2231582,236.451712 67.1583841,237.358639 C67.1502874,237.461883 67.3101984,237.536785 67.3769967,237.449737 C67.8769717,236.812054 68.1016568,235.998249 68.3789709,235.245176 C68.7392768,234.273468 69.0935101,233.299737 69.3343887,232.289566 C69.3566548,232.198468 69.2271067,232.137737 69.1805503,232.224785" id="Fill-123" fill="#303030"></path>
                <path d="M69.1558552,231.943395 C68.3502274,233.265322 67.2328744,234.704663 66.8239879,236.212834 C66.7794557,236.378834 67.0102134,236.538761 67.1316648,236.39098 C68.1316149,235.180395 68.6619527,233.449541 69.2833791,232.018298 C69.3198146,231.933273 69.2064599,231.860395 69.1558552,231.943395" id="Fill-125" fill="#303030"></path>
                <path d="M70.3217888,230.362751 C70.0890069,231.324337 69.866346,232.289971 69.5768867,233.235361 C69.3218388,234.071434 68.9109281,234.88119 68.8097186,235.753702 C68.7955493,235.867068 68.9635571,235.929824 69.0364279,235.846824 C70.2124825,234.502629 70.5100385,232.113849 70.5161111,230.389068 C70.5161111,230.279751 70.3481033,230.253434 70.3217888,230.362751" id="Fill-127" fill="#303030"></path>
                <path d="M71.04989,231.427176 C70.9648741,231.933273 70.8393743,232.431273 70.677439,232.921176 C70.517528,233.400956 70.2260446,233.862517 70.145077,234.362541 C70.1207867,234.512346 70.2827219,234.627737 70.4041733,234.514371 C71.1510996,233.813932 71.2786236,232.423176 71.2907687,231.459566 C71.2907687,231.325956 71.0721561,231.287493 71.04989,231.427176" id="Fill-129" fill="#303030"></path>
                <path d="M9.45458816,30.7194098 C8.7785086,43.4447268 8.91412935,56.2591171 8.88983906,68.9986049 C8.86757297,81.7259463 8.60847661,94.5747512 9.44446721,107.2778 C9.45863655,107.514654 9.80679728,107.518702 9.81489404,107.2778 C10.1630548,94.5383122 9.64283786,81.7461902 9.63676529,68.9986049 C9.62866853,56.242922 10.0557727,43.4710439 9.90193423,30.7194098 C9.89788585,30.429922 9.47078169,30.4339707 9.45458816,30.7194098" id="Fill-131" fill="#303030"></path>
                <path d="M9.51511146,106.209732 C9.40378099,114.226317 9.85719962,122.265171 9.94828818,130.28378 C10.0373526,138.28822 9.77015944,146.379707 10.3490779,154.363902 C10.361223,154.521805 10.5838839,154.521805 10.5940049,154.363902 C11.6728983,138.646537 10.9907462,121.910902 9.72157887,106.209732 C9.71145792,106.078146 9.51713565,106.074098 9.51511146,106.209732" id="Fill-133" fill="#303030"></path>
                <path d="M10.3535311,154.004776 C9.05804928,174.971385 9.61672581,196.2538 9.54790334,217.258873 C9.54790334,217.706263 10.2381522,217.706263 10.2442248,217.258873 C10.5195147,196.257849 11.4283761,174.989605 10.4749825,154.004776 C10.4729583,153.925824 10.3575795,153.925824 10.3535311,154.004776" id="Fill-135" fill="#303030"></path>
                <path d="M112.74983,30.7194098 C112.07375,43.4447268 112.209371,56.2591171 112.185081,68.9986049 C112.162815,81.7259463 111.903719,94.5747512 112.739709,107.2778 C112.753878,107.514654 113.102039,107.518702 113.110136,107.2778 C113.458297,94.5383122 112.93808,81.7461902 112.932007,68.9986049 C112.92391,56.242922 113.351015,43.4710439 113.197176,30.7194098 C113.193128,30.429922 112.766024,30.4339707 112.74983,30.7194098" id="Fill-137" fill="#303030"></path>
                <path d="M112.810353,106.209732 C112.699023,114.226317 113.152442,122.265171 113.241506,130.28378 C113.332594,138.28822 113.065401,146.379707 113.64432,154.363902 C113.656465,154.521805 113.879126,154.521805 113.889247,154.363902 C114.96814,138.646537 114.285988,121.910902 113.016821,106.209732 C113.0067,106.078146 112.812378,106.074098 112.810353,106.209732" id="Fill-139" fill="#303030"></path>
                <path d="M113.648773,154.004776 C112.353291,174.971385 112.911968,196.2538 112.843145,217.258873 C112.843145,217.706263 113.533394,217.706263 113.539467,217.258873 C113.814757,196.257849 114.723618,174.989605 113.770224,154.004776 C113.7682,153.925824 113.652821,153.925824 113.648773,154.004776" id="Fill-141" fill="#303030"></path>
                <path d="M9.77137395,217.755254 C44.2696496,217.50018 78.7739979,216.360449 113.274298,215.906985 C113.699378,215.902937 113.699378,215.242985 113.274298,215.247034 C78.7982882,215.489961 44.2129723,215.651912 9.77137395,217.291668 C9.47584216,217.305839 9.47179378,217.757278 9.77137395,217.755254" id="Fill-143" fill="#303030"></path>
                <path d="M9.95172931,30.8216415 C44.3953519,31.4694463 79.0069822,30.8540317 113.452629,30.3560317 C113.920217,30.3499585 113.920217,29.6333244 113.452629,29.6313 C79.004958,29.511861 44.3852309,29.2750073 9.95172931,30.2993488 C9.61571371,30.3094707 9.61571371,30.8155683 9.95172931,30.8216415" id="Fill-145" fill="#303030"></path>
                <path d="M45.9806977,2.75428049 C47.4441873,2.75428049 47.4462115,0.478865854 45.9806977,0.478865854 C44.5172081,0.478865854 44.5151839,2.75428049 45.9806977,2.75428049" id="Fill-147" fill="#303030"></path>
                <path d="M51.9880898,17.8145293 C51.9354608,17.7457 51.9091463,17.7335537 51.8302029,17.7052122 C51.5022841,17.5857732 51.2371152,17.6343585 50.9719462,17.340822 C50.384931,16.6950415 50.9557527,15.9865049 51.4334616,15.5208951 C51.4678729,15.4885049 51.4314374,15.4338463 51.3889294,15.4439683 C49.8991253,15.7860902 50.310036,18.2396512 51.8706867,18.0068463 C51.9192673,17.9987488 51.9698721,17.9461146 51.9779688,17.8995537 C51.9779688,17.9076512 52.0002349,17.8307244 51.9880898,17.8145293" id="Fill-149" fill="#303030"></path>
                <path d="M51.3701045,15.2927463 C57.8029813,15.7138195 64.3330193,15.3595512 70.7780413,15.2785756 C71.0654763,15.2745268 71.0654763,14.829161 70.7780413,14.8332098 C64.3309951,14.8979902 57.7948845,14.689478 51.3701045,15.2542829 C51.3458142,15.2563073 51.3458142,15.290722 51.3701045,15.2927463" id="Fill-151" fill="#303030"></path>
                <path d="M51.9089439,18.0957171 C58.2466838,18.2617171 64.618835,18.0187902 70.9545507,17.8426683 C71.2359131,17.8365951 71.2379373,17.4013512 70.9545507,17.4054 C64.6147866,17.4742293 58.2385871,17.478278 51.9089439,17.8892293 C51.7773716,17.8973268 51.7753474,18.0916683 51.9089439,18.0957171" id="Fill-153" fill="#303030"></path>
                <path d="M52.5558751,17.9534024 L52.5943348,17.9938902 C52.628746,17.9108902 52.661133,17.8278902 52.6955443,17.7469146 C52.2745127,17.7205976 51.8777714,17.7570366 51.4790059,17.5869878 C51.0377324,17.3987195 50.6247976,16.9331098 50.7320797,16.4128415 C50.9304503,15.4573293 52.2522466,15.4127927 52.9951245,15.3378902 C53.0841888,15.3277683 53.1408662,15.2022561 53.0457292,15.1536707 C52.0963839,14.6576951 50.3697496,15.2832317 50.2806852,16.4695244 C50.1835241,17.7327439 51.6753524,18.4088902 52.7340039,18.0303293 C52.9323746,17.9594756 52.8068748,17.665939 52.6226734,17.7671585 C52.6085041,17.7752561 52.5923106,17.7833537 52.5761171,17.7914512 C52.5174155,17.8238415 52.511343,17.9068415 52.5558751,17.9534024" id="Fill-155" fill="#303030"></path>
                <path d="M52.2348386,15.1635902 C52.6983781,15.3619805 53.2246676,15.2708829 53.7226185,15.2789805 C54.2752224,15.287078 54.9209391,15.426761 55.4452044,15.2445659 C55.526172,15.2162244 55.5626075,15.0886878 55.4715189,15.0441512 C54.9857132,14.809322 54.3744077,14.8842244 53.8440699,14.8822 C53.3177804,14.8801756 52.7125475,14.7971756 52.2348386,15.0441512 C52.1923306,15.0664195 52.186258,15.1433463 52.2348386,15.1635902" id="Fill-157" fill="#303030"></path>
                <path d="M70.9389644,15.0737073 C71.3397541,15.466439 72.0765594,15.5534878 72.2830268,16.1446098 C72.647381,17.1871707 71.2263994,17.3147073 70.6312875,17.6001463 C70.4794732,17.6730244 70.572586,17.873439 70.7082067,17.8876098 C71.5664634,17.9746585 72.817413,17.328878 72.7162035,16.3247805 C72.6372601,15.5737317 71.6777939,14.9724878 70.9733756,14.9907073 C70.9328918,14.9927317 70.9086016,15.0433415 70.9389644,15.0737073" id="Fill-159" fill="#303030"></path>
                <path d="M70.8407912,15.1265439 C71.2881372,15.235861 71.6949995,15.3714951 71.9885071,15.7480317 C72.2314099,16.0577634 72.211168,16.4525195 72.423708,16.7582024 C72.4540709,16.802739 72.5208692,16.8209585 72.561353,16.776422 C72.8993927,16.4039341 72.5815949,15.7925683 72.306305,15.4706902 C71.9459991,15.0496171 71.3933951,14.7540561 70.8407912,14.9241049 C70.7456542,14.9524463 70.7375575,15.1002268 70.8407912,15.1265439" id="Fill-161" fill="#303030"></path>
                <path d="M50.9508946,15.9535073 C53.3778988,14.5425073 57.017393,15.4109707 59.7237355,15.2186537 C59.7966064,15.2125805 59.8229208,15.0992146 59.7419532,15.0809951 C57.9383996,14.696361 56.0963864,14.742922 54.2665184,14.9190439 C53.0985606,15.0324098 51.7565224,14.9959707 50.8739754,15.8543122 C50.8233707,15.904922 50.8881447,15.9899463 50.9508946,15.9535073" id="Fill-163" fill="#303030"></path>
                <path d="M51.8508497,15.3069171 C51.4116004,15.8494537 50.8083916,16.5276244 50.6586016,17.2199659 C50.6464564,17.2705756 50.7112305,17.3171366 50.7496901,17.2746244 C50.982472,17.0195512 51.1180928,16.6895756 51.2962215,16.396039 C51.5067373,16.0518927 51.7253499,15.7178683 51.9642043,15.3939659 C52.0107607,15.3291854 51.9014544,15.244161 51.8508497,15.3069171" id="Fill-165" fill="#303030"></path>
                <path d="M52.7123451,15.0352439 C52.1091363,15.8267805 51.4087665,16.6952439 50.9735656,17.5900244 C50.9432027,17.6527805 51.0221461,17.7276829 51.0767993,17.6689756 C51.7629998,16.9300732 52.3156038,15.9684878 52.8398691,15.1101463 C52.8904738,15.0271463 52.7690224,14.9623659 52.7123451,15.0352439" id="Fill-167" fill="#303030"></path>
                <path d="M53.9313125,15.0313976 C52.9758946,15.6852756 52.1257347,16.812861 51.6966064,17.8837634 C51.6520742,17.9930805 51.8221062,18.0558366 51.8808077,17.9627146 C52.1783637,17.476861 52.4435326,16.9808854 52.7815724,16.5213488 C53.1519992,16.0172756 53.5831517,15.5759585 53.9819172,15.0982024 C54.0102559,15.0637878 53.9738205,15.0030561 53.9313125,15.0313976" id="Fill-169" fill="#303030"></path>
                <path d="M54.7956417,15.0771488 C54.3219812,15.4131976 53.9657237,15.9739537 53.6013695,16.4233683 C53.2248701,16.8849293 52.7957417,17.3404171 52.4880648,17.8525878 C52.447581,17.9193927 52.5386695,17.9841732 52.5933227,17.9335634 C53.0548381,17.5185634 53.4394342,16.9861488 53.8381997,16.5104171 C54.1904088,16.0893439 54.6478758,15.6581488 54.8766094,15.1581244 C54.8988754,15.109539 54.8482707,15.0386854 54.7956417,15.0771488" id="Fill-171" fill="#303030"></path>
                <path d="M54.7484781,16.2247756 C54.3497126,16.7409951 53.8396167,17.2531659 53.5461091,17.8382146 C53.5116978,17.9070439 53.5967138,17.9778976 53.6554153,17.9212146 C54.1270517,17.4677512 54.4671157,16.8300683 54.8415909,16.2956293 C54.8780263,16.2409707 54.7889619,16.1721415 54.7484781,16.2247756" id="Fill-173" fill="#303030"></path>
                <path d="M56.9931028,15.1473951 C56.1469912,15.9429805 55.3838715,16.8681268 54.857582,17.906639 C54.7867353,18.0483463 54.9810576,18.1617122 55.0680978,18.0301268 C55.7077419,17.0685415 56.3311925,16.1110049 57.0477559,15.2000293 C57.0760946,15.1635902 57.0295382,15.1129805 56.9931028,15.1473951" id="Fill-175" fill="#303030"></path>
                <path d="M57.9798955,15.234039 C57.2188,15.8798195 56.1864629,16.7786488 55.8706892,17.7645268 C55.8484231,17.8374049 55.9435601,17.8839659 55.9941648,17.8353805 C56.3483981,17.511478 56.5933252,17.0519415 56.8807602,16.6693317 C57.2430903,16.1895512 57.6195897,15.7198927 58.016331,15.270478 C58.0365729,15.2461854 58.0041858,15.2137951 57.9798955,15.234039" id="Fill-177" fill="#303030"></path>
                <path d="M59.2448121,15.1520512 C58.7751999,15.5265634 58.3420232,15.9354902 57.9432577,16.3849049 C57.6355808,16.7310756 57.2226459,17.1278561 57.1133397,17.5894171 C57.0910736,17.6845634 57.1943073,17.775661 57.2833717,17.7210024 C57.6861855,17.4679537 57.9432577,16.9780512 58.2286685,16.603539 C58.5869502,16.1359049 58.9513045,15.6723195 59.3116104,15.202661 C59.3419732,15.1621732 59.2792233,15.1257341 59.2448121,15.1520512" id="Fill-179" fill="#303030"></path>
                <path d="M60.6496002,15.0370659 C60.2407137,15.4055049 59.8723111,15.7962122 59.5362955,16.2294317 C59.222546,16.6343098 58.7751999,17.0877732 58.669942,17.5979195 C58.6557727,17.6647244 58.7306677,17.7416512 58.7954418,17.6950902 C59.1881347,17.423822 59.4209166,16.9359439 59.6901339,16.5513098 C60.0342463,16.0634317 60.3722861,15.5755537 60.690084,15.0674317 C60.7042533,15.043139 60.6698421,15.0188463 60.6496002,15.0370659" id="Fill-181" fill="#303030"></path>
                <path d="M55.333874,15.4233195 C55.0181003,15.3727098 54.8197296,15.6237341 54.8804553,15.9253683 C54.8926005,15.9941976 54.9796406,16.0022951 55.0241728,15.9638317 C55.1820597,15.8322463 55.2933901,15.6601732 55.3581642,15.4658317 C55.3622126,15.4496366 55.3520917,15.4253439 55.333874,15.4233195" id="Fill-183" fill="#303030"></path>
                <path d="M69.5619077,14.9099341 C68.8534411,15.5901293 68.1510471,16.563861 67.8757572,17.5133 C67.8433702,17.6286902 68.0073296,17.7400317 68.0903214,17.6367878 C68.4020467,17.2582268 68.6307802,16.8351293 68.8959491,16.424178 C69.1874325,15.972739 69.5173755,15.5496415 69.8027864,15.096178 C69.8979233,14.9463732 69.6853833,14.7904951 69.5619077,14.9099341" id="Fill-185" fill="#303030"></path>
                <path d="M70.3976959,15.0603463 C70.0191723,15.3174439 69.802584,15.7628098 69.5677779,16.1433951 C69.3046331,16.5705415 68.9645692,17.030078 68.877529,17.5301024 C68.867408,17.5928585 68.9362305,17.6758585 69.0010046,17.6252488 C69.387625,17.3296878 69.6305278,16.8559805 69.8795032,16.4450293 C70.1264544,16.0320537 70.4483007,15.6069317 70.504978,15.1231024 C70.5110506,15.0684439 70.4402039,15.0320049 70.3976959,15.0603463" id="Fill-187" fill="#303030"></path>
                <path d="M71.2316623,15.2194634 C70.9442273,15.5717073 70.7013245,15.9563415 70.4523491,16.3349024 C70.207422,16.711439 69.9240354,17.09 69.834971,17.5353659 C69.8228259,17.5900244 69.8876,17.660878 69.9422531,17.6183659 C70.2560026,17.375439 70.4563974,17.0312927 70.6608407,16.6932195 C70.9239854,16.2579756 71.1972511,15.8207073 71.4097911,15.357122 C71.4603958,15.2498293 71.3207267,15.1121707 71.2316623,15.2194634" id="Fill-189" fill="#303030"></path>
                <path d="M72.1168408,15.6913488 C71.5419707,15.9808366 71.0015119,16.922178 70.8800605,17.5315195 C70.8577944,17.642861 70.9974635,17.7481293 71.0845037,17.6509585 C71.3274065,17.3756415 71.4994627,17.0416171 71.6978334,16.7318854 C71.8941798,16.4282268 72.151252,16.1448122 72.2504373,15.7945927 C72.2727034,15.7136171 72.1856632,15.6569341 72.1168408,15.6913488" id="Fill-191" fill="#303030"></path>
                <path d="M72.321284,16.3172902 C72.0298006,16.606778 71.6775915,16.8962659 71.4610031,17.2464854 C71.4225435,17.3072171 71.4873176,17.4043878 71.5601884,17.3760463 C71.9872926,17.2120707 72.2706792,16.7970707 72.4346386,16.3820707 C72.4589289,16.3172902 72.3658162,16.2727537 72.321284,16.3172902" id="Fill-193" fill="#303030"></path>
                <path d="M71.5271941,15.1858585 C72.1263545,15.4247366 72.4218862,15.7992488 72.6870552,16.3701268 C72.7052729,16.4065659 72.7659986,16.3964439 72.7720712,16.3579805 C72.9157887,15.6636146 72.2194672,15.011761 71.5413635,15.0826146 C71.4806377,15.0886878 71.4705168,15.1635902 71.5271941,15.1858585" id="Fill-195" fill="#303030"></path>
                <path d="M50.4782462,16.4223561 C51.4802204,14.3817707 54.6075945,15.2947707 56.3524465,15.3069171 C57.7228234,15.317039 59.1296356,15.317039 60.4777464,15.0599415 C60.5749075,15.041722 60.5445447,14.8979902 60.4554803,14.8939415 C57.9495327,14.772478 55.2674805,14.8048683 52.7615329,14.9141854 C51.6340589,14.9627707 50.773778,15.3028683 50.3365529,16.3616244 C50.3021416,16.4446244 50.4397866,16.5013073 50.4782462,16.4223561" id="Fill-197" fill="#303030"></path>
                <path d="M20.2143743,3.6974439 C16.5971461,4.71166341 11.4192673,6.88788293 9.75335866,10.5317854 C9.70477809,10.6370537 9.83432627,10.7585171 9.92541483,10.6633707 C11.479993,9.06005366 12.820007,7.57212683 14.7996651,6.44251707 C16.5627349,5.43639512 18.477619,4.77441951 20.2831967,3.85939512 C20.3722611,3.81283415 20.3095112,3.67112683 20.2143743,3.6974439" id="Fill-199" fill="#303030"></path>
                <path d="M10.7660611,9.29326341 C8.90987855,11.8986537 7.74394492,14.8481902 6.96260746,17.9374098 C6.90997851,18.1438976 7.21765544,18.2268976 7.28040534,18.0244585 C8.19129098,15.0101415 9.49082117,12.1780195 10.871319,9.35399512 C10.9057302,9.28314146 10.8105933,9.22848293 10.7660611,9.29326341" id="Fill-201" fill="#303030"></path>
                <path d="M7.0279888,19.573522 C6.62922331,22.3307415 6.64339264,25.4442537 6.89641643,28.2136195 C6.91665834,28.4484488 7.24052879,28.4484488 7.26279488,28.2136195 C7.51379448,25.4442537 7.52796381,22.3266927 7.12919832,19.573522 C7.12312575,19.5229122 7.03608557,19.5229122 7.0279888,19.573522" id="Fill-203" fill="#303030"></path>
                <path d="M5.94484456,23.2151976 C6.26061825,21.8001488 6.32134396,20.3324659 6.57234356,18.9032463 C6.79298031,17.6339537 7.22413285,16.3930024 7.26664084,15.1034659 C7.27271341,14.9415146 7.04802829,14.8909049 6.96908487,15.0224902 C5.69182077,17.1481 5.30115204,20.7818805 5.70194172,23.2151976 C5.72218363,23.3386854 5.91853009,23.3326122 5.94484456,23.2151976" id="Fill-205" fill="#303030"></path>
                <g id="Group-209" transform="translate(0.000000, 1.320000)">
                    <mask id="mask-4" fill="white">
                        <use xlink:href="#path-3"></use>
                    </mask>
                    <g id="Clip-208"></g>
                    <path d="M0.554223311,25.8415439 C0.404433227,14.5818854 3.6937425,6.67866585 13.7539684,1.10956829 C13.9381697,1.00632439 13.8126699,0.706714634 13.6082267,0.767446341 C3.39213814,3.74532439 -1.46794282,16.0900561 0.388239704,25.8638122 C0.406457417,25.9589585 0.556247501,25.9346659 0.554223311,25.8415439" id="Fill-207" fill="#303030" mask="url(#mask-4)"></path>
                </g>
                <path d="M13.3715989,6.93322927 C20.3672006,3.61322927 27.3466089,5.1011561 34.5142668,3.17596098 C34.6822746,3.13142439 34.6519117,2.86622927 34.473783,2.87027805 C27.7372776,3.01805854 18.9280013,2.45932683 13.2784861,6.77330244 C13.1853734,6.8441561 13.2622926,6.98586341 13.3715989,6.93322927" id="Fill-210" fill="#303030"></path>
                <path d="M19.1409461,3.50431707 C21.2724185,3.13790244 23.3613829,2.69658537 25.5373875,2.67634146 L25.5373875,2.00019512 C23.4990279,2.12570732 21.5294907,2.04068293 19.5214939,1.63985366 C19.4850585,1.91719512 19.4465989,2.1925122 19.4101634,2.46782927 C21.6327244,2.19656098 23.8532612,1.90707317 26.0758222,1.6317561 C26.6000875,1.56697561 26.6365229,0.767341463 26.0758222,0.783536585 C25.1629123,0.805804878 23.9585191,1.02646341 23.0618028,0.844268293 C23.1427704,0.98597561 23.2217138,1.12768293 23.3006572,1.26736585 C23.2480283,1.29570732 23.1953993,1.32404878 23.1407462,1.35239024 C23.3674555,1.35643902 23.468665,1.07302439 23.3208991,0.917146341 C23.298633,0.892853659 23.2743428,0.868560976 23.2520767,0.844268293 C23.1346736,0.720780488 22.9504723,0.74102439 22.8310451,0.844268293 C22.7966338,0.872609756 22.7622226,0.90297561 22.7278114,0.933341463 C22.60636,1.04063415 22.6124325,1.2167561 22.6731582,1.35036585 C23.0739479,2.21478049 25.3288959,1.65807317 26.0758222,1.6317561 L26.0758222,0.783536585 C23.8532612,1.06695122 21.6307002,1.33619512 19.4101634,1.62568293 C18.9871077,1.68034146 18.7846886,2.35446341 19.2968088,2.45365854 C21.3635071,2.84639024 23.4484231,2.95570732 25.5373875,2.67634146 C25.9543708,2.62168293 25.9827094,1.97590244 25.5373875,2.00019512 C23.3370927,2.12570732 21.1145317,2.36053659 19.0599785,3.2087561 C18.8778014,3.28365854 18.9425755,3.53873171 19.1409461,3.50431707" id="Fill-212" fill="#303030"></path>
                <path d="M106.958622,4.75923659 C107.956547,5.15399268 108.968643,5.31796829 109.879528,5.94350488 C110.780293,6.55891951 111.369332,7.37474878 112.06363,8.19462683 C112.138525,8.28572439 112.296411,8.18855366 112.259976,8.08126098 C111.642598,6.18035854 108.990909,4.27338293 106.958622,4.57299268 C106.853364,4.58716341 106.881702,4.72887073 106.958622,4.75923659" id="Fill-214" fill="#303030"></path>
                <path d="M109.703221,5.52162195 C110.972389,6.68159756 112.213217,7.90230488 113.350812,9.18981707 C114.49448,10.4854268 115.391196,11.9632317 116.512597,13.2689634 C116.613807,13.386378 116.844565,13.2608659 116.781815,13.111061 C115.506575,9.95706098 112.593765,7.22210976 109.79431,5.40218293 C109.723463,5.35562195 109.640471,5.46291463 109.703221,5.52162195" id="Fill-216" fill="#303030"></path>
                <path d="M109.820422,5.06896829 C110.759646,6.17630976 111.77579,7.21887073 112.684651,8.35252927 C113.585416,9.47809024 114.308052,10.7494073 115.255373,11.8324561 C115.366703,11.9599927 115.601509,11.8263829 115.542808,11.6644317 C114.601559,9.06713902 112.168483,6.46782195 109.897341,4.96977317 C109.834591,4.92726098 109.77589,5.01633415 109.820422,5.06896829" id="Fill-218" fill="#303030"></path>
                <path d="M104.790511,2.51843902 C105.624478,2.76541463 106.476662,2.9172439 107.288362,3.24519512 C108.176982,3.6035122 108.960343,4.14604878 109.804431,4.58939024 C109.899568,4.64 110.047334,4.52663415 109.96839,4.42541463 C108.863182,2.98809756 106.620379,2.06497561 104.822898,2.2734878 C104.691326,2.28968293 104.646794,2.47592683 104.790511,2.51843902" id="Fill-220" fill="#303030"></path>
                <path d="M104.503684,2.74780244 C103.965249,2.53726585 103.461226,2.39555854 102.88838,2.31863171 C102.619162,2.28421707 102.609041,2.67897317 102.827654,2.76197317 C104.082652,3.23568049 105.880133,3.61019268 107.205978,3.29843659 C107.36184,3.26199756 107.359816,3.02311951 107.205978,2.98668049 C106.584551,2.83687561 105.942883,2.84699756 105.309311,2.77209512 C104.509756,2.67897317 103.73854,2.47653415 102.947081,2.32672927 C102.926839,2.47450976 102.908622,2.62229024 102.88838,2.77007073 C103.414669,2.74780244 103.949055,2.76804634 104.469272,2.86926585 C104.55024,2.88546098 104.578579,2.77816829 104.503684,2.74780244" id="Fill-222" fill="#303030"></path>
                <path d="M66.3748201,4.22155854 C78.0665434,4.87543659 90.2602659,4.77826585 101.954013,4.11426585 C102.290029,4.09604634 102.294077,3.60209512 101.954013,3.58792439 C90.2521691,3.10207073 78.0584466,3.1911439 66.3748201,4.02316829 C66.2472961,4.03329024 66.2472961,4.21346098 66.3748201,4.22155854" id="Fill-224" fill="#303030"></path>
                <path d="M10.1237855,216.909261 C44.0431427,216.328261 77.8936775,215.279627 111.829228,215.674383 C112.385881,215.680456 112.385881,214.816041 111.829228,214.809968 C77.9847661,214.461773 43.9216913,214.362578 10.1237855,216.407212 C9.80396341,216.427456 9.79789084,216.915334 10.1237855,216.909261" id="Fill-226" fill="#303030"></path>
                <path d="M10.8429803,215.533283 C17.7474935,215.968527 24.7694097,215.456356 31.6901165,215.466478 C38.6371376,215.4766 45.5922556,215.75799 52.5372526,215.679039 C52.6971636,215.677015 52.6951394,215.442185 52.5372526,215.430039 C39.0217338,214.492746 24.3119427,213.8996 10.8429803,215.44421 C10.786303,215.452307 10.7842788,215.529234 10.8429803,215.533283" id="Fill-228" fill="#303030"></path>
                <path d="M67.6233407,215.693615 C82.9808727,215.730054 98.6885896,214.823127 113.995517,213.572054 C114.252589,213.55181 114.260686,213.159078 113.995517,213.163127 C98.6339364,213.408078 82.910026,214.041712 67.6233407,215.572151 C67.5464214,215.578224 67.5423731,215.693615 67.6233407,215.693615" id="Fill-230" fill="#303030"></path>
                <path d="M7.90972611,219.057544 C7.7437425,222.347178 7.94413735,225.90808 8.79429728,229.106617 C8.80441823,229.149129 8.88133747,229.143056 8.87526489,229.094471 C8.50888645,225.725885 8.10607257,222.448398 7.9947421,219.057544 C7.99271791,219.002885 7.9117503,219.002885 7.90972611,219.057544" id="Fill-232" fill="#303030"></path>
                <path d="M9.09144842,231.319478 C9.83027789,234.615185 11.0690824,238.178112 14.2045532,239.904917 C17.7306927,241.846307 23.1818373,241.801771 27.0439924,241.739015 C27.1694922,241.73699 27.1634196,241.560868 27.0439924,241.548722 C23.5502399,241.212673 19.7690524,241.3726 16.3785336,240.382673 C11.7998151,239.046576 10.6136395,235.33182 9.27362555,231.268868 C9.23719012,231.153478 9.06513395,231.200039 9.09144842,231.319478" id="Fill-234" fill="#303030"></path>
                <path d="M28.4724635,242.129115 C36.7615229,242.021822 44.8744777,240.96509 53.1372226,242.19592 C53.3841738,242.232359 53.4995527,241.865944 53.2424805,241.809261 C45.2975335,240.076383 36.496354,241.088578 28.4724635,241.86392 C28.3064799,241.880115 28.2983831,242.131139 28.4724635,242.129115" id="Fill-236" fill="#303030"></path>
                <path d="M67.9267668,242.442693 C76.841301,242.914376 85.9076494,242.351595 94.8161111,241.916351 C98.5244277,241.734156 105.862118,242.914376 108.038122,238.956693 C108.169695,238.71579 107.827606,238.521449 107.673768,238.744132 C105.720424,241.594473 100.963577,241.055985 97.9151464,241.236156 C94.4719987,241.442644 91.028851,241.626863 87.5816548,241.760473 C81.0354233,242.011498 74.4628773,241.900156 67.9267668,242.262522 C67.8113879,242.268595 67.8093638,242.43662 67.9267668,242.442693" id="Fill-238" fill="#303030"></path>
                <path d="M109.83034,236.814888 C113.41923,232.5414 114.605405,226.524912 112.90711,221.218985 C112.862577,221.083351 112.666231,221.140034 112.69457,221.277693 C113.880745,226.901449 112.846384,231.903717 109.559099,236.606376 C109.447768,236.764278 109.704841,236.964693 109.83034,236.814888" id="Fill-240" fill="#303030"></path>
                <path d="M11.8741029,161.912449 C11.3963939,170.92301 11.7364579,180.024668 11.7040709,189.047376 C11.673708,198.068059 11.2526764,207.171741 11.7121676,216.182302 C11.7303853,216.534546 12.2425055,216.534546 12.2607232,216.182302 C12.7202144,207.169717 12.2971586,198.070083 12.26882,189.047376 C12.2404813,180.026693 12.5785211,170.920985 12.1008122,161.912449 C12.0947396,161.766693 11.8821996,161.766693 11.8741029,161.912449" id="Fill-242" fill="#303030"></path>
                <path d="M11.692533,160.107705 C11.320082,163.828534 11.1581467,167.867193 11.2472111,171.606241 C11.2512595,171.837022 11.6156138,171.905851 11.6641943,171.662924 C12.3908786,168.057485 12.4880398,163.71112 11.9334116,160.075315 C11.9091214,159.929559 11.7046781,159.982193 11.692533,160.107705" id="Fill-244" fill="#303030"></path>
                <path d="M10.6816523,158.677676 C10.3011046,163.222432 9.90031487,168.597188 10.7039184,173.095383 C10.7302329,173.241139 10.9751599,173.241139 11.0014744,173.095383 C11.805078,168.593139 11.4022641,163.218383 11.0237405,158.677676 C11.0034986,158.459041 10.6998701,158.457017 10.6816523,158.677676" id="Fill-246" fill="#303030"></path>
                <path d="M10.6794257,160.834056 C10.2341039,166.856617 10.246249,173.140324 10.6774015,179.162885 C10.6935951,179.387593 11.0113929,179.389617 11.0275865,179.162885 C11.458739,173.142349 11.46886,166.856617 11.0255623,160.834056 C11.0093688,160.611373 10.6956193,160.611373 10.6794257,160.834056" id="Fill-248" fill="#303030"></path>
                <path d="M10.998843,166.22521 C10.5940049,172.721478 10.5413759,179.499137 11.0292058,185.99338 C11.0453993,186.22821 11.3773666,186.22821 11.3955843,185.99338 C11.8813899,179.501161 11.828761,172.723502 11.4239229,166.22521 C11.4077294,165.951917 11.0150365,165.951917 10.998843,166.22521" id="Fill-250" fill="#303030"></path>
                <path d="M10.6577669,173.057122 C10.6415734,180.187024 10.6233557,187.505195 11.0686775,194.616878 C11.0787985,194.762634 11.2771691,194.758585 11.2933627,194.616878 C12.0686275,187.614512 11.7913135,180.045317 10.9452019,173.057122 C10.9229358,172.878976 10.6577669,172.866829 10.6577669,173.057122" id="Fill-252" fill="#303030"></path>
                <path d="M10.4806502,206.188293 C10.6709241,206.208537 11.2174555,214.036854 11.4097536,214.798024 C11.4806003,215.083463 11.8935351,215.010585 11.9056802,214.73122 C11.9805753,213.142073 11.6992128,211.510415 11.5251324,209.929366 C11.3854633,208.662098 11.3834391,207.269317 10.9806252,206.060756 C10.9522866,205.981805 10.8895367,205.89678 10.8004723,205.880585 C10.4482632,205.819854 10.5069647,205.771268 10.2701344,205.971683 C10.2458442,205.989902 10.2397716,206.026341 10.2478684,206.054683 C10.2620377,206.119463 10.2782312,206.184244 10.2924005,206.249024 C10.2984731,206.275341 10.3247876,206.291537 10.3490779,206.293561 C10.3936101,206.295585 10.4361181,206.299634 10.4806502,206.301659 C10.5535211,206.307732 10.5514969,206.19639 10.4806502,206.188293" id="Fill-254" fill="#303030"></path>
                <path d="M10.9253649,203.913283 C10.2634546,207.474185 9.87885846,211.968332 10.6460266,215.529234 C10.7108007,215.828844 11.1055178,215.719527 11.1379048,215.462429 C11.3787835,213.573673 11.1743403,211.60799 11.1804128,209.705063 C11.1864854,207.785941 11.2816224,205.86682 11.2067273,203.951746 C11.2006547,203.797893 10.9557277,203.747283 10.9253649,203.913283" id="Fill-256" fill="#303030"></path>
                <path d="M10.6640419,206.784476 C9.94545432,209.428329 9.37463265,213.37589 10.5223486,215.93472 C10.5830743,216.070354 10.8158562,216.035939 10.8421706,215.894232 C11.091146,214.525744 10.7935901,213.078305 10.8016868,211.6835 C10.8097836,210.061963 10.9798156,208.456622 11.0810251,206.841159 C11.0972186,206.598232 10.7267918,206.55572 10.6640419,206.784476" id="Fill-258" fill="#303030"></path>
                <path d="M10.9921631,208.995717 C10.9030988,210.236668 10.9415584,211.47762 10.9881148,212.720595 C11.022526,213.672059 10.9091713,214.66401 11.3160336,215.536522 C11.3808077,215.676205 11.5710816,215.617498 11.6156138,215.498059 C11.9819922,214.495985 11.7269442,213.277302 11.6722911,212.22462 C11.6135896,211.125376 11.5386945,210.032205 11.3686625,208.945107 C11.3342513,208.7204 11.0063325,208.793278 10.9921631,208.995717" id="Fill-260" fill="#303030"></path>
                <path d="M10.3861206,193.168629 C10.6330718,197.927971 10.5298381,202.826995 10.9812325,207.555971 C11.0014744,207.774605 11.3577319,207.869751 11.3982157,207.612654 C12.1228758,202.99502 11.6046831,197.69719 10.7909586,193.113971 C10.7504748,192.885215 10.3739754,192.937849 10.3861206,193.168629" id="Fill-262" fill="#303030"></path>
                <path d="M10.6395492,193.180776 C10.2266144,198.519093 10.0322921,204.393873 10.6658637,209.713971 C10.6942023,209.954873 11.0120002,209.954873 11.0403389,209.713971 C11.6718862,204.393873 11.477564,198.521117 11.0646291,193.180776 C11.0443872,192.907483 10.6597911,192.907483 10.6395492,193.180776" id="Fill-264" fill="#303030"></path>
                <path d="M6.06184276,31.6905098 C5.17119902,32.4192902 4.35545032,33.2128512 3.51541134,33.9983146 C2.68751749,34.7736561 1.7867528,35.5125585 1.06209266,36.3891195 C0.991246002,36.4741439 1.07828619,36.6077537 1.18556827,36.5490463 C3.12069422,35.4579 4.92222361,33.595461 6.24401989,31.8301927 C6.32903589,31.7188512 6.15495552,31.6135829 6.06184276,31.6905098" id="Fill-266" fill="#303030"></path>
                <path d="M5.45195422,35.7322049 C4.47831867,36.2200829 3.60386845,36.8881317 2.74763595,37.5582049 C2.00273391,38.1392049 1.09387245,38.7424732 0.567582967,39.5380585 C0.476494402,39.6716683 0.64855058,39.8154 0.77607457,39.7485951 C1.61813774,39.3052537 2.32458017,38.5177659 3.0715064,37.9246195 C3.91154538,37.2565707 4.80421331,36.6472293 5.60984106,35.9366683 C5.7272441,35.8354488 5.57745402,35.6694488 5.45195422,35.7322049" id="Fill-268" fill="#303030"></path>
                <path d="M5.71347961,38.4754561 C4.74794082,39.196139 3.83907937,39.9856512 2.92819372,40.773139 C2.04767093,41.5322854 0.960680728,42.2691634 0.304843063,43.2388463 C0.213754498,43.3724561 0.387834866,43.5101146 0.513334666,43.4453341 C1.49911535,42.9432854 2.31486405,42.0100415 3.13263695,41.2731634 C4.06578868,40.4310171 5.00501299,39.5908951 5.87339064,38.6839683 C5.97460016,38.5807244 5.83897941,38.3823341 5.71347961,38.4754561" id="Fill-270" fill="#303030"></path>
                <path d="M5.76793033,42.1408171 C3.96640094,43.3088902 1.81873501,44.5883049 0.675067473,46.4750366 C0.610293383,46.5823293 0.743889944,46.7301098 0.853196222,46.6531829 C2.65067723,45.3960366 4.07570722,43.598378 5.86104308,42.3007439 C5.95618003,42.2319146 5.86913984,42.0740122 5.76793033,42.1408171" id="Fill-272" fill="#303030"></path>
                <path d="M4.75887145,46.1827146 C4.07267093,46.9337634 3.34598661,47.6564707 2.59096361,48.3386902 C1.84201319,49.0148366 0.977683926,49.6019098 0.297555978,50.3489098 C0.1882497,50.4703732 0.323870452,50.6343488 0.465563774,50.5675439 C2.2792383,49.7253976 3.75284886,47.8771293 4.92687925,46.3122756 C4.9997501,46.2151049 4.83983906,46.0936415 4.75887145,46.1827146" id="Fill-274" fill="#303030"></path>
                <path d="M4.77486255,50.1148902 C4.00971861,50.673622 3.32756647,51.3416707 2.631245,51.981378 C1.9632622,52.5967927 1.09286036,53.2041098 0.637417533,53.9956463 C0.550377349,54.1454512 0.718385146,54.2891829 0.862102659,54.2203537 C1.64141593,53.8397683 2.27296331,53.060378 2.89843812,52.4692561 C3.60892893,51.7951341 4.35585516,51.1412561 4.98740254,50.3902073 C5.10480558,50.2485 4.94691873,49.989378 4.77486255,50.1148902" id="Fill-276" fill="#303030"></path>
                <path d="M5.7144917,52.9008561 C4.93720262,53.7308561 4.17408287,54.5750268 3.43322921,55.4374171 C2.83609306,56.1317829 2.08916683,56.8261488 1.73695772,57.6804415 C1.66813525,57.8444171 1.89079618,57.9921976 2.02641693,57.9051488 C2.87252849,57.3646366 3.48585816,56.3807829 4.10930878,55.6054415 C4.75907387,54.793661 5.39466963,53.9677098 6.01609606,53.133661 C6.14564424,52.957539 5.8622576,52.744978 5.7144917,52.9008561" id="Fill-278" fill="#303030"></path>
                <path d="M5.77683677,56.5303854 C4.92262845,57.5061415 4.16153289,58.5588244 3.29720362,59.5264829 C2.5057452,60.4111415 1.60498051,61.2006537 0.914731607,62.1703366 C0.817570472,62.3079951 1.00582017,62.4699463 1.13739254,62.3930195 C2.22843113,61.7593854 3.06847011,60.787678 3.886243,59.8402634 C4.70604008,58.8908244 5.50761945,57.8887512 6.09463465,56.7753366 C6.19584416,56.5809951 5.93472361,56.3502146 5.77683677,56.5303854" id="Fill-280" fill="#303030"></path>
                <path d="M5.83108507,60.8575195 C4.78862705,61.6207146 3.84940274,62.5175195 2.90208167,63.3940805 C1.98512345,64.2402756 0.831334966,65.0601537 0.145134446,66.1087878 C0.00141693323,66.327422 0.276706817,66.5663 0.487222611,66.4509098 C1.52968063,65.8780073 2.38186475,64.8475927 3.2502424,64.039861 C4.22792633,63.1288854 5.23597311,62.2320805 6.10637495,61.2138122 C6.2622376,61.0336415 6.053746,60.6935439 5.83108507,60.8575195" id="Fill-282" fill="#303030"></path>
                <path d="M5.39244302,65.1674463 C4.50179928,65.8638366 3.63139744,66.5622512 2.78731008,67.3173488 C2.05860156,67.9712268 1.10520792,68.604861 0.615353858,69.4551049 C0.491878249,69.6696902 0.730732707,69.8660561 0.933151739,69.7729341 C1.81772291,69.3619829 2.55047981,68.4550561 3.26097061,67.7930805 C4.08481607,67.0238122 4.85805678,66.224178 5.6272491,65.4022756 C5.77906337,65.2423488 5.55640244,65.0399098 5.39244302,65.1674463" id="Fill-284" fill="#303030"></path>
                <path d="M5.04407987,68.336022 C4.22428279,68.9210707 3.5320097,69.6741439 2.86605108,70.4231683 C2.28713265,71.075022 1.47745652,71.8139244 1.22848111,72.6702415 C1.17585216,72.8524366 1.38839214,73.0245098 1.55235156,72.9212659 C2.32964064,72.429339 2.85188175,71.4778756 3.44901789,70.7855341 C4.07246851,70.0628268 4.75259646,69.3826317 5.32544232,68.6174122 C5.44891793,68.455461 5.20803928,68.2206317 5.04407987,68.336022" id="Fill-286" fill="#303030"></path>
                <path d="M4.67365304,71.9058317 C3.74657387,72.581978 2.91463165,73.3573195 2.11305228,74.1731488 C1.41470662,74.8837098 0.49167583,75.6489293 0.159708617,76.612539 C0.103031287,76.778539 0.30545032,76.9081 0.445119452,76.8311732 C1.3134971,76.3534171 1.93492353,75.3877829 2.62112405,74.6812707 C3.39841313,73.8816366 4.22023441,73.126539 4.99954768,72.3289293 C5.20601509,72.1183927 4.92870102,71.7195878 4.67365304,71.9058317" id="Fill-288" fill="#303030"></path>
                <path d="M4.21314974,75.8505585 C3.44193323,76.4801439 2.72739404,77.1542659 2.06548381,77.8992415 C1.59384746,78.4316561 0.850969612,79.0936317 0.790243902,79.8365829 C0.782147141,79.9418512 0.911695322,80.0491439 1.01492903,80.0066317 C1.71732307,79.7171439 2.15859656,78.8547537 2.65452319,78.2980463 C3.28202219,77.5935585 3.950005,76.9194366 4.63822971,76.2756805 C4.92768892,76.0064366 4.50665734,75.6096561 4.21314974,75.8505585" id="Fill-290" fill="#303030"></path>
                <path d="M5.0114904,79.4513415 C4.26051579,79.8501463 3.59253299,80.289439 2.9630098,80.8663902 C2.45088964,81.3360488 1.6655038,81.9919512 1.52785886,82.7045366 C1.48737505,82.9150732 1.69384246,83.0871463 1.89018892,82.981878 C2.48732507,82.6660732 2.90633247,81.9170488 3.379993,81.4392927 C3.95081467,80.8643659 4.57426529,80.2955122 5.21593363,79.801561 C5.41632847,79.6456829 5.24832067,79.3258293 5.0114904,79.4513415" id="Fill-292" fill="#303030"></path>
                <path d="M4.55564274,82.6541293 C3.92611955,83.2897878 3.28242703,83.9112756 2.66302479,84.5590805 C2.16304978,85.0793488 1.45053479,85.609739 1.22180128,86.3122024 C1.17322071,86.4660561 1.33920432,86.6482512 1.49911535,86.5875195 C2.19341263,86.3263732 2.67921831,85.6036659 3.18121751,85.0753 C3.79859556,84.4254707 4.38965914,83.7553976 4.99691623,83.0954463 C5.26613355,82.7998854 4.83902939,82.3686902 4.55564274,82.6541293" id="Fill-294" fill="#303030"></path>
                <path d="M4.62709666,86.3237415 C3.77288834,87.0100098 3.01786535,87.7833268 2.31344712,88.6234488 C1.7527464,89.2914976 0.961287985,90.0688634 0.74065124,90.9272049 C0.690046481,91.1215463 0.920804178,91.3361317 1.1050055,91.2065707 C1.86407687,90.6782049 2.34785836,89.734839 2.93689774,89.0283268 C3.60083217,88.2307171 4.29917783,87.4614488 4.9752574,86.6719366 C5.18577319,86.4269854 4.87202369,86.1273756 4.62709666,86.3237415" id="Fill-296" fill="#303030"></path>
                <path d="M3.88442123,89.8923366 C3.25489804,90.4814341 2.66585866,91.082678 2.1334966,91.7628732 C1.73068273,92.2770683 1.19832067,92.8479463 1.14366753,93.5200439 C1.13152239,93.6718732 1.3177479,93.758922 1.43919932,93.6900927 C2.00597261,93.3601171 2.3440124,92.6414585 2.73468113,92.1292878 C3.21846261,91.4936293 3.73058277,90.8680927 4.27711415,90.2850683 C4.52204118,90.023922 4.14554178,89.6473854 3.88442123,89.8923366" id="Fill-298" fill="#303030"></path>
                <path d="M4.8817398,92.7770927 C4.31496651,93.5645805 3.74819322,94.3581415 3.14296032,95.1172878 C2.64905788,95.7387756 1.94059126,96.3339463 1.61267243,97.0546293 C1.51146291,97.2773122 1.71995452,97.5263122 1.9547606,97.3987756 C2.67132397,97.0080683 3.19761345,96.1800927 3.68746751,95.538361 C4.29472461,94.7407512 4.83518343,93.9107512 5.3007472,93.0220439 C5.4464889,92.7406537 5.06189274,92.5260683 4.8817398,92.7770927" id="Fill-300" fill="#303030"></path>
                <path d="M4.85603259,96.0037683 C4.47953319,96.8034024 4.07267093,97.5888659 3.61722811,98.3480122 C3.21643842,99.016061 2.60918133,99.6577927 2.39259296,100.408841 C2.33996401,100.586988 2.55047981,100.759061 2.71241503,100.655817 C3.39051879,100.218549 3.79940524,99.3683049 4.18197721,98.6779878 C4.62729908,97.880378 4.99165334,97.050378 5.29933027,96.1900122 C5.39041883,95.934939 4.97343563,95.7547683 4.85603259,96.0037683" id="Fill-302" fill="#303030"></path>
                <path d="M11.3121876,31.0880512 C10.9275915,50.3359537 10.6543258,69.7053195 11.0794057,88.953222 C11.0834541,89.1435146 11.3668408,89.1435146 11.3729133,88.953222 C11.953856,69.7093683 11.8384771,50.337978 11.6117678,31.0880512 C11.6097436,30.8957341 11.316236,30.8957341 11.3121876,31.0880512" id="Fill-304" fill="#303030"></path>
                <path d="M11.4544882,89.313361 C11.1204968,99.8523366 10.9605858,110.397385 10.7338764,120.938385 C10.5071671,131.442946 9.7602409,142.068971 10.1590064,152.565434 C10.1691273,152.836702 10.5557477,152.830629 10.5759896,152.565434 C12.1993902,131.683849 11.6265444,110.259727 11.7965764,89.313361 C11.7965764,89.0927024 11.4605608,89.0947268 11.4544882,89.313361" id="Fill-306" fill="#303030"></path>
                <path d="M11.5575195,119.134046 C10.776182,133.7299 9.87744152,148.77112 11.2316249,163.352802 C11.2599635,163.67468 11.7356482,163.686827 11.7396966,163.352802 C11.9441398,148.592973 11.2194797,133.906022 11.9664059,119.134046 C11.9785511,118.870876 11.5716888,118.8729 11.5575195,119.134046" id="Fill-308" fill="#303030"></path>
                <path d="M12.0716638,130.64149 C11.3206892,142.429515 11.116246,154.41188 11.2883022,166.222173 C11.2903264,166.386149 11.531205,166.384124 11.541326,166.222173 C12.2133572,154.4301 12.5190099,142.449759 12.2700345,130.64149 C12.2659861,130.513954 12.0797606,130.515978 12.0716638,130.64149" id="Fill-310" fill="#303030"></path>
                <path d="M9.14954268,30.7147537 C8.29128599,36.1644122 8.79530938,41.9602415 8.80947871,47.4746805 C8.82567223,53.7462415 8.64754348,60.0542415 9.15156687,66.3096073 C9.16978459,66.546461 9.49972761,66.546461 9.51794532,66.3096073 C9.97541234,60.0542415 9.74870302,53.7442171 9.72036435,47.4746805 C9.69404988,41.9501195 10.1575895,36.168461 9.25884896,30.7147537 C9.2507522,30.6600951 9.15763944,30.6600951 9.14954268,30.7147537" id="Fill-312" fill="#303030"></path>
                <path d="M9.78878199,31.0742854 C8.91838015,34.8194073 9.10055728,39.5038463 9.4507422,43.3097 C9.46491154,43.4554561 9.66530638,43.4554561 9.67947571,43.3097 C10.0175155,39.4410902 10.4183052,34.9408707 9.92440274,31.0925049 C9.91630598,31.0216512 9.80902389,30.9912854 9.78878199,31.0742854" id="Fill-314" fill="#303030"></path>
                <path d="M9.77360056,30.7655659 C15.0445922,30.9983707 20.7042283,31.352639 25.9468812,30.7412732 C26.1938325,30.7109073 26.1918083,30.3870049 25.9468812,30.356639 C20.7082767,29.6946634 15.0486405,29.9962976 9.77360056,30.1805171 C9.39710116,30.1926634 9.39710116,30.7493707 9.77360056,30.7655659" id="Fill-316" fill="#303030"></path>
                <path d="M9.06493153,30.608878 C19.7607532,30.2687805 30.341196,30.287 41.0349935,30.2363902 C41.2009771,30.2363902 41.2515819,29.9590488 41.0754773,29.9347561 C30.6751874,28.5298293 19.4044957,28.8051463 9.0284961,30.3355854 C8.87263345,30.3578537 8.91109306,30.6129268 9.06493153,30.608878" id="Fill-318" fill="#303030"></path>
                <path d="M111.606365,30.0048 C111.278446,38.4687756 111.288567,47.4570683 112.163017,55.8846049 C112.179211,56.0404829 112.397823,56.0445317 112.407944,55.8846049 C112.913992,47.4287268 112.529396,38.4485317 111.833074,30.0048 C111.822953,29.8610683 111.612438,29.8570195 111.606365,30.0048" id="Fill-320" fill="#303030"></path>
                <path d="M112.423531,30.3695951 C112.269692,33.1996927 112.071321,36.1755463 112.391144,38.995522 C112.415434,39.2040341 112.692748,39.2040341 112.717038,38.995522 C113.03686,36.1755463 112.83849,33.1996927 112.684651,30.3695951 C112.67453,30.2015707 112.433652,30.2015707 112.423531,30.3695951" id="Fill-322" fill="#303030"></path>
                <path d="M112.079013,31.0564707 C111.504143,33.8440561 111.753119,37.257178 112.046626,40.0731049 C112.066868,40.2633976 112.321916,40.2633976 112.342158,40.0731049 C112.63769,37.2551537 112.884641,33.8420317 112.309771,31.0564707 C112.287505,30.9410805 112.103304,30.9410805 112.079013,31.0564707" id="Fill-324" fill="#303030"></path>
                <path d="M15.4801979,29.6047805 C14.3972561,30.6756829 13.3689674,31.7971951 12.332582,32.9106098 C11.4095512,33.902561 10.3508996,34.8560488 9.5857557,35.9755366 C9.51490904,36.0808049 9.66267493,36.1678537 9.74769092,36.1010488 C10.8528988,35.2123415 11.7718812,34.0159268 12.7333717,32.9713415 C13.7110556,31.910561 14.6968363,30.8558537 15.629988,29.7545854 C15.715004,29.6513415 15.5773591,29.5076098 15.4801979,29.6047805" id="Fill-326" fill="#303030"></path>
                <path d="M19.6830243,29.7966927 C16.2074895,32.355522 12.8007772,35.6998146 10.3413859,39.2566683 C10.2664909,39.3659854 10.4365229,39.4975707 10.5276115,39.4004 C13.5254373,36.0824244 16.4827794,32.9587902 19.8024515,29.9525707 C19.8854433,29.8776683 19.7741129,29.7298878 19.6830243,29.7966927" id="Fill-328" fill="#303030"></path>
                <path d="M23.8664184,30.1046024 C19.022531,33.7829195 13.9377649,37.7932366 9.95010996,42.406822 C9.87116653,42.4979195 9.99059376,42.6153341 10.0816823,42.5384073 C14.7737555,38.5098707 19.1237405,34.1007488 23.882612,30.1248463 C23.8927329,30.1147244 23.8785636,30.0965049 23.8664184,30.1046024" id="Fill-330" fill="#303030"></path>
                <path d="M27.7397066,30.356639 C21.308854,34.7050293 14.7848885,40.0048829 10.3296456,46.4302976 C10.2689199,46.5193707 10.4045407,46.6226146 10.4794357,46.5456878 C16.0054753,40.7154439 21.1914509,35.1483707 27.8125775,30.4801268 C27.8854483,30.4274927 27.8166258,30.3040049 27.7397066,30.356639" id="Fill-332" fill="#303030"></path>
                <path d="M31.9020492,30.8592951 C23.7587315,37.3434171 14.1053679,43.5846122 8.69673131,52.7227098 C8.62588465,52.8421488 8.79794082,52.9332463 8.87890844,52.827978 C15.4716963,44.1251244 23.9267393,38.1410268 31.985041,30.9422951 C32.0437425,30.8916854 31.9607507,30.8127341 31.9020492,30.8592951" id="Fill-334" fill="#303030"></path>
                <path d="M113.385628,187.730712 C109.503231,192.020395 106.029721,196.658273 102.066356,200.891273 C98.0969187,205.132371 93.7570547,208.946322 89.6398516,213.029517 C89.5447146,213.122639 89.6823596,213.250176 89.7815449,213.171224 C98.5543857,206.338907 107.412243,197.140078 113.462547,187.78942 C113.490886,187.742859 113.422064,187.690224 113.385628,187.730712" id="Fill-336" fill="#303030"></path>
                <path d="M115.133921,191.076017 C107.65049,198.766676 100.341139,207.016066 93.6734556,215.425383 C93.624875,215.488139 93.7058427,215.575188 93.7645442,215.514456 C101.268218,207.844041 108.52494,199.550115 115.214889,191.156993 C115.259421,191.10031 115.18655,191.023383 115.133921,191.076017" id="Fill-338" fill="#303030"></path>
                <path d="M114.403594,197.910359 C108.958522,203.106968 103.740159,208.975676 98.9630698,214.793773 C98.8254248,214.961798 99.0460616,215.196627 99.2079968,215.0367 C104.545787,209.728749 109.887625,203.971383 114.549335,198.056115 C114.630303,197.954895 114.502779,197.815212 114.403594,197.910359" id="Fill-340" fill="#303030"></path>
                <path d="M113.434816,203.945876 C109.973451,207.201095 106.091054,210.401656 103.135736,214.130583 C103.026429,214.268241 103.188365,214.428168 103.32601,214.320876 C107.082907,211.39968 110.319587,207.54929 113.606872,204.117949 C113.716179,204.004583 113.550195,203.838583 113.434816,203.945876" id="Fill-342" fill="#303030"></path>
                <path d="M112.833632,209.276095 C110.845877,210.944193 108.495792,212.592046 106.844052,214.600241 C106.744867,214.71968 106.870367,214.924144 107.020157,214.828998 C109.214379,213.413949 111.133312,211.257973 113.023905,209.466388 C113.151429,209.344924 112.965204,209.166778 112.833632,209.276095" id="Fill-344" fill="#303030"></path>
                <path d="M87.5940024,32.0261537 C88.1668483,31.882422 88.4340414,31.6637878 88.6668233,31.1192268 C88.7214764,30.9937146 88.5878798,30.8803488 88.4765494,30.9714463 C85.8410536,33.1739829 83.3006947,35.8036659 81.0295532,38.3766659 C80.9445372,38.475861 81.0740854,38.605422 81.1732707,38.5203976 C82.495067,37.3766171 83.7298231,36.1214951 84.9706517,34.8926902 C85.5232557,34.3461049 86.0778838,33.7974951 86.6284636,33.2488854 C86.9705518,32.904739 87.3126399,32.5585683 87.6547281,32.2123976 C88.0858806,31.7731049 88.8490004,31.4269341 87.5636395,31.9127878 C87.4927929,31.9391049 87.5191074,32.0443732 87.5940024,32.0261537" id="Fill-346" fill="#303030"></path>
                <path d="M76.3403139,43.9317951 C65.2052429,54.3614537 53.6288984,64.8984049 43.4107857,76.2329659 C43.3116004,76.3443073 43.4634146,76.4941122 43.5747451,76.3949171 C55.0660736,66.3559659 65.780113,54.9465024 76.3828219,43.9743073 C76.4091363,43.9459659 76.3686525,43.905478 76.3403139,43.9317951" id="Fill-348" fill="#303030"></path>
                <path d="M40.8426954,79.0774366 C31.0557352,87.3005098 21.4509521,96.001339 12.1923056,104.815534 C12.0020317,104.997729 12.2833941,105.268998 12.4797406,105.100973 C22.183709,96.7888268 31.8168308,88.1203878 40.9864129,79.2211683 C41.0815499,79.1280463 40.9418807,78.9944366 40.8426954,79.0774366" id="Fill-350" fill="#303030"></path>
                <path d="M44.5904838,81.2068927 C37.8620752,86.9926 31.4028838,93.1042341 24.8505798,99.0883317 C19.8143942,103.687746 14.292403,108.214283 10.6346911,114.0506 C10.5476509,114.188259 10.7581667,114.360332 10.8654488,114.228746 C20.8163685,102.007502 33.5039934,92.3471122 44.7726609,81.3890878 C44.8920882,81.2716732 44.7139594,81.0996 44.5904838,81.2068927" id="Fill-352" fill="#303030"></path>
                <path d="M93.8321521,29.9916415 C85.9540034,37.5405927 78.717523,45.8102268 71.1632447,53.6810561 C63.5988455,61.5620073 55.9089464,69.3579341 48.5692323,77.4453732 C48.3951519,77.6376902 48.6704418,77.9170561 48.8546431,77.7328366 C56.5627599,69.9935927 63.9591513,61.9162756 71.4466313,53.9644707 C78.9280388,46.0207634 86.8203569,38.3746415 93.9637245,30.1232268 C94.0406437,30.0341537 93.9191923,29.9086415 93.8321521,29.9916415" id="Fill-354" fill="#303030"></path>
                <path d="M100.973698,30.2153366 C92.5530663,36.6630195 85.2214489,44.5014585 77.7542108,51.9977756 C69.386208,60.3989951 61.0060601,68.7880683 52.7372426,77.2905073 C52.6421057,77.3897024 52.7918957,77.5395073 52.8890569,77.4423366 C68.8902814,61.7128244 84.1000475,45.0460195 101.117416,30.4015805 C101.216601,30.3145317 101.08098,30.134361 100.973698,30.2153366" id="Fill-356" fill="#303030"></path>
                <path d="M50.478651,83.2954561 C36.5360281,93.4578951 22.5731632,105.389651 10.6952144,117.906456 C10.5494727,118.062334 10.7701095,118.274895 10.9279963,118.139261 C17.5835341,112.414285 23.836258,106.207505 30.4573845,100.435968 C37.0785111,94.6624073 43.9992178,89.245139 50.6243927,83.4837244 C50.7256023,83.3966756 50.5899815,83.2144805 50.478651,83.2954561" id="Fill-358" fill="#303030"></path>
                <path d="M108.05553,30.5657585 C89.7082692,46.8054171 71.5755723,64.0086854 54.8618328,81.9306122 C54.6978734,82.1087585 54.9508971,82.3638317 55.1270017,82.1978317 C72.9277314,65.1646122 90.493655,47.847978 108.249853,30.7601 C108.377377,30.6366122 108.187103,30.4503683 108.05553,30.5657585" id="Fill-360" fill="#303030"></path>
                <path d="M51.383869,89.2311707 C37.4979233,100.359244 24.2860331,112.815317 10.9830543,124.655976 C10.7502724,124.864488 11.0883122,125.18839 11.3231183,124.996073 C24.9904513,113.776902 39.1820497,102.037463 51.4547156,89.3020244 C51.501272,89.2554634 51.4344737,89.1906829 51.383869,89.2311707" id="Fill-362" fill="#303030"></path>
                <path d="M112.243782,32.2134098 C104.090344,39.928361 95.9510746,47.8558732 88.1417483,55.9190195 C88.000055,56.0668 88.2146192,56.2773366 88.3664334,56.1437268 C96.742533,48.7486293 104.849415,40.5943854 112.314629,32.2842634 C112.359161,32.235678 112.290339,32.1688732 112.243782,32.2134098" id="Fill-364" fill="#303030"></path>
                <path d="M86.2116828,58.9711927 C75.8781912,66.9270463 65.793675,75.8647293 56.9945197,85.5028512 C56.8022216,85.7154122 57.1018018,86.0170463 57.3102934,85.8186561 C66.9029313,76.7919 76.4125775,67.8015829 86.3027714,59.0906317 C86.3675455,59.0339488 86.2805053,58.9185585 86.2116828,58.9711927" id="Fill-366" fill="#303030"></path>
                <path d="M111.827204,37.8823098 C108.017678,40.4553098 104.997586,44.1599439 101.815559,47.4414805 C97.7712265,51.6137488 93.6864104,55.749578 89.6947071,59.9724561 C89.5003848,60.1789439 89.8080618,60.4886756 90.0084566,60.2842122 C97.3016144,52.9235293 104.068483,44.7814317 111.954728,38.0483098 C112.045817,37.9713829 111.926389,37.8155049 111.827204,37.8823098" id="Fill-368" fill="#303030"></path>
                <path d="M112.471706,43.4605171 C109.093333,44.9464195 106.619772,48.4405171 104.105728,51.0317366 C100.684846,54.5541756 97.2457467,58.0644683 93.8815424,61.6435902 C93.6831717,61.8541268 93.994897,62.1679073 94.2013645,61.9614195 C97.3226659,58.8337366 100.381218,55.6412732 103.455963,52.4670293 C106.271611,49.5620293 109.032607,45.6468585 112.560771,43.6143707 C112.66198,43.5556634 112.572916,43.4159805 112.471706,43.4605171" id="Fill-370" fill="#303030"></path>
                <path d="M84.0419532,29.8691659 C81.1918932,31.9320195 78.6272441,34.4159463 75.9269742,36.6751659 C72.9008097,39.207678 69.6863954,41.5802634 66.7978758,44.2666293 C66.672376,44.3820195 66.8363355,44.6006537 66.9820772,44.5055073 C72.9797531,40.5498488 79.3154688,35.2844098 84.0702919,29.9056049 C84.0864854,29.8873854 84.0642193,29.8529707 84.0419532,29.8691659" id="Fill-372" fill="#303030"></path>
                <path d="M78.771164,30.6890439 C74.506195,33.9807024 70.2655163,37.6023366 66.476232,41.4324829 C66.401337,41.5094098 66.5045707,41.6571902 66.5956592,41.588361 C70.911233,38.3614829 75.0871376,34.6669707 78.9310751,30.8975561 C79.036333,30.7943122 78.8926155,30.5938976 78.771164,30.6890439" id="Fill-374" fill="#303030"></path>
                <path d="M11.1615879,83.2023341 C10.4733632,88.720822 10.833669,94.9357 11.5279663,100.450139 C11.5522566,100.632334 11.8154013,100.64448 11.8234981,100.450139 C12.0421107,94.8547244 12.1210541,88.7552366 11.4065149,83.2023341 C11.386273,83.0464561 11.1818298,83.0444317 11.1615879,83.2023341" id="Fill-376" fill="#303030"></path>
                <path d="M10.5185026,83.1970707 C10.29989,90.2885098 10.267503,97.7099244 11.0427679,104.766949 C11.065034,104.971412 11.352469,104.97951 11.3666383,104.766949 C11.8322021,97.6836073 11.4698721,90.2723146 10.9395342,83.1970707 C10.9192923,82.9298512 10.5265994,82.923778 10.5185026,83.1970707" id="Fill-378" fill="#303030"></path>
                <path d="M10.6251774,82.8426 C10.1272266,91.0332829 9.74465464,99.4446244 10.1029363,107.645429 C10.1150815,107.94099 10.5320647,107.934917 10.556355,107.645429 C11.2466039,99.4648683 11.2081442,91.049478 11.0421606,82.8426 C11.0360881,82.5733561 10.641371,82.5753805 10.6251774,82.8426" id="Fill-380" fill="#303030"></path>
                <path d="M35.8803928,110.770683 C27.1945922,116.515902 18.9743553,123.376561 12.1933177,131.304073 C12.0556727,131.464 12.2783337,131.69478 12.4281238,131.538902 C19.7394992,123.898854 27.277584,116.969366 35.9026589,110.811171 C35.9269492,110.792951 35.9046831,110.754488 35.8803928,110.770683" id="Fill-382" fill="#303030"></path>
                <path d="M45.9643018,102.5053 C44.5331992,103.900105 42.7883472,105.197739 41.6365829,106.843568 C41.573833,106.934666 41.701357,107.064227 41.7924455,106.997422 C43.4178704,105.817202 44.6850135,104.04991 46.0533662,102.594373 C46.1100435,102.535666 46.0230033,102.448617 45.9643018,102.5053" id="Fill-384" fill="#303030"></path>
                <path d="M38.5701369,115.584885 C28.6657737,123.032617 18.980023,131.302251 10.2679078,140.120495 C10.0735856,140.318885 10.3670932,140.608373 10.5735606,140.424154 C19.8767393,132.08569 29.1495552,123.816056 38.6895642,115.740763 C38.7745802,115.667885 38.6612255,115.51808 38.5701369,115.584885" id="Fill-386" fill="#303030"></path>
                <path d="M40.6224635,120.345441 C30.406375,128.325588 20.5728584,136.961637 10.6664709,145.328441 C10.4316648,145.526832 10.7676804,145.844661 11.0004623,145.660441 C21.1760671,137.72888 31.48122,129.455198 40.766181,120.489173 C40.861318,120.396051 40.7216488,120.268515 40.6224635,120.345441" id="Fill-388" fill="#303030"></path>
                <path d="M32.9770967,80.2934878 C24.6819647,85.8544878 16.5588889,92.9560488 9.80416583,100.304585 C9.66247251,100.458439 9.87906088,100.671 10.0349235,100.533341 C17.6661211,93.7678293 25.3722136,87.095439 33.0297256,80.3623171 C33.0681852,80.3299268 33.0196047,80.2651463 32.9770967,80.2934878" id="Fill-390" fill="#303030"></path>
                <path d="M27.6245302,78.7177024 C21.9426279,82.8940195 15.9388794,87.2828976 10.8581617,92.1697756 C10.7751699,92.2487268 10.8844762,92.3965073 10.9836615,92.3317268 C16.8538135,88.4327512 22.4486755,83.5195561 27.7520542,78.8837024 C27.8411186,78.8047512 27.7216913,78.6468488 27.6245302,78.7177024" id="Fill-392" fill="#303030"></path>
                <path d="M35.2618003,72.9324 C33.1019892,74.6571805 30.6689124,76.2928878 28.7762945,78.3112049 C28.6993752,78.3921805 28.7985606,78.539961 28.8997701,78.4731561 C31.2194922,76.9487902 33.2517793,74.831278 35.3245502,72.9951561 C35.3670582,72.9566927 35.3063325,72.8979854 35.2618003,72.9324" id="Fill-394" fill="#303030"></path>
                <path d="M113.484004,138.765368 C102.769965,148.091734 92.288707,158.397905 82.5179403,168.708124 C82.4207792,168.811368 82.5685451,168.957124 82.673803,168.864002 C93.298778,159.436417 103.946019,149.300295 113.6176,138.898978 C113.702616,138.809905 113.575092,138.686417 113.484004,138.765368" id="Fill-396" fill="#303030"></path>
                <path d="M79.4640444,172.666617 C78.0410386,173.939959 76.4965814,175.085763 75.1788335,176.472471 C75.1282287,176.525105 75.1970512,176.626324 75.2598011,176.577739 C76.7840164,175.415739 78.0977159,174.002715 79.5207217,172.7233 C79.5591813,172.688885 79.502504,172.632202 79.4640444,172.666617" id="Fill-398" fill="#303030"></path>
                <path d="M71.5780013,179.911505 C57.3641368,190.031432 43.9073196,201.936871 31.7702744,214.459749 C31.5698795,214.668261 31.8795807,214.975968 32.0860481,214.777578 C44.7979633,202.513822 57.9855633,191.187359 71.6933801,180.06131 C71.776372,179.99248 71.6650415,179.848749 71.5780013,179.911505" id="Fill-400" fill="#303030"></path>
                <path d="M113.284014,145.568129 C103.401917,154.568568 93.7404563,163.753227 83.6255773,172.504666 C83.4656662,172.6403 83.6964239,172.867032 83.8543108,172.733422 C94.0278913,164.162154 104.191351,155.297349 113.447973,145.732105 C113.551207,145.624812 113.39332,145.468934 113.284014,145.568129" id="Fill-402" fill="#303030"></path>
                <path d="M113.014189,150.875676 C106.676449,160.341724 97.1404888,166.61531 88.6105508,173.892993 C88.4708816,174.012432 88.6591313,174.26548 88.8089214,174.152115 C97.684996,167.449359 107.097481,160.444968 113.123496,150.940456 C113.166004,150.869602 113.058722,150.808871 113.014189,150.875676" id="Fill-404" fill="#303030"></path>
                <path d="M60.4943448,182.453532 C46.1246177,193.504678 31.9330193,204.861507 18.3183152,216.8378 C18.0652914,217.062507 18.433694,217.422849 18.688742,217.208263 C32.5524215,205.53158 46.3897866,193.842751 60.5348286,182.506166 C60.5651914,182.481873 60.5247076,182.429239 60.4943448,182.453532" id="Fill-406" fill="#303030"></path>
                <path d="M56.1334291,180.290673 C40.3224785,191.910673 25.1774865,205.348576 10.6316548,218.51521 C10.3928004,218.73182 10.7429853,219.075966 10.983864,218.867454 C25.8515419,205.895161 41.8790809,193.937088 56.2224935,180.406063 C56.2832192,180.34938 56.2022516,180.240063 56.1334291,180.290673" id="Fill-408" fill="#303030"></path>
            </g>
        </g>
    </g>
</svg>