<?xml version="1.0" encoding="UTF-8"?>
<svg width="60px" height="61px" viewBox="0 0 60 61" version="1.1" xmlns="http://www.w3.org/2000/svg" xmlns:xlink="http://www.w3.org/1999/xlink">
    <!-- Generator: Sketch 39.1 (31720) - http://www.bohemiancoding.com/sketch -->
    <title>Page 1</title>
    <desc>Created with Sketch.</desc>
    <defs></defs>
    <g id="Page-1" stroke="none" stroke-width="1" fill="none" fill-rule="evenodd">
        <g id="Artboard-Copy-3" transform="translate(-242.000000, -166.000000)">
            <g id="Page-1" transform="translate(242.000000, 166.000000)">
                <path d="M8.43729646,37.6383 L8.43729646,30.6393 C8.43729646,23.1043 7.69767174,15.4513 12.3424752,8.9373 C14.4349263,6.0023 17.3317069,3.7543 20.6515568,2.3813 C23.8997338,1.0383 27.4395797,0.5163 30.936621,0.4933 C32.0485467,0.4863 33.1773952,0.6523 34.2674209,0.8553 C36.8227596,1.3303 39.3183709,2.2053 41.5700952,3.5153 C44.565426,5.2563 47.0401327,7.7803 48.6955781,10.8363 C49.5098621,12.3393 50.1250547,13.9473 50.5660423,15.5983 C51.305667,18.3683 51.142412,21.2903 51.2021394,24.1293 C51.2568896,26.7153 51.270826,29.3033 51.2200577,31.8903 C51.1583393,34.9453 51.1921849,38.0503 50.5580786,41.0413 C49.5128485,45.9783 46.7892775,50.5293 42.6431981,53.4453 C40.4412467,54.9923 38.164636,55.7453 35.5734608,56.4063 C35.2618827,56.4863 34.3888667,56.9233 34.25448,56.5713 C34.1897752,56.4013 34.3818985,55.9543 34.4266941,55.7863 C34.5401762,55.3663 34.6715765,54.7613 35.0359139,54.4733 C35.2509326,54.3023 35.4470377,54.1893 35.7187976,54.1563 C40.6144563,53.5623 44.4360166,50.0593 46.6827636,45.8143 C49.2022659,41.0533 49.2480569,36.2693 49.2351159,31.0283 C49.2341205,30.3443 49.2311341,29.6593 49.2261568,28.9753 C49.2122204,27.4023 49.1992795,25.8283 49.1853431,24.2543 C49.1654339,21.8713 49.2799115,19.4573 48.6677053,17.1383 C48.3720545,16.0173 47.9838262,14.9203 47.5079976,13.8633 C46.1979759,10.9553 44.2020841,8.3753 41.6377863,6.4773 C38.6125917,4.2383 34.9602591,3.0533 31.2521809,2.6313 C29.9630638,2.4853 28.585351,2.6363 27.3111657,2.8173 C24.3606305,3.2343 21.4747999,4.2343 18.9771977,5.8823 C15.4214245,8.2293 13.0980273,11.7053 11.6078278,15.6533 C10.0360008,19.8143 10.4202473,24.3063 10.3983472,28.6763 C10.3864017,31.0283 10.3744563,33.3803 10.3625108,35.7323 C10.3625108,35.7323 10.6780707,39.0703 8.43729646,37.6383" id="Fill-1" fill="#808080"></path>
                <path d="M8.43729646,37.6383 L8.43729646,30.6393 C8.43729646,23.1043 7.69767174,15.4513 12.3424752,8.9373 C14.4349263,6.0023 17.3317069,3.7543 20.6515568,2.3813 C23.8997338,1.0383 27.4395797,0.5163 30.936621,0.4933 C32.0485467,0.4863 33.1773952,0.6523 34.2674209,0.8553 C36.8227596,1.3303 39.3183709,2.2053 41.5700952,3.5153 C44.565426,5.2563 47.0401327,7.7803 48.6955781,10.8363 C49.5098621,12.3393 50.1250547,13.9473 50.5660423,15.5983 C51.305667,18.3683 51.142412,21.2903 51.2021394,24.1293 C51.2568896,26.7153 51.270826,29.3033 51.2200577,31.8903 C51.1583393,34.9453 51.1921849,38.0503 50.5580786,41.0413 C49.5128485,45.9783 46.7892775,50.5293 42.6431981,53.4453 C40.4412467,54.9923 38.164636,55.7453 35.5734608,56.4063 C35.2618827,56.4863 34.3888667,56.9233 34.25448,56.5713 C34.1897752,56.4013 34.3818985,55.9543 34.4266941,55.7863 C34.5401762,55.3663 34.6715765,54.7613 35.0359139,54.4733 C35.2509326,54.3023 35.4470377,54.1893 35.7187976,54.1563 C40.6144563,53.5623 44.4360166,50.0593 46.6827636,45.8143 C49.2022659,41.0533 49.2480569,36.2693 49.2351159,31.0283 C49.2341205,30.3443 49.2311341,29.6593 49.2261568,28.9753 C49.2122204,27.4023 49.1992795,25.8283 49.1853431,24.2543 C49.1654339,21.8713 49.2799115,19.4573 48.6677053,17.1383 C48.3720545,16.0173 47.9838262,14.9203 47.5079976,13.8633 C46.1979759,10.9553 44.2020841,8.3753 41.6377863,6.4773 C38.6125917,4.2383 34.9602591,3.0533 31.2521809,2.6313 C29.9630638,2.4853 28.585351,2.6363 27.3111657,2.8173 C24.3606305,3.2343 21.4747999,4.2343 18.9771977,5.8823 C15.4214245,8.2293 13.0980273,11.7053 11.6078278,15.6533 C10.0360008,19.8143 10.4202473,24.3063 10.3983472,28.6763 C10.3864017,31.0283 10.3744563,33.3803 10.3625108,35.7323 C10.3625108,35.7323 10.6780707,39.0703 8.43729646,37.6383 L8.43729646,37.6383 Z" id="Stroke-3" stroke="#808080" stroke-width="0.317"></path>
                <path d="M9.38736085,19.8661 C10.0373944,19.7541 10.6904144,19.6491 11.3304934,19.4901 C14.7060889,18.6531 17.7850381,16.8841 20.336395,14.5251 C21.1327608,13.7891 21.8883129,13.0141 22.5184373,12.1341 C22.7762607,11.7741 23.1027707,11.4231 23.5347991,11.3311 C24.1997646,11.1891 24.7850934,11.8551 25.2917812,12.2121 C25.8293281,12.5901 26.3857887,12.9421 26.9561857,13.2681 C28.4702761,14.1321 30.0868987,14.8141 31.7622532,15.2901 C36.6270527,16.6721 41.7715757,16.1541 46.4342975,14.2751 C46.8215303,14.1191 47.2057768,13.9551 47.5870369,13.7821 C48.1425021,13.5301 48.3714572,12.8501 48.0996974,12.3021 C47.8428694,11.7831 47.2316587,11.5521 46.7030709,11.7841 C43.0815975,13.3721 38.9753364,14.0091 35.0552258,13.4981 C32.8731835,13.2141 30.731955,12.5741 28.7559723,11.6021 C27.7525515,11.1081 26.7969125,10.5171 25.9029919,9.8431 C25.0986625,9.2371 24.3869105,8.3211 23.4471989,7.9351 C22.3103867,7.4691 21.7131124,9.1171 21.292034,9.8561 C19.9561304,12.2021 18.0528161,13.7681 15.751319,15.1311 C13.2766123,16.5971 10.7441691,17.7651 7.87725222,18.1991 C7.08586372,18.3191 6.3064207,18.5201 5.57376417,18.8491 C4.32446534,19.4091 3.18068497,20.2211 2.28477345,21.2641 C-1.10177207,25.2071 -0.635898084,31.3401 3.10204385,34.8631 C3.98600988,35.6961 5.0212854,36.3571 6.11927474,36.8691 C6.67175351,37.1261 7.24115505,37.3471 7.82051116,37.5341 C8.26249417,37.6761 9.04691448,38.0361 9.48989295,37.9301 C9.51079755,37.4171 9.28283784,36.7861 9.38935177,36.2871 C9.38935177,36.2871 9.57351136,35.5471 9.57351136,35.5461 C9.53269761,35.7131 7.14658661,34.8491 7.00622714,34.7871 C2.92584792,32.9641 1.24750701,28.0441 3.156794,24.0291 C3.78194114,22.7131 4.76744381,21.5801 6.04361999,20.8691 C7.08984555,20.2851 8.23362591,20.0651 9.38736085,19.8661" id="Fill-5" fill="#808080"></path>
                <path d="M50.5301063,20.0187 C50.6037701,20.0797 51.3374221,20.4007 51.432986,20.4297 C53.621001,21.1057 55.5989745,22.6687 56.5566044,24.6527 C57.6526028,26.9247 57.4216567,29.9797 56.0021347,32.1157 C55.5044061,32.8637 54.8702998,33.5097 54.1237069,34.0417 C53.6548465,34.3757 53.1501497,34.6627 52.6255437,34.9087 C52.4364069,34.9977 50.769016,35.5367 50.7620478,35.6027 C50.6913703,36.3357 50.5032289,37.1487 50.5589745,37.8737 C50.7013249,37.7847 50.8416844,37.9097 51.0099167,37.8737 C52.4513387,37.5607 53.7514059,37.0907 55.016632,36.3307 C58.5206415,34.2277 60.3433237,30.1097 59.7211629,26.2507 C59.4135667,24.3427 58.5385597,22.5197 57.1439242,21.1057 C55.423774,19.3607 52.9639992,18.3137 50.5301063,17.8217 C50.6844021,18.6107 50.838698,19.4007 50.9929939,20.1897 C51.0079257,20.2677 50.9442165,20.1257 50.9929939,20.1897 C51.0069303,20.2097 50.5111926,20.0037 50.5301063,20.0187" id="Fill-7" fill="#808080"></path>
                <path d="M29.8457989,57.7928 C28.365554,57.7928 27.166028,56.5878 27.166028,55.1008 C27.166028,53.6138 28.365554,52.4078 29.8457989,52.4078 C31.3260438,52.4078 32.5255698,53.6138 32.5255698,55.1008 C32.5255698,56.5878 31.3260438,57.7928 29.8457989,57.7928 M29.8457989,49.2008 C26.6025992,49.2008 23.9726012,51.8418 23.9726012,55.1008 C23.9726012,58.3588 26.6025992,60.9998 29.8457989,60.9998 C33.0889986,60.9998 35.7189966,58.3588 35.7189966,55.1008 C35.7189966,51.8418 33.0889986,49.2008 29.8457989,49.2008" id="Fill-9" fill="#808080"></path>
                <path d="M25.8397804,24.7086 C25.8397804,26.3576 24.508854,27.6956 22.8663496,27.6956 C21.2248406,27.6956 19.8939143,26.3576 19.8939143,24.7086 C19.8939143,23.0596 21.2248406,21.7216 22.8663496,21.7216 C24.508854,21.7216 25.8397804,23.0596 25.8397804,24.7086" id="Fill-11" fill="#808080"></path>
                <path d="M39.8286423,24.7086 C39.8286423,26.3576 38.497716,27.6956 36.8552115,27.6956 C35.2137025,27.6956 33.8827762,26.3576 33.8827762,24.7086 C33.8827762,23.0596 35.2137025,21.7216 36.8552115,21.7216 C38.497716,21.7216 39.8286423,23.0596 39.8286423,24.7086" id="Fill-13" fill="#808080"></path>
                <path d="M21.2544057,34.3324 C20.7656362,34.5564 20.4640126,35.1054 20.4679945,35.7174 C20.4809354,37.6084 22.4449725,39.5684 23.9043129,40.5914 C25.9320593,42.0134 28.1399834,42.2514 30.5440126,42.2234 C32.7280458,42.1984 34.9698155,41.3514 36.6640837,39.9744 C37.5390907,39.2644 38.2916563,38.2604 38.7993395,37.2594 C39.1338132,36.5994 39.4434004,35.6254 39.1338132,34.9024 C38.8122805,34.1504 38.0278602,34.0274 37.3529402,34.3794 C36.6740383,34.7334 36.4610105,35.4504 36.0737776,36.0534 C35.6477219,36.7164 35.1042023,37.3054 34.4910006,37.7964 C31.7992842,39.9504 27.6133865,40.0894 24.9535248,37.7954 C24.2148955,37.1594 23.6713759,36.3854 23.2901157,35.4904 C23.0492151,34.9254 22.667955,34.3784 22.0288714,34.2524 C21.7391934,34.1954 21.4773881,34.2304 21.2544057,34.3324" id="Fill-15" fill="#808080"></path>
            </g>
        </g>
    </g>
</svg>