<?xml version="1.0" encoding="UTF-8"?>
<svg width="54px" height="55px" viewBox="0 0 54 55" version="1.1" xmlns="http://www.w3.org/2000/svg" xmlns:xlink="http://www.w3.org/1999/xlink">
    <!-- Generator: Sketch 39.1 (31720) - http://www.bohemiancoding.com/sketch -->
    <title>Page 1</title>
    <desc>Created with Sketch.</desc>
    <defs>
        <polygon id="path-1" points="0 0.583559322 53.5317797 0.583559322 53.5317797 55 0 55"></polygon>
    </defs>
    <g id="Page-1" stroke="none" stroke-width="1" fill="none" fill-rule="evenodd">
        <g id="Artboard-Copy-3" transform="translate(-493.000000, -166.000000)">
            <g id="Page-1" transform="translate(493.000000, 166.000000)">
                <path d="M41.2498136,0.720220339 C42.2137119,0.974711864 43.2204915,1.12666102 44.1349831,1.50140678 C48.181678,3.15886441 50.656678,6.14191525 51.4182881,10.4729322 C51.5674407,11.3193729 51.6028644,12.1947119 51.6047288,13.0560678 C51.6196441,19.2403051 51.6140508,25.4245424 51.610322,31.6078475 C51.6093898,31.8707288 51.5935424,32.1401356 51.5338814,32.3936949 C51.4201525,32.8728475 51.0724407,33.0956441 50.5970169,33.0779322 C50.1448983,33.0611525 49.8251525,32.8234407 49.735661,32.3638644 C49.6843898,32.1065763 49.6722712,31.8381017 49.6722712,31.5752203 C49.6685424,25.2856441 49.6582881,18.9951356 49.676,12.7055593 C49.6815932,10.5419153 49.1847288,8.53954237 47.9150678,6.77488136 C45.9546441,4.04911864 43.2587119,2.64894915 39.9167627,2.63776271 C30.5695593,2.6060678 21.2232881,2.61538983 11.8770169,2.63123729 C7.15447458,2.63962712 3.31752542,5.74013559 2.29862712,10.357339 C2.14108475,11.0732712 2.10472881,11.8283559 2.10379661,12.5647966 C2.09167797,21.8057288 2.13269492,31.046661 2.08049153,40.286661 C2.05438983,44.8600508 4.97311864,48.5403898 8.701,49.696322 C9.73015254,50.0151356 10.841339,50.1875932 11.9189661,50.2099661 C15.1686271,50.2752203 18.4201525,50.2332712 21.671678,50.2342034 C21.8655763,50.2342034 22.0641356,50.2248814 22.2524407,50.2612373 C22.7334576,50.3553898 23.0420169,50.777678 23.010322,51.2633559 C22.9795593,51.7210678 22.6355763,52.0743729 22.1620169,52.1303051 C22.0743898,52.1405593 21.9858305,52.1405593 21.8972712,52.1405593 C18.4164237,52.1386949 14.9355763,52.1685254 11.455661,52.1265763 C6.08710169,52.061322 1.3319322,48.0174237 0.372694915,42.7253051 C0.22820339,41.9310678 0.156423729,41.111661 0.155491525,40.3034407 C0.140576271,31.0634407 0.121,21.8225085 0.156423729,12.5815763 C0.174135593,8.08183051 2.12616949,4.60937288 5.99761017,2.26581356 C7.26261017,1.49861017 8.65252542,1.05301695 10.1151525,0.833949153 C10.2475254,0.813440678 10.3752373,0.758440678 10.5057458,0.720220339 L41.2498136,0.720220339 Z" id="Fill-1" fill="#808080"></path>
                <path d="M41.2498136,0.720220339 C42.2137119,0.974711864 43.2204915,1.12666102 44.1349831,1.50140678 C48.181678,3.15886441 50.656678,6.14191525 51.4182881,10.4729322 C51.5674407,11.3193729 51.6028644,12.1947119 51.6047288,13.0560678 C51.6196441,19.2403051 51.6140508,25.4245424 51.610322,31.6078475 C51.6093898,31.8707288 51.5935424,32.1401356 51.5338814,32.3936949 C51.4201525,32.8728475 51.0724407,33.0956441 50.5970169,33.0779322 C50.1448983,33.0611525 49.8251525,32.8234407 49.735661,32.3638644 C49.6843898,32.1065763 49.6722712,31.8381017 49.6722712,31.5752203 C49.6685424,25.2856441 49.6582881,18.9951356 49.676,12.7055593 C49.6815932,10.5419153 49.1847288,8.53954237 47.9150678,6.77488136 C45.9546441,4.04911864 43.2587119,2.64894915 39.9167627,2.63776271 C30.5695593,2.6060678 21.2232881,2.61538983 11.8770169,2.63123729 C7.15447458,2.63962712 3.31752542,5.74013559 2.29862712,10.357339 C2.14108475,11.0732712 2.10472881,11.8283559 2.10379661,12.5647966 C2.09167797,21.8057288 2.13269492,31.046661 2.08049153,40.286661 C2.05438983,44.8600508 4.97311864,48.5403898 8.701,49.696322 C9.73015254,50.0151356 10.841339,50.1875932 11.9189661,50.2099661 C15.1686271,50.2752203 18.4201525,50.2332712 21.671678,50.2342034 C21.8655763,50.2342034 22.0641356,50.2248814 22.2524407,50.2612373 C22.7334576,50.3553898 23.0420169,50.777678 23.010322,51.2633559 C22.9795593,51.7210678 22.6355763,52.0743729 22.1620169,52.1303051 C22.0743898,52.1405593 21.9858305,52.1405593 21.8972712,52.1405593 C18.4164237,52.1386949 14.9355763,52.1685254 11.455661,52.1265763 C6.08710169,52.061322 1.3319322,48.0174237 0.372694915,42.7253051 C0.22820339,41.9310678 0.156423729,41.111661 0.155491525,40.3034407 C0.140576271,31.0634407 0.121,21.8225085 0.156423729,12.5815763 C0.174135593,8.08183051 2.12616949,4.60937288 5.99761017,2.26581356 C7.26261017,1.49861017 8.65252542,1.05301695 10.1151525,0.833949153 C10.2475254,0.813440678 10.3752373,0.758440678 10.5057458,0.720220339 L41.2498136,0.720220339 L41.2498136,0.720220339 Z" id="Stroke-3" stroke="#808080" stroke-width="0.293"></path>
                <g id="Group-7">
                    <mask id="mask-2" fill="white">
                        <use xlink:href="#path-1"></use>
                    </mask>
                    <g id="Clip-6"></g>
                    <path d="M30.6735932,43.3393475 C32.2602034,43.4903644 33.5018983,44.1624831 34.1563051,45.6540085 C34.8153729,47.1567203 34.4657966,48.5410424 33.5559661,49.7342627 C33.807661,50.0176525 34.0146102,50.2516356 34.2439322,50.5098559 C35.4744407,49.5058729 36.8177458,49.089178 38.3418983,49.6829915 C39.8818983,50.2823983 40.5903729,51.5175678 40.8168983,53.0594322 L41.7975763,53.0594322 C42.2907119,50.0633305 45.4900339,48.6892627 47.9864746,50.4613814 C48.2335085,50.2423136 48.4768136,50.0251102 48.7322373,49.7976525 C47.7487627,48.4925678 47.4103729,47.1268898 48.0768983,45.6362966 C48.7396949,44.1522288 49.9935085,43.4968898 51.5269831,43.332822 L51.5269831,42.3018051 C49.9142712,42.0734153 48.7294407,41.3164661 48.1589322,39.7913814 C47.5921525,38.2765508 48.0274915,36.9295169 48.9541017,35.7968898 C48.7154576,35.4957881 48.5215593,35.2496864 48.3295254,35.0082458 C48.0237627,35.1974831 47.7897797,35.3540932 47.5455424,35.4911271 C46.8342712,35.889178 46.0735932,36.0886695 45.2588475,35.9684153 C43.3963051,35.6915508 42.1965593,34.4796864 41.8870678,32.6106186 C41.8618983,32.4530763 41.7472373,32.222822 41.6241864,32.1846017 C41.0471525,32.0074831 40.7935932,32.1771441 40.7041017,32.7802797 C40.2361356,35.9357881 36.8550339,37.2185 34.5049492,35.3773983 C34.0584237,35.027822 33.7489322,35.0399407 33.4394407,35.4985847 C33.3816441,35.5843475 33.3107966,35.6607881 33.248339,35.7390932 C35.3942712,38.1879915 34.2075763,41.8403644 30.6735932,42.338161 L30.6735932,43.3393475 Z M39.6600339,55.0002797 C39.252661,54.7075678 39.0382542,54.314178 38.9925763,53.8107881 C38.9655424,53.5143475 38.8835085,53.2225678 38.8182542,52.9298559 C38.4957119,51.4868051 37.0722373,50.9125678 35.8324068,51.733839 C35.4651186,51.9771441 35.1267288,52.2642627 34.7613051,52.5112966 C34.2346102,52.8683305 33.8449492,52.8394322 33.3816441,52.3947712 C32.7962203,51.8317203 32.2210508,51.2565508 31.658,50.6711271 C31.2114746,50.2087542 31.1844407,49.8396017 31.5302881,49.2905339 C31.7652034,48.9176525 32.0355424,48.5652797 32.2574068,48.1849407 C32.9668136,46.9684153 32.3618136,45.6195169 30.9877458,45.3445169 C30.5738475,45.2615508 30.1543559,45.2037542 29.7357966,45.1366356 C29.0319831,45.0247712 28.7467288,44.7087542 28.7411356,44.0096017 C28.7346102,43.2144322 28.733678,42.4192627 28.7420678,41.6250254 C28.747661,41.0237542 28.9881695,40.7189237 29.577322,40.5753644 C30.0564746,40.458839 30.5505424,40.3982458 31.0231695,40.2612119 C32.2359661,39.9107034 32.7561356,38.5869746 32.1054576,37.5056186 C31.8612203,37.0982458 31.5498644,36.7318898 31.277661,36.3412966 C30.8572373,35.7390932 30.8796102,35.3568898 31.3848644,34.8348559 C31.9255424,34.2764661 32.4755424,33.7264661 33.0339322,33.1867203 C33.4991017,32.7373983 33.9213898,32.7001102 34.4657966,33.0487542 C34.9113898,33.3340085 35.3374068,33.6500254 35.7857966,33.9306186 C37.0442712,34.7201949 38.3810508,34.1767203 38.7259661,32.7336695 C38.8490169,32.2200254 38.9310508,31.6970593 39.0354576,31.1787542 C39.1622373,30.5560424 39.4875763,30.2456186 40.1214746,30.2269746 C40.9334237,30.2027373 41.7463051,30.2008729 42.5582542,30.2279068 C43.1902881,30.2493475 43.4746102,30.5150254 43.6060508,31.1423983 C43.7132542,31.6597712 43.758,32.1911271 43.8959661,32.699178 C44.2119831,33.868161 45.4807119,34.4069746 46.5490169,33.8327373 C46.9517288,33.6155339 47.3190169,33.3340085 47.7040169,33.0851102 C48.3090169,32.6935847 48.7154576,32.7215508 49.2179153,33.2109576 C49.7613898,33.7413814 50.2992712,34.2783305 50.8296949,34.8208729 C51.3452034,35.3485 51.3647797,35.7530763 50.9294407,36.3711271 C50.6553729,36.7598559 50.3514746,37.1318051 50.1100339,37.5410424 C49.4807966,38.6074831 49.9916441,39.9051102 51.1792712,40.2537542 C51.6509661,40.3926525 52.1450339,40.4532458 52.6241864,40.5697712 C53.2431695,40.7198559 53.4957966,41.0079068 53.5144407,41.6436695 C53.5368136,42.4379068 53.538678,43.2340085 53.5135085,44.0282458 C53.493,44.7162119 53.1741864,45.0294322 52.4768983,45.1385 C52.0415593,45.2065508 51.6024915,45.2596864 51.1727458,45.353839 C49.8937627,45.6362966 49.2943559,46.9665508 49.9347797,48.1140932 C50.1575763,48.5130763 50.4409661,48.8775678 50.6870678,49.2644322 C51.0347797,49.8107034 51.0030847,50.2329915 50.5556271,50.6972288 C50.0046949,51.2696017 49.4435085,51.8335847 48.8702034,52.3835847 C48.3835932,52.8487542 48.0051186,52.8673983 47.4457966,52.4926525 C47.1530847,52.2968898 46.8799492,52.0675678 46.5769831,51.8895169 C45.4406271,51.2229915 44.1085085,51.7869746 43.7962203,53.0622288 C43.7374915,53.3008729 43.7020678,53.5469746 43.6759661,53.7921441 C43.6209661,54.3113814 43.4382542,54.7476525 42.9460508,55.0002797 L39.6600339,55.0002797 Z" id="Fill-5" fill="#8DC578" mask="url(#mask-2)"></path>
                </g>
                <path d="M34.4662627,25.4562373 C37.1668559,25.4562373 39.8674492,25.4553051 42.5689746,25.4562373 C43.4871949,25.4571695 43.9952458,25.8151356 43.9812627,26.4481017 C43.9672797,27.0661525 43.4778729,27.4054746 42.5894831,27.4054746 C37.1696525,27.4064068 31.7507542,27.4064068 26.3318559,27.4054746 C25.3940593,27.4054746 24.9186356,27.0670847 24.929822,26.4154746 C24.9410085,25.7834407 25.4071102,25.4571695 26.3113475,25.4571695 C29.0296525,25.4553051 31.7479576,25.4562373 34.4662627,25.4562373" id="Fill-8" fill="#808080"></path>
                <path d="M34.4571271,12.1466102 L42.3463644,12.1466102 C42.4703475,12.1466102 42.5943305,12.145678 42.7173814,12.1466102 C43.5265339,12.1559322 43.9870424,12.5064407 43.9805169,13.1077119 C43.9730593,13.7080508 43.5022966,14.0669492 42.7033983,14.0669492 C37.1968729,14.0688136 31.6894153,14.0688136 26.1828898,14.0641525 C25.9582288,14.0632203 25.7167881,14.0408475 25.5107712,13.9597458 C25.0866186,13.7910169 24.8843305,13.4395763 24.9430593,12.989322 C25.0008559,12.5465254 25.2628051,12.2482203 25.7223814,12.1773729 C25.9302627,12.145678 26.1446695,12.1475424 26.3553475,12.1475424 C29.0559407,12.145678 31.7565339,12.1466102 34.4571271,12.1466102" id="Fill-10" fill="#808080"></path>
                <path d="M43.9457458,42.5434322 C43.8823559,40.9577542 42.5912542,39.7272458 41.0512542,39.7869068 C39.4450678,39.8484322 38.2276102,41.1386017 38.2770169,42.7252119 C38.3245593,44.2652119 39.6557458,45.5087712 41.2069322,45.462161 C42.7543898,45.4164831 44.0072712,44.0815678 43.9457458,42.5434322 M36.3641356,42.6133475 C36.370661,40.0050424 38.5091356,37.8143644 41.1099831,37.8553814 C43.8404068,37.8991949 45.8642203,39.9649576 45.8791356,42.6497034 C45.8940508,45.2747881 43.7043051,47.3825 41.0997288,47.3713136 C38.4746441,47.3591949 36.356678,45.2319068 36.3641356,42.6133475" id="Fill-12" fill="#8DC578"></path>
                <polygon id="Fill-14" fill="#808080" points="7.30698305 12.7656864 8.51698305 11.5072119 11.9102034 14.2544153 18.3330847 6.88068644 19.7202034 8.00958475 12.188 16.8170424"></polygon>
                <polygon id="Fill-16" fill="#808080" points="8.40111017 25.3477288 9.61111017 24.0892542 13.0043305 26.8364576 19.4272119 19.4627288 20.8143305 20.5916271 13.2821271 29.3990847"></polygon>
                <polygon id="Fill-18" fill="#808080" points="8.75544068 38.4184322 9.96544068 37.1599576 13.358661 39.907161 19.7815424 32.5334322 21.168661 33.6623305 13.6364576 42.4697881"></polygon>
            </g>
        </g>
    </g>
</svg>